<svg width="82" height="82" viewBox="0 0 82 82" fill="none" xmlns="http://www.w3.org/2000/svg">
<path d="M45.2872 10.2875L57.4581 2.76245L79.2497 17.9562L65.8477 28.2187M66.4247 50.6104L79.5414 39.902M66.4247 45.0666L79.5414 34.3583M66.4247 39.5249L79.5414 28.8166M66.4247 33.9833L79.5414 23.2749M25.4102 20.8833L41.4622 10.8833L62.8664 28.9833V55.1625L50.4352 65.2374V40.6187L25.4102 20.8833Z" stroke="white" stroke-width="4.16667" stroke-linecap="round" stroke-linejoin="round"/>
<path d="M64.5705 20.5249L70.2434 16.1978L66.358 13.5999L63.2372 15.9561M2.45801 57.5707L30.6726 79.2374L46.1372 66.9249" stroke="white" stroke-width="4.16667" stroke-linecap="round" stroke-linejoin="round"/>
<path d="M2.45801 52.0103L30.6726 73.6769L46.1372 61.3644" stroke="white" stroke-width="4.16667" stroke-linecap="round" stroke-linejoin="round"/>
<path d="M2.6748 46.45L30.8894 68.1187L46.354 55.8062" stroke="white" stroke-width="4.16667" stroke-linecap="round" stroke-linejoin="round"/>
<path d="M2.64551 40.8917L30.858 62.5584L46.3226 50.2459M33.1559 40.4792C32.6851 42.6188 29.6268 43.7167 26.3268 42.9271C23.0268 42.1396 20.733 39.7667 21.2038 37.625C21.6747 35.4854 24.733 34.3896 28.033 35.1771C31.333 35.9646 33.6268 38.3396 33.1559 40.4792Z" stroke="white" stroke-width="4.16667" stroke-linecap="round" stroke-linejoin="round"/>
<path d="M22.3558 23.9707L2.99121 35.627L30.7641 56.704L46.6808 44.1728" stroke="white" stroke-width="4.16667" stroke-linecap="round" stroke-linejoin="round"/>
</svg>
