<svg width="100" height="100" viewBox="0 0 100 100" fill="none" xmlns="http://www.w3.org/2000/svg">
<g clip-path="url(#clip0_3829_2458)">
<path d="M66.6663 53.3V60H53.333V53.3H66.6663ZM66.6663 40V46.6333H53.333V40H66.6663ZM46.6663 40H33.333V46.6333H46.6663V40ZM46.6663 53.3H33.333V60H46.6663V53.3Z" fill="#4244F5"/>
<path fill-rule="evenodd" clip-rule="evenodd" d="M6.66699 10C6.66699 7.34784 7.72056 4.8043 9.59592 2.92893C11.4713 1.05357 14.0148 0 16.667 0L71.3803 0L93.3337 21.9533V90C93.3337 92.6522 92.2801 95.1957 90.4047 97.0711C88.5294 98.9464 85.9858 100 83.3337 100H16.667C14.0148 100 11.4713 98.9464 9.59592 97.0711C7.72056 95.1957 6.66699 92.6522 6.66699 90V10ZM26.667 26.6667H46.667V20H26.667V26.6667ZM73.3337 33.3333H26.667V66.6667H73.3337V33.3333ZM73.3337 80H53.3337V73.3333H73.3337V80Z" fill="#4244F5"/>
</g>
<defs>
<clipPath id="clip0_3829_2458">
<rect width="100" height="100" fill="white"/>
</clipPath>
</defs>
</svg>
