<svg width="100" height="100" viewBox="0 0 100 100" fill="none" xmlns="http://www.w3.org/2000/svg">
<path d="M78.125 15.625H77.5938V21.875H78.125C78.9538 21.875 79.7487 22.2042 80.3347 22.7903C80.9208 23.3763 81.25 24.1712 81.25 25V87.5C81.25 88.3288 80.9208 89.1237 80.3347 89.7097C79.7487 90.2958 78.9538 90.625 78.125 90.625H21.875C21.0462 90.625 20.2513 90.2958 19.6653 89.7097C19.0792 89.1237 18.75 88.3288 18.75 87.5V25C18.75 24.1712 19.0792 23.3763 19.6653 22.7903C20.2513 22.2042 21.0462 21.875 21.875 21.875H22.4062V15.625H21.875C19.3886 15.625 17.004 16.6127 15.2459 18.3709C13.4877 20.129 12.5 22.5136 12.5 25V87.5C12.5 89.9864 13.4877 92.371 15.2459 94.1291C17.004 95.8873 19.3886 96.875 21.875 96.875H78.125C80.6114 96.875 82.996 95.8873 84.7541 94.1291C86.5123 92.371 87.5 89.9864 87.5 87.5V25C87.5 22.5136 86.5123 20.129 84.7541 18.3709C82.996 16.6127 80.6114 15.625 78.125 15.625Z" fill="#4244F5"/>
<path d="M71.875 9.375H62.5V0H37.5V9.375H28.125V28.125H71.875V9.375ZM65.625 21.875H34.375V15.625H43.75V6.25H56.25V15.625H65.625V21.875Z" fill="#4244F5"/>
<path d="M31.25 40.625H68.75V46.875H31.25V40.625ZM31.25 56.25H68.75V62.5H31.25V56.25ZM31.25 71.875H68.75V78.125H31.25V71.875Z" fill="#4244F5"/>
</svg>
