<svg width="100" height="100" viewBox="0 0 100 100" fill="none" xmlns="http://www.w3.org/2000/svg">
<path d="M41.6667 37.5H25M25 25H37.5M75 75L56.25 62.5L45.8333 70.8333L25 54.1667M64.5833 45.8333C61.8207 45.8333 59.1711 44.7359 57.2176 42.7824C55.2641 40.8289 54.1667 38.1793 54.1667 35.4167C54.1667 32.654 55.2641 30.0045 57.2176 28.051C59.1711 26.0975 61.8207 25 64.5833 25C67.346 25 69.9955 26.0975 71.949 28.051C73.9025 30.0045 75 32.654 75 35.4167C75 38.1793 73.9025 40.8289 71.949 42.7824C69.9955 44.7359 67.346 45.8333 64.5833 45.8333Z" stroke="#4244F5" stroke-width="6.25" stroke-linecap="round" stroke-linejoin="round"/>
<path d="M12.5 85V15C12.5 14.337 12.7634 13.7011 13.2322 13.2322C13.7011 12.7634 14.337 12.5 15 12.5H85C85.663 12.5 86.2989 12.7634 86.7678 13.2322C87.2366 13.7011 87.5 14.337 87.5 15V85C87.5 85.663 87.2366 86.2989 86.7678 86.7678C86.2989 87.2366 85.663 87.5 85 87.5H15C14.337 87.5 13.7011 87.2366 13.2322 86.7678C12.7634 86.2989 12.5 85.663 12.5 85Z" stroke="#4244F5" stroke-width="6.25"/>
</svg>
