<svg width="244" height="224" viewBox="0 0 244 224" fill="none" xmlns="http://www.w3.org/2000/svg">
<rect width="244" height="224" rx="12" fill="white"/>
<path d="M17.35 19.5C17.35 18.8133 17.5033 18.2 17.81 17.66C18.1233 17.1133 18.5467 16.69 19.08 16.39C19.62 16.0833 20.2233 15.93 20.89 15.93C21.67 15.93 22.3533 16.13 22.94 16.53C23.5267 16.93 23.9367 17.4833 24.17 18.19H22.56C22.4 17.8567 22.1733 17.6067 21.88 17.44C21.5933 17.2733 21.26 17.19 20.88 17.19C20.4733 17.19 20.11 17.2867 19.79 17.48C19.4767 17.6667 19.23 17.9333 19.05 18.28C18.8767 18.6267 18.79 19.0333 18.79 19.5C18.79 19.96 18.8767 20.3667 19.05 20.72C19.23 21.0667 19.4767 21.3367 19.79 21.53C20.11 21.7167 20.4733 21.81 20.88 21.81C21.26 21.81 21.5933 21.7267 21.88 21.56C22.1733 21.3867 22.4 21.1333 22.56 20.8H24.17C23.9367 21.5133 23.5267 22.07 22.94 22.47C22.36 22.8633 21.6767 23.06 20.89 23.06C20.2233 23.06 19.62 22.91 19.08 22.61C18.5467 22.3033 18.1233 21.88 17.81 21.34C17.5033 20.8 17.35 20.1867 17.35 19.5ZM25.0058 20.21C25.0058 19.65 25.1158 19.1533 25.3358 18.72C25.5624 18.2867 25.8658 17.9533 26.2458 17.72C26.6324 17.4867 27.0624 17.37 27.5358 17.37C27.9491 17.37 28.3091 17.4533 28.6158 17.62C28.9291 17.7867 29.1791 17.9967 29.3658 18.25V17.46H30.7758V23H29.3658V22.19C29.1858 22.45 28.9358 22.6667 28.6158 22.84C28.3024 23.0067 27.9391 23.09 27.5258 23.09C27.0591 23.09 26.6324 22.97 26.2458 22.73C25.8658 22.49 25.5624 22.1533 25.3358 21.72C25.1158 21.28 25.0058 20.7767 25.0058 20.21ZM29.3658 20.23C29.3658 19.89 29.2991 19.6 29.1658 19.36C29.0324 19.1133 28.8524 18.9267 28.6258 18.8C28.3991 18.6667 28.1558 18.6 27.8958 18.6C27.6358 18.6 27.3958 18.6633 27.1758 18.79C26.9558 18.9167 26.7758 19.1033 26.6358 19.35C26.5024 19.59 26.4358 19.8767 26.4358 20.21C26.4358 20.5433 26.5024 20.8367 26.6358 21.09C26.7758 21.3367 26.9558 21.5267 27.1758 21.66C27.4024 21.7933 27.6424 21.86 27.8958 21.86C28.1558 21.86 28.3991 21.7967 28.6258 21.67C28.8524 21.5367 29.0324 21.35 29.1658 21.11C29.2991 20.8633 29.3658 20.57 29.3658 20.23ZM34.2631 23.09C33.8098 23.09 33.4031 23.01 33.0431 22.85C32.6831 22.6833 32.3965 22.46 32.1831 22.18C31.9765 21.9 31.8631 21.59 31.8431 21.25H33.2531C33.2798 21.4633 33.3831 21.64 33.5631 21.78C33.7498 21.92 33.9798 21.99 34.2531 21.99C34.5198 21.99 34.7265 21.9367 34.8731 21.83C35.0265 21.7233 35.1031 21.5867 35.1031 21.42C35.1031 21.24 35.0098 21.1067 34.8231 21.02C34.6431 20.9267 34.3531 20.8267 33.9531 20.72C33.5398 20.62 33.1998 20.5167 32.9331 20.41C32.6731 20.3033 32.4465 20.14 32.2531 19.92C32.0665 19.7 31.9731 19.4033 31.9731 19.03C31.9731 18.7233 32.0598 18.4433 32.2331 18.19C32.4131 17.9367 32.6665 17.7367 32.9931 17.59C33.3265 17.4433 33.7165 17.37 34.1631 17.37C34.8231 17.37 35.3498 17.5367 35.7431 17.87C36.1365 18.1967 36.3531 18.64 36.3931 19.2H35.0531C35.0331 18.98 34.9398 18.8067 34.7731 18.68C34.6131 18.5467 34.3965 18.48 34.1231 18.48C33.8698 18.48 33.6731 18.5267 33.5331 18.62C33.3998 18.7133 33.3331 18.8433 33.3331 19.01C33.3331 19.1967 33.4265 19.34 33.6131 19.44C33.7998 19.5333 34.0898 19.63 34.4831 19.73C34.8831 19.83 35.2131 19.9333 35.4731 20.04C35.7331 20.1467 35.9565 20.3133 36.1431 20.54C36.3365 20.76 36.4365 21.0533 36.4431 21.42C36.4431 21.74 36.3531 22.0267 36.1731 22.28C35.9998 22.5333 35.7465 22.7333 35.4131 22.88C35.0865 23.02 34.7031 23.09 34.2631 23.09ZM40.7123 17.38C41.1323 17.38 41.5057 17.4733 41.8323 17.66C42.159 17.84 42.4123 18.11 42.5923 18.47C42.779 18.8233 42.8723 19.25 42.8723 19.75V23H41.4723V19.94C41.4723 19.5 41.3623 19.1633 41.1423 18.93C40.9223 18.69 40.6223 18.57 40.2423 18.57C39.8557 18.57 39.549 18.69 39.3223 18.93C39.1023 19.1633 38.9923 19.5 38.9923 19.94V23H37.5923V15.6H38.9923V18.15C39.1723 17.91 39.4123 17.7233 39.7123 17.59C40.0123 17.45 40.3457 17.38 40.7123 17.38ZM50.8965 16.02V17.15H47.9865V18.94H50.2165V20.05H47.9865V23H46.5865V16.02H50.8965ZM53.2892 15.6V23H51.8892V15.6H53.2892ZM57.1324 23.09C56.5991 23.09 56.1191 22.9733 55.6924 22.74C55.2658 22.5 54.9291 22.1633 54.6824 21.73C54.4424 21.2967 54.3224 20.7967 54.3224 20.23C54.3224 19.6633 54.4458 19.1633 54.6924 18.73C54.9458 18.2967 55.2891 17.9633 55.7224 17.73C56.1558 17.49 56.6391 17.37 57.1724 17.37C57.7058 17.37 58.1891 17.49 58.6224 17.73C59.0558 17.9633 59.3958 18.2967 59.6424 18.73C59.8958 19.1633 60.0224 19.6633 60.0224 20.23C60.0224 20.7967 59.8924 21.2967 59.6324 21.73C59.3791 22.1633 59.0324 22.5 58.5924 22.74C58.1591 22.9733 57.6724 23.09 57.1324 23.09ZM57.1324 21.87C57.3858 21.87 57.6224 21.81 57.8424 21.69C58.0691 21.5633 58.2491 21.3767 58.3824 21.13C58.5158 20.8833 58.5824 20.5833 58.5824 20.23C58.5824 19.7033 58.4424 19.3 58.1624 19.02C57.8891 18.7333 57.5524 18.59 57.1524 18.59C56.7524 18.59 56.4158 18.7333 56.1424 19.02C55.8758 19.3 55.7424 19.7033 55.7424 20.23C55.7424 20.7567 55.8724 21.1633 56.1324 21.45C56.3991 21.73 56.7324 21.87 57.1324 21.87ZM68.7294 17.46L67.1094 23H65.5994L64.5894 19.13L63.5794 23H62.0594L60.4294 17.46H61.8494L62.8294 21.68L63.8894 17.46H65.3694L66.4094 21.67L67.3894 17.46H68.7294ZM76.1797 16.02V17.15H73.2697V18.94H75.4997V20.05H73.2697V23H71.8697V16.02H76.1797ZM79.6324 23.09C79.0991 23.09 78.6191 22.9733 78.1924 22.74C77.7658 22.5 77.4291 22.1633 77.1824 21.73C76.9424 21.2967 76.8224 20.7967 76.8224 20.23C76.8224 19.6633 76.9458 19.1633 77.1924 18.73C77.4458 18.2967 77.7891 17.9633 78.2224 17.73C78.6558 17.49 79.1391 17.37 79.6724 17.37C80.2058 17.37 80.6891 17.49 81.1224 17.73C81.5558 17.9633 81.8958 18.2967 82.1424 18.73C82.3958 19.1633 82.5224 19.6633 82.5224 20.23C82.5224 20.7967 82.3924 21.2967 82.1324 21.73C81.8791 22.1633 81.5324 22.5 81.0924 22.74C80.6591 22.9733 80.1724 23.09 79.6324 23.09ZM79.6324 21.87C79.8858 21.87 80.1224 21.81 80.3424 21.69C80.5691 21.5633 80.7491 21.3767 80.8824 21.13C81.0158 20.8833 81.0824 20.5833 81.0824 20.23C81.0824 19.7033 80.9424 19.3 80.6624 19.02C80.3891 18.7333 80.0524 18.59 79.6524 18.59C79.2524 18.59 78.9158 18.7333 78.6424 19.02C78.3758 19.3 78.2424 19.7033 78.2424 20.23C78.2424 20.7567 78.3724 21.1633 78.6324 21.45C78.8991 21.73 79.2324 21.87 79.6324 21.87ZM84.9494 18.32C85.1294 18.0267 85.3627 17.7967 85.6494 17.63C85.9427 17.4633 86.276 17.38 86.6494 17.38V18.85H86.2794C85.8394 18.85 85.506 18.9533 85.2794 19.16C85.0594 19.3667 84.9494 19.7267 84.9494 20.24V23H83.5494V17.46H84.9494V18.32ZM92.7423 20.11C92.7423 20.31 92.729 20.49 92.7023 20.65H88.6523C88.6857 21.05 88.8257 21.3633 89.0723 21.59C89.319 21.8167 89.6223 21.93 89.9823 21.93C90.5023 21.93 90.8723 21.7067 91.0923 21.26H92.6023C92.4423 21.7933 92.1357 22.2333 91.6823 22.58C91.229 22.92 90.6723 23.09 90.0123 23.09C89.479 23.09 88.999 22.9733 88.5723 22.74C88.1523 22.5 87.8223 22.1633 87.5823 21.73C87.349 21.2967 87.2323 20.7967 87.2323 20.23C87.2323 19.6567 87.349 19.1533 87.5823 18.72C87.8157 18.2867 88.1423 17.9533 88.5623 17.72C88.9823 17.4867 89.4657 17.37 90.0123 17.37C90.539 17.37 91.009 17.4833 91.4223 17.71C91.8423 17.9367 92.1657 18.26 92.3923 18.68C92.6257 19.0933 92.7423 19.57 92.7423 20.11ZM91.2923 19.71C91.2857 19.35 91.1557 19.0633 90.9023 18.85C90.649 18.63 90.339 18.52 89.9723 18.52C89.6257 18.52 89.3323 18.6267 89.0923 18.84C88.859 19.0467 88.7157 19.3367 88.6623 19.71H91.2923ZM93.4042 20.23C93.4042 19.6567 93.5209 19.1567 93.7542 18.73C93.9876 18.2967 94.3109 17.9633 94.7242 17.73C95.1376 17.49 95.6109 17.37 96.1442 17.37C96.8309 17.37 97.3976 17.5433 97.8442 17.89C98.2976 18.23 98.6009 18.71 98.7542 19.33H97.2442C97.1642 19.09 97.0276 18.9033 96.8342 18.77C96.6476 18.63 96.4142 18.56 96.1342 18.56C95.7342 18.56 95.4176 18.7067 95.1842 19C94.9509 19.2867 94.8342 19.6967 94.8342 20.23C94.8342 20.7567 94.9509 21.1667 95.1842 21.46C95.4176 21.7467 95.7342 21.89 96.1342 21.89C96.7009 21.89 97.0709 21.6367 97.2442 21.13H98.7542C98.6009 21.73 98.2976 22.2067 97.8442 22.56C97.3909 22.9133 96.8242 23.09 96.1442 23.09C95.6109 23.09 95.1376 22.9733 94.7242 22.74C94.3109 22.5 93.9876 22.1667 93.7542 21.74C93.5209 21.3067 93.4042 20.8033 93.4042 20.23ZM99.4198 20.21C99.4198 19.65 99.5298 19.1533 99.7498 18.72C99.9765 18.2867 100.28 17.9533 100.66 17.72C101.047 17.4867 101.477 17.37 101.95 17.37C102.363 17.37 102.723 17.4533 103.03 17.62C103.343 17.7867 103.593 17.9967 103.78 18.25V17.46H105.19V23H103.78V22.19C103.6 22.45 103.35 22.6667 103.03 22.84C102.717 23.0067 102.353 23.09 101.94 23.09C101.473 23.09 101.047 22.97 100.66 22.73C100.28 22.49 99.9765 22.1533 99.7498 21.72C99.5298 21.28 99.4198 20.7767 99.4198 20.21ZM103.78 20.23C103.78 19.89 103.713 19.6 103.58 19.36C103.447 19.1133 103.267 18.9267 103.04 18.8C102.813 18.6667 102.57 18.6 102.31 18.6C102.05 18.6 101.81 18.6633 101.59 18.79C101.37 18.9167 101.19 19.1033 101.05 19.35C100.917 19.59 100.85 19.8767 100.85 20.21C100.85 20.5433 100.917 20.8367 101.05 21.09C101.19 21.3367 101.37 21.5267 101.59 21.66C101.817 21.7933 102.057 21.86 102.31 21.86C102.57 21.86 102.813 21.7967 103.04 21.67C103.267 21.5367 103.447 21.35 103.58 21.11C103.713 20.8633 103.78 20.57 103.78 20.23ZM108.677 23.09C108.224 23.09 107.817 23.01 107.457 22.85C107.097 22.6833 106.811 22.46 106.597 22.18C106.391 21.9 106.277 21.59 106.257 21.25H107.667C107.694 21.4633 107.797 21.64 107.977 21.78C108.164 21.92 108.394 21.99 108.667 21.99C108.934 21.99 109.141 21.9367 109.287 21.83C109.441 21.7233 109.517 21.5867 109.517 21.42C109.517 21.24 109.424 21.1067 109.237 21.02C109.057 20.9267 108.767 20.8267 108.367 20.72C107.954 20.62 107.614 20.5167 107.347 20.41C107.087 20.3033 106.861 20.14 106.667 19.92C106.481 19.7 106.387 19.4033 106.387 19.03C106.387 18.7233 106.474 18.4433 106.647 18.19C106.827 17.9367 107.081 17.7367 107.407 17.59C107.741 17.4433 108.131 17.37 108.577 17.37C109.237 17.37 109.764 17.5367 110.157 17.87C110.551 18.1967 110.767 18.64 110.807 19.2H109.467C109.447 18.98 109.354 18.8067 109.187 18.68C109.027 18.5467 108.811 18.48 108.537 18.48C108.284 18.48 108.087 18.5267 107.947 18.62C107.814 18.7133 107.747 18.8433 107.747 19.01C107.747 19.1967 107.841 19.34 108.027 19.44C108.214 19.5333 108.504 19.63 108.897 19.73C109.297 19.83 109.627 19.9333 109.887 20.04C110.147 20.1467 110.371 20.3133 110.557 20.54C110.751 20.76 110.851 21.0533 110.857 21.42C110.857 21.74 110.767 22.0267 110.587 22.28C110.414 22.5333 110.161 22.7333 109.827 22.88C109.501 23.02 109.117 23.09 108.677 23.09ZM113.636 18.61V21.29C113.636 21.4767 113.68 21.6133 113.766 21.7C113.86 21.78 114.013 21.82 114.226 21.82H114.876V23H113.996C112.816 23 112.226 22.4267 112.226 21.28V18.61H111.566V17.46H112.226V16.09H113.636V17.46H114.876V18.61H113.636Z" fill="#171725"/>
<path d="M228 40C228.276 40 228.5 39.7761 228.5 39.5C228.5 39.2239 228.276 39 228 39V40ZM18 40H228V39H18V40Z" fill="#EDEDED"/>
<path d="M69.5646 203.042C69.5646 203.39 69.4446 203.68 69.2046 203.912C68.9686 204.14 68.6066 204.254 68.1186 204.254H67.3146V206H66.7686V201.818H68.1186C68.5906 201.818 68.9486 201.932 69.1926 202.16C69.4406 202.388 69.5646 202.682 69.5646 203.042ZM68.1186 203.804C68.4226 203.804 68.6466 203.738 68.7906 203.606C68.9346 203.474 69.0066 203.286 69.0066 203.042C69.0066 202.526 68.7106 202.268 68.1186 202.268H67.3146V203.804H68.1186ZM70.7893 203.246C70.8853 203.058 71.0213 202.912 71.1973 202.808C71.3773 202.704 71.5953 202.652 71.8513 202.652V203.216H71.7073C71.0953 203.216 70.7893 203.548 70.7893 204.212V206H70.2433V202.712H70.7893V203.246ZM73.9155 206.054C73.6075 206.054 73.3275 205.984 73.0755 205.844C72.8275 205.704 72.6315 205.506 72.4875 205.25C72.3475 204.99 72.2775 204.69 72.2775 204.35C72.2775 204.014 72.3495 203.718 72.4935 203.462C72.6415 203.202 72.8415 203.004 73.0935 202.868C73.3455 202.728 73.6275 202.658 73.9395 202.658C74.2515 202.658 74.5335 202.728 74.7855 202.868C75.0375 203.004 75.2355 203.2 75.3795 203.456C75.5275 203.712 75.6015 204.01 75.6015 204.35C75.6015 204.69 75.5255 204.99 75.3735 205.25C75.2255 205.506 75.0235 205.704 74.7675 205.844C74.5115 205.984 74.2275 206.054 73.9155 206.054ZM73.9155 205.574C74.1115 205.574 74.2955 205.528 74.4675 205.436C74.6395 205.344 74.7775 205.206 74.8815 205.022C74.9895 204.838 75.0435 204.614 75.0435 204.35C75.0435 204.086 74.9915 203.862 74.8875 203.678C74.7835 203.494 74.6475 203.358 74.4795 203.27C74.3115 203.178 74.1295 203.132 73.9335 203.132C73.7335 203.132 73.5495 203.178 73.3815 203.27C73.2175 203.358 73.0855 203.494 72.9855 203.678C72.8855 203.862 72.8355 204.086 72.8355 204.35C72.8355 204.618 72.8835 204.844 72.9795 205.028C73.0795 205.212 73.2115 205.35 73.3755 205.442C73.5395 205.53 73.7195 205.574 73.9155 205.574ZM76.1154 204.344C76.1154 204.008 76.1834 203.714 76.3194 203.462C76.4554 203.206 76.6414 203.008 76.8774 202.868C77.1174 202.728 77.3854 202.658 77.6814 202.658C77.9374 202.658 78.1754 202.718 78.3954 202.838C78.6154 202.954 78.7834 203.108 78.8994 203.3V201.56H79.4514V206H78.8994V205.382C78.7914 205.578 78.6314 205.74 78.4194 205.868C78.2074 205.992 77.9594 206.054 77.6754 206.054C77.3834 206.054 77.1174 205.982 76.8774 205.838C76.6414 205.694 76.4554 205.492 76.3194 205.232C76.1834 204.972 76.1154 204.676 76.1154 204.344ZM78.8994 204.35C78.8994 204.102 78.8494 203.886 78.7494 203.702C78.6494 203.518 78.5134 203.378 78.3414 203.282C78.1734 203.182 77.9874 203.132 77.7834 203.132C77.5794 203.132 77.3934 203.18 77.2254 203.276C77.0574 203.372 76.9234 203.512 76.8234 203.696C76.7234 203.88 76.6734 204.096 76.6734 204.344C76.6734 204.596 76.7234 204.816 76.8234 205.004C76.9234 205.188 77.0574 205.33 77.2254 205.43C77.3934 205.526 77.5794 205.574 77.7834 205.574C77.9874 205.574 78.1734 205.526 78.3414 205.43C78.5134 205.33 78.6494 205.188 78.7494 205.004C78.8494 204.816 78.8994 204.598 78.8994 204.35ZM83.2901 202.712V206H82.7441V205.514C82.6401 205.682 82.4941 205.814 82.3061 205.91C82.1221 206.002 81.9181 206.048 81.6941 206.048C81.4381 206.048 81.2081 205.996 81.0041 205.892C80.8001 205.784 80.6381 205.624 80.5181 205.412C80.4021 205.2 80.3441 204.942 80.3441 204.638V202.712H80.8841V204.566C80.8841 204.89 80.9661 205.14 81.1301 205.316C81.2941 205.488 81.5181 205.574 81.8021 205.574C82.0941 205.574 82.3241 205.484 82.4921 205.304C82.6601 205.124 82.7441 204.862 82.7441 204.518V202.712H83.2901ZM84.008 204.35C84.008 204.01 84.076 203.714 84.212 203.462C84.348 203.206 84.536 203.008 84.776 202.868C85.02 202.728 85.298 202.658 85.61 202.658C86.014 202.658 86.346 202.756 86.606 202.952C86.87 203.148 87.044 203.42 87.128 203.768H86.54C86.484 203.568 86.374 203.41 86.21 203.294C86.05 203.178 85.85 203.12 85.61 203.12C85.298 203.12 85.046 203.228 84.854 203.444C84.662 203.656 84.566 203.958 84.566 204.35C84.566 204.746 84.662 205.052 84.854 205.268C85.046 205.484 85.298 205.592 85.61 205.592C85.85 205.592 86.05 205.536 86.21 205.424C86.37 205.312 86.48 205.152 86.54 204.944H87.128C87.04 205.28 86.864 205.55 86.6 205.754C86.336 205.954 86.006 206.054 85.61 206.054C85.298 206.054 85.02 205.984 84.776 205.844C84.536 205.704 84.348 205.506 84.212 205.25C84.076 204.994 84.008 204.694 84.008 204.35ZM88.5225 203.162V205.1C88.5225 205.26 88.5565 205.374 88.6245 205.442C88.6925 205.506 88.8105 205.538 88.9785 205.538H89.3805V206H88.8885C88.5845 206 88.3565 205.93 88.2045 205.79C88.0525 205.65 87.9765 205.42 87.9765 205.1V203.162H87.5505V202.712H87.9765V201.884H88.5225V202.712H89.3805V203.162H88.5225ZM91.4077 202.16V201.662H92.5357V206H91.9837V202.16H91.4077Z" fill="black"/>
<rect x="59" y="201" width="5.48" height="6" fill="#F3722C"/>
<path d="M143.545 203.042C143.545 203.39 143.425 203.68 143.185 203.912C142.949 204.14 142.587 204.254 142.099 204.254H141.295V206H140.749V201.818H142.099C142.571 201.818 142.929 201.932 143.173 202.16C143.421 202.388 143.545 202.682 143.545 203.042ZM142.099 203.804C142.403 203.804 142.627 203.738 142.771 203.606C142.915 203.474 142.987 203.286 142.987 203.042C142.987 202.526 142.691 202.268 142.099 202.268H141.295V203.804H142.099ZM144.77 203.246C144.866 203.058 145.002 202.912 145.178 202.808C145.358 202.704 145.576 202.652 145.832 202.652V203.216H145.688C145.076 203.216 144.77 203.548 144.77 204.212V206H144.224V202.712H144.77V203.246ZM147.896 206.054C147.588 206.054 147.308 205.984 147.056 205.844C146.808 205.704 146.612 205.506 146.468 205.25C146.328 204.99 146.258 204.69 146.258 204.35C146.258 204.014 146.33 203.718 146.474 203.462C146.622 203.202 146.822 203.004 147.074 202.868C147.326 202.728 147.608 202.658 147.92 202.658C148.232 202.658 148.514 202.728 148.766 202.868C149.018 203.004 149.216 203.2 149.36 203.456C149.508 203.712 149.582 204.01 149.582 204.35C149.582 204.69 149.506 204.99 149.354 205.25C149.206 205.506 149.004 205.704 148.748 205.844C148.492 205.984 148.208 206.054 147.896 206.054ZM147.896 205.574C148.092 205.574 148.276 205.528 148.448 205.436C148.62 205.344 148.758 205.206 148.862 205.022C148.97 204.838 149.024 204.614 149.024 204.35C149.024 204.086 148.972 203.862 148.868 203.678C148.764 203.494 148.628 203.358 148.46 203.27C148.292 203.178 148.11 203.132 147.914 203.132C147.714 203.132 147.53 203.178 147.362 203.27C147.198 203.358 147.066 203.494 146.966 203.678C146.866 203.862 146.816 204.086 146.816 204.35C146.816 204.618 146.864 204.844 146.96 205.028C147.06 205.212 147.192 205.35 147.356 205.442C147.52 205.53 147.7 205.574 147.896 205.574ZM150.096 204.344C150.096 204.008 150.164 203.714 150.3 203.462C150.436 203.206 150.622 203.008 150.858 202.868C151.098 202.728 151.366 202.658 151.662 202.658C151.918 202.658 152.156 202.718 152.376 202.838C152.596 202.954 152.764 203.108 152.88 203.3V201.56H153.432V206H152.88V205.382C152.772 205.578 152.612 205.74 152.4 205.868C152.188 205.992 151.94 206.054 151.656 206.054C151.364 206.054 151.098 205.982 150.858 205.838C150.622 205.694 150.436 205.492 150.3 205.232C150.164 204.972 150.096 204.676 150.096 204.344ZM152.88 204.35C152.88 204.102 152.83 203.886 152.73 203.702C152.63 203.518 152.494 203.378 152.322 203.282C152.154 203.182 151.968 203.132 151.764 203.132C151.56 203.132 151.374 203.18 151.206 203.276C151.038 203.372 150.904 203.512 150.804 203.696C150.704 203.88 150.654 204.096 150.654 204.344C150.654 204.596 150.704 204.816 150.804 205.004C150.904 205.188 151.038 205.33 151.206 205.43C151.374 205.526 151.56 205.574 151.764 205.574C151.968 205.574 152.154 205.526 152.322 205.43C152.494 205.33 152.63 205.188 152.73 205.004C152.83 204.816 152.88 204.598 152.88 204.35ZM157.271 202.712V206H156.725V205.514C156.621 205.682 156.475 205.814 156.287 205.91C156.103 206.002 155.899 206.048 155.675 206.048C155.419 206.048 155.189 205.996 154.985 205.892C154.781 205.784 154.619 205.624 154.499 205.412C154.383 205.2 154.325 204.942 154.325 204.638V202.712H154.865V204.566C154.865 204.89 154.947 205.14 155.111 205.316C155.275 205.488 155.499 205.574 155.783 205.574C156.075 205.574 156.305 205.484 156.473 205.304C156.641 205.124 156.725 204.862 156.725 204.518V202.712H157.271ZM157.988 204.35C157.988 204.01 158.056 203.714 158.192 203.462C158.328 203.206 158.516 203.008 158.756 202.868C159 202.728 159.278 202.658 159.59 202.658C159.994 202.658 160.326 202.756 160.586 202.952C160.85 203.148 161.024 203.42 161.108 203.768H160.52C160.464 203.568 160.354 203.41 160.19 203.294C160.03 203.178 159.83 203.12 159.59 203.12C159.278 203.12 159.026 203.228 158.834 203.444C158.642 203.656 158.546 203.958 158.546 204.35C158.546 204.746 158.642 205.052 158.834 205.268C159.026 205.484 159.278 205.592 159.59 205.592C159.83 205.592 160.03 205.536 160.19 205.424C160.35 205.312 160.46 205.152 160.52 204.944H161.108C161.02 205.28 160.844 205.55 160.58 205.754C160.316 205.954 159.986 206.054 159.59 206.054C159.278 206.054 159 205.984 158.756 205.844C158.516 205.704 158.328 205.506 158.192 205.25C158.056 204.994 157.988 204.694 157.988 204.35ZM162.503 203.162V205.1C162.503 205.26 162.537 205.374 162.605 205.442C162.673 205.506 162.791 205.538 162.959 205.538H163.361V206H162.869C162.565 206 162.337 205.93 162.185 205.79C162.033 205.65 161.957 205.42 161.957 205.1V203.162H161.531V202.712H161.957V201.884H162.503V202.712H163.361V203.162H162.503ZM165.466 205.562C165.974 205.154 166.372 204.82 166.66 204.56C166.948 204.296 167.19 204.022 167.386 203.738C167.586 203.45 167.686 203.168 167.686 202.892C167.686 202.632 167.622 202.428 167.494 202.28C167.37 202.128 167.168 202.052 166.888 202.052C166.616 202.052 166.404 202.138 166.252 202.31C166.104 202.478 166.024 202.704 166.012 202.988H165.484C165.5 202.54 165.636 202.194 165.892 201.95C166.148 201.706 166.478 201.584 166.882 201.584C167.294 201.584 167.62 201.698 167.86 201.926C168.104 202.154 168.226 202.468 168.226 202.868C168.226 203.2 168.126 203.524 167.926 203.84C167.73 204.152 167.506 204.428 167.254 204.668C167.002 204.904 166.68 205.18 166.288 205.496H168.352V205.952H165.466V205.562Z" fill="black"/>
<rect x="132.98" y="201" width="5.48" height="6" fill="#F94144"/>
<rect x="43.1426" y="68.4998" width="166.157" height="104.792" stroke="#BDBDBD" stroke-dasharray="1 1"/>
<path d="M42.6426 89.73H209.799" stroke="#BDBDBD" stroke-dasharray="2 2"/>
<path d="M42.6426 110.888H209.799" stroke="#BDBDBD" stroke-dasharray="2 2"/>
<path d="M42.6426 132.047H209.799" stroke="#BDBDBD" stroke-dasharray="2 2"/>
<path d="M42.6426 153.205H209.799" stroke="#BDBDBD" stroke-dasharray="2 2"/>
<path d="M84.8604 67.9998L84.8603 173.792" stroke="#BDBDBD" stroke-dasharray="2 2"/>
<path d="M125.936 67.9998L125.936 173.792" stroke="#BDBDBD" stroke-dasharray="2 2"/>
<path d="M168.153 67.9998L168.153 173.792" stroke="#BDBDBD" stroke-dasharray="2 2"/>
<path d="M43.2312 176.475H43.6516L44.6403 178.89H44.6744L45.663 176.475H46.0835V179.385H45.7539V177.174H45.7255L44.8164 179.385H44.4982L43.5891 177.174H43.5607V179.385H43.2312V176.475ZM47.6307 179.43C47.4337 179.43 47.2609 179.383 47.1122 179.289C46.9645 179.196 46.849 179.064 46.7656 178.896C46.6832 178.727 46.642 178.53 46.642 178.305C46.642 178.078 46.6832 177.879 46.7656 177.71C46.849 177.54 46.9645 177.409 47.1122 177.315C47.2609 177.221 47.4337 177.174 47.6307 177.174C47.8277 177.174 48 177.221 48.1477 177.315C48.2964 177.409 48.4119 177.54 48.4943 177.71C48.5777 177.879 48.6193 178.078 48.6193 178.305C48.6193 178.53 48.5777 178.727 48.4943 178.896C48.4119 179.064 48.2964 179.196 48.1477 179.289C48 179.383 47.8277 179.43 47.6307 179.43ZM47.6307 179.129C47.7803 179.129 47.9034 179.09 48 179.014C48.0966 178.937 48.1681 178.836 48.2145 178.711C48.2609 178.586 48.2841 178.451 48.2841 178.305C48.2841 178.159 48.2609 178.023 48.2145 177.897C48.1681 177.771 48.0966 177.67 48 177.592C47.9034 177.514 47.7803 177.475 47.6307 177.475C47.4811 177.475 47.358 177.514 47.2614 177.592C47.1648 177.67 47.0933 177.771 47.0469 177.897C47.0005 178.023 46.9773 178.159 46.9773 178.305C46.9773 178.451 47.0005 178.586 47.0469 178.711C47.0933 178.836 47.1648 178.937 47.2614 179.014C47.358 179.09 47.4811 179.129 47.6307 179.129ZM49.4663 178.072V179.385H49.131V177.203H49.4549V177.544H49.4833C49.5344 177.433 49.6121 177.344 49.7163 177.277C49.8204 177.208 49.9549 177.174 50.1197 177.174C50.2674 177.174 50.3967 177.205 50.5075 177.265C50.6183 177.325 50.7044 177.416 50.766 177.538C50.8275 177.659 50.8583 177.813 50.8583 177.998V179.385H50.5231V178.021C50.5231 177.849 50.4786 177.716 50.3896 177.62C50.3005 177.524 50.1784 177.475 50.0231 177.475C49.9161 177.475 49.8204 177.499 49.7362 177.545C49.6528 177.591 49.587 177.659 49.5387 177.748C49.4904 177.837 49.4663 177.945 49.4663 178.072ZM52.2947 179.43C52.1129 179.43 51.9524 179.384 51.8132 179.292C51.674 179.199 51.5651 179.069 51.4865 178.9C51.4079 178.731 51.3686 178.53 51.3686 178.299C51.3686 178.07 51.4079 177.871 51.4865 177.703C51.5651 177.534 51.6745 177.404 51.8146 177.312C51.9548 177.22 52.1167 177.174 52.3004 177.174C52.4425 177.174 52.5547 177.198 52.6371 177.245C52.7204 177.292 52.7839 177.345 52.8274 177.404C52.8719 177.463 52.9065 177.511 52.9311 177.549H52.9595V176.475H53.2947V179.385H52.9709V179.049H52.9311C52.9065 179.089 52.8714 179.139 52.826 179.2C52.7805 179.26 52.7157 179.313 52.6314 179.36C52.5471 179.407 52.4349 179.43 52.2947 179.43ZM52.3402 179.129C52.4747 179.129 52.5883 179.094 52.6811 179.024C52.7739 178.953 52.8445 178.855 52.8928 178.73C52.9411 178.604 52.9652 178.458 52.9652 178.294C52.9652 178.131 52.9415 177.988 52.8942 177.866C52.8468 177.743 52.7768 177.647 52.6839 177.579C52.5911 177.51 52.4766 177.475 52.3402 177.475C52.1982 177.475 52.0798 177.512 51.9851 177.585C51.8913 177.657 51.8208 177.755 51.7734 177.879C51.727 178.002 51.7038 178.14 51.7038 178.294C51.7038 178.449 51.7275 178.59 51.7749 178.717C51.8232 178.843 51.8942 178.943 51.9879 179.018C52.0826 179.092 52.2 179.129 52.3402 179.129ZM54.5973 179.436C54.459 179.436 54.3336 179.41 54.2209 179.358C54.1082 179.305 54.0187 179.228 53.9524 179.129C53.8861 179.028 53.853 178.907 53.853 178.765C53.853 178.64 53.8776 178.539 53.9268 178.461C53.9761 178.383 54.0419 178.321 54.1243 178.277C54.2067 178.232 54.2976 178.199 54.397 178.177C54.4974 178.154 54.5982 178.136 54.6996 178.123C54.8321 178.106 54.9396 178.093 55.022 178.085C55.1054 178.075 55.166 178.06 55.2038 178.038C55.2427 178.016 55.2621 177.978 55.2621 177.924V177.913C55.2621 177.773 55.2237 177.664 55.147 177.586C55.0713 177.509 54.9562 177.47 54.8018 177.47C54.6418 177.47 54.5163 177.505 54.4254 177.575C54.3345 177.645 54.2706 177.72 54.2337 177.799L53.9155 177.686C53.9723 177.553 54.0481 177.45 54.1428 177.376C54.2384 177.301 54.3426 177.249 54.4553 177.22C54.5689 177.189 54.6806 177.174 54.7905 177.174C54.8606 177.174 54.9411 177.183 55.032 177.2C55.1238 177.216 55.2124 177.25 55.2976 177.301C55.3838 177.352 55.4553 177.429 55.5121 177.532C55.5689 177.635 55.5973 177.774 55.5973 177.947V179.385H55.2621V179.089H55.245C55.2223 179.136 55.1844 179.187 55.1314 179.241C55.0784 179.295 55.0078 179.341 54.9197 179.379C54.8317 179.417 54.7242 179.436 54.5973 179.436ZM54.6484 179.135C54.781 179.135 54.8928 179.108 54.9837 179.056C55.0755 179.004 55.1446 178.937 55.1911 178.855C55.2384 178.772 55.2621 178.686 55.2621 178.595V178.288C55.2479 178.305 55.2166 178.321 55.1683 178.335C55.121 178.348 55.0661 178.36 55.0036 178.37C54.942 178.38 54.8819 178.388 54.8232 178.396C54.7654 178.403 54.7185 178.408 54.6825 178.413C54.5954 178.424 54.514 178.443 54.4382 178.468C54.3634 178.493 54.3028 178.53 54.2564 178.581C54.2109 178.63 54.1882 178.697 54.1882 178.782C54.1882 178.899 54.2313 178.987 54.3175 179.046C54.4046 179.105 54.5149 179.135 54.6484 179.135ZM56.3469 180.203C56.2901 180.203 56.2395 180.198 56.195 180.188C56.1504 180.18 56.1197 180.171 56.1026 180.163L56.1879 179.867C56.2693 179.888 56.3413 179.896 56.4038 179.89C56.4663 179.885 56.5217 179.857 56.57 179.806C56.6192 179.757 56.6642 179.677 56.7049 179.566L56.7674 179.396L55.9606 177.203H56.3242L56.9265 178.941H56.9492L57.5515 177.203H57.9151L56.989 179.703C56.9473 179.815 56.8957 179.909 56.8342 179.983C56.7726 180.057 56.7011 180.113 56.6197 180.149C56.5392 180.185 56.4483 180.203 56.3469 180.203Z" fill="#4F4F4F"/>
<path d="M36.5866 174.818C36.2656 174.818 35.9921 174.731 35.7663 174.556C35.5404 174.38 35.3678 174.125 35.2485 173.791C35.1292 173.456 35.0695 173.051 35.0695 172.576C35.0695 172.105 35.1292 171.702 35.2485 171.368C35.3693 171.033 35.5426 170.777 35.7684 170.601C35.9957 170.424 36.2684 170.335 36.5866 170.335C36.9048 170.335 37.1768 170.424 37.4026 170.601C37.6299 170.777 37.8032 171.033 37.9225 171.368C38.0433 171.702 38.1036 172.105 38.1036 172.576C38.1036 173.051 38.044 173.456 37.9247 173.791C37.8053 174.125 37.6328 174.38 37.4069 174.556C37.1811 174.731 36.9076 174.818 36.5866 174.818ZM36.5866 174.349C36.9048 174.349 37.1519 174.196 37.3281 173.889C37.5042 173.582 37.5923 173.145 37.5923 172.576C37.5923 172.199 37.5518 171.877 37.4708 171.611C37.3913 171.346 37.2762 171.143 37.1257 171.004C36.9765 170.865 36.7968 170.795 36.5866 170.795C36.2713 170.795 36.0248 170.951 35.8472 171.262C35.6697 171.572 35.5809 172.01 35.5809 172.576C35.5809 172.954 35.6207 173.275 35.7002 173.54C35.7798 173.804 35.8941 174.005 36.0433 174.143C36.1938 174.28 36.3749 174.349 36.5866 174.349Z" fill="#4F4F4F"/>
<path d="M30.0656 152.67V152.287L31.5059 150.71C31.675 150.526 31.8142 150.365 31.9235 150.229C32.0329 150.091 32.1139 149.962 32.1664 149.841C32.2204 149.719 32.2474 149.591 32.2474 149.457C32.2474 149.304 32.2105 149.171 32.1366 149.059C32.0642 148.947 31.9647 148.86 31.8383 148.799C31.7119 148.738 31.5698 148.707 31.4122 148.707C31.2446 148.707 31.0983 148.742 30.9733 148.812C30.8497 148.88 30.7538 148.976 30.6856 149.099C30.6189 149.223 30.5855 149.368 30.5855 149.534H30.0826C30.0826 149.278 30.1416 149.054 30.2595 148.861C30.3774 148.668 30.5379 148.517 30.741 148.409C30.9456 148.301 31.175 148.247 31.4292 148.247C31.6849 148.247 31.9115 148.301 32.1089 148.409C32.3064 148.517 32.4612 148.663 32.5734 148.846C32.6856 149.029 32.7417 149.233 32.7417 149.457C32.7417 149.618 32.7126 149.775 32.6544 149.928C32.5975 150.08 32.4981 150.25 32.3561 150.437C32.2154 150.624 32.0201 150.851 31.7701 151.119L30.79 152.168V152.202H32.8184V152.67H30.0656ZM34.0734 152.705C33.9683 152.705 33.8781 152.667 33.8028 152.592C33.7275 152.516 33.6899 152.426 33.6899 152.321C33.6899 152.216 33.7275 152.126 33.8028 152.05C33.8781 151.975 33.9683 151.937 34.0734 151.937C34.1785 151.937 34.2687 151.975 34.344 152.05C34.4193 152.126 34.4569 152.216 34.4569 152.321C34.4569 152.391 34.4392 152.455 34.4037 152.513C34.3696 152.571 34.3234 152.618 34.2652 152.653C34.2083 152.687 34.1444 152.705 34.0734 152.705ZM36.6265 152.73C36.3765 152.73 36.1513 152.68 35.9511 152.581C35.7508 152.481 35.5903 152.345 35.4695 152.172C35.3488 151.999 35.2827 151.801 35.2714 151.58H35.7827C35.8026 151.777 35.8921 151.94 36.0512 152.07C36.2117 152.197 36.4035 152.261 36.6265 152.261C36.8055 152.261 36.9646 152.219 37.1038 152.136C37.2444 152.052 37.3545 151.937 37.434 151.79C37.515 151.643 37.5555 151.476 37.5555 151.29C37.5555 151.099 37.5136 150.93 37.4298 150.78C37.3474 150.63 37.2337 150.511 37.0888 150.425C36.944 150.338 36.7785 150.294 36.5924 150.293C36.4589 150.291 36.3218 150.312 36.1812 150.354C36.0406 150.396 35.9248 150.449 35.8339 150.514L35.3396 150.455L35.6038 148.307H37.8708V148.776H36.0469L35.8935 150.062H35.9191C36.0086 149.991 36.1208 149.932 36.2557 149.886C36.3907 149.839 36.5313 149.815 36.6776 149.815C36.9447 149.815 37.1826 149.879 37.3914 150.007C37.6016 150.133 37.7664 150.307 37.8857 150.527C38.0065 150.747 38.0668 150.999 38.0668 151.281C38.0668 151.56 38.0043 151.808 37.8793 152.027C37.7557 152.244 37.5853 152.416 37.368 152.543C37.1506 152.668 36.9035 152.73 36.6265 152.73Z" fill="#4F4F4F"/>
<path d="M30.421 110.703L32.3727 106.843V106.808H30.1227V106.34H32.9181V106.834L30.9749 110.703H30.421ZM33.3373 110.737C33.2322 110.737 33.142 110.7 33.0667 110.625C32.9914 110.549 32.9538 110.459 32.9538 110.354C32.9538 110.249 32.9914 110.159 33.0667 110.083C33.142 110.008 33.2322 109.97 33.3373 109.97C33.4424 109.97 33.5326 110.008 33.6079 110.083C33.6832 110.159 33.7209 110.249 33.7209 110.354C33.7209 110.424 33.7031 110.487 33.6676 110.546C33.6335 110.604 33.5873 110.651 33.5291 110.686C33.4723 110.72 33.4084 110.737 33.3373 110.737ZM35.8904 110.763C35.6404 110.763 35.4153 110.713 35.215 110.614C35.0147 110.514 34.8542 110.378 34.7335 110.205C34.6127 110.031 34.5467 109.834 34.5353 109.612H35.0467C35.0666 109.81 35.156 109.973 35.3151 110.103C35.4756 110.23 35.6674 110.294 35.8904 110.294C36.0694 110.294 36.2285 110.252 36.3677 110.169C36.5083 110.085 36.6184 109.97 36.6979 109.823C36.7789 109.676 36.8194 109.509 36.8194 109.323C36.8194 109.132 36.7775 108.963 36.6937 108.813C36.6113 108.663 36.4977 108.544 36.3528 108.458C36.2079 108.371 36.0424 108.327 35.8563 108.326C35.7228 108.324 35.5857 108.345 35.4451 108.387C35.3045 108.429 35.1887 108.482 35.0978 108.547L34.6035 108.487L34.8677 106.34H37.1347V106.808H35.3109L35.1575 108.095H35.183C35.2725 108.024 35.3847 107.965 35.5197 107.919C35.6546 107.872 35.7952 107.848 35.9416 107.848C36.2086 107.848 36.4465 107.912 36.6553 108.04C36.8656 108.166 37.0303 108.34 37.1497 108.56C37.2704 108.78 37.3308 109.031 37.3308 109.314C37.3308 109.593 37.2683 109.841 37.1433 110.06C37.0197 110.277 36.8492 110.449 36.6319 110.576C36.4146 110.701 36.1674 110.763 35.8904 110.763Z" fill="#4F4F4F"/>
<path d="M33.1723 84.9879V89.3516H32.6439V85.5419H32.6184L31.553 86.2493V85.7124L32.6439 84.9879H33.1723ZM35.8506 89.4112C35.5296 89.4112 35.2561 89.3239 35.0303 89.1491C34.8044 88.973 34.6318 88.718 34.5125 88.3842C34.3932 88.049 34.3336 87.6442 34.3336 87.1697C34.3336 86.6982 34.3932 86.2955 34.5125 85.9616C34.6333 85.6264 34.8066 85.3707 35.0324 85.1946C35.2597 85.017 35.5324 84.9283 35.8506 84.9283C36.1688 84.9283 36.4408 85.017 36.6666 85.1946C36.8939 85.3707 37.0672 85.6264 37.1865 85.9616C37.3073 86.2955 37.3676 86.6982 37.3676 87.1697C37.3676 87.6442 37.308 88.049 37.1887 88.3842C37.0693 88.718 36.8968 88.973 36.6709 89.1491C36.4451 89.3239 36.1716 89.4112 35.8506 89.4112ZM35.8506 88.9425C36.1688 88.9425 36.4159 88.7891 36.5921 88.4822C36.7682 88.1754 36.8563 87.7379 36.8563 87.1697C36.8563 86.7919 36.8158 86.4702 36.7348 86.2045C36.6553 85.9389 36.5402 85.7365 36.3897 85.5973C36.2405 85.4581 36.0608 85.3885 35.8506 85.3885C35.5353 85.3885 35.2888 85.544 35.1112 85.8551C34.9337 86.1648 34.8449 86.603 34.8449 87.1697C34.8449 87.5476 34.8847 87.8686 34.9642 88.1328C35.0438 88.397 35.1581 88.598 35.3073 88.7358C35.4578 88.8736 35.6389 88.9425 35.8506 88.9425Z" fill="#4F4F4F"/>
<path d="M28.8109 63.6364V68H28.2825V64.1903H28.257L27.1916 64.8977V64.3608L28.2825 63.6364H28.8109ZM30.0659 68V67.6165L31.5062 66.0398C31.6753 65.8551 31.8145 65.6946 31.9239 65.5582C32.0332 65.4205 32.1142 65.2912 32.1668 65.1705C32.2207 65.0483 32.2477 64.9205 32.2477 64.7869C32.2477 64.6335 32.2108 64.5007 32.1369 64.3885C32.0645 64.2763 31.9651 64.1896 31.8386 64.1286C31.7122 64.0675 31.5702 64.0369 31.4125 64.0369C31.2449 64.0369 31.0986 64.0717 30.9736 64.1413C30.85 64.2095 30.7541 64.3054 30.6859 64.429C30.6192 64.5526 30.5858 64.6974 30.5858 64.8636H30.083C30.083 64.608 30.1419 64.3835 30.2598 64.1903C30.3777 63.9972 30.5382 63.8466 30.7413 63.7386C30.9459 63.6307 31.1753 63.5767 31.4295 63.5767C31.6852 63.5767 31.9118 63.6307 32.1092 63.7386C32.3067 63.8466 32.4615 63.9922 32.5737 64.1754C32.6859 64.3587 32.742 64.5625 32.742 64.7869C32.742 64.9474 32.7129 65.1044 32.6547 65.2578C32.5979 65.4098 32.4984 65.5795 32.3564 65.767C32.2158 65.9531 32.0205 66.1804 31.7705 66.4489L30.7903 67.4972V67.5312H32.8188V68H30.0659ZM34.0737 68.0341C33.9686 68.0341 33.8784 67.9964 33.8031 67.9212C33.7278 67.8459 33.6902 67.7557 33.6902 67.6506C33.6902 67.5455 33.7278 67.4553 33.8031 67.38C33.8784 67.3047 33.9686 67.267 34.0737 67.267C34.1788 67.267 34.269 67.3047 34.3443 67.38C34.4196 67.4553 34.4572 67.5455 34.4572 67.6506C34.4572 67.7202 34.4395 67.7841 34.404 67.8423C34.3699 67.9006 34.3237 67.9474 34.2655 67.983C34.2087 68.017 34.1447 68.0341 34.0737 68.0341ZM36.6268 68.0597C36.3768 68.0597 36.1517 68.0099 35.9514 67.9105C35.7511 67.8111 35.5906 67.6747 35.4699 67.5014C35.3491 67.3281 35.2831 67.1307 35.2717 66.9091H35.7831C35.8029 67.1065 35.8924 67.2699 36.0515 67.3991C36.212 67.527 36.4038 67.5909 36.6268 67.5909C36.8058 67.5909 36.9649 67.549 37.1041 67.4652C37.2447 67.3814 37.3548 67.2663 37.4343 67.12C37.5153 66.9723 37.5558 66.8054 37.5558 66.6193C37.5558 66.429 37.5139 66.2592 37.4301 66.1101C37.3477 65.9595 37.2341 65.8409 37.0892 65.7543C36.9443 65.6676 36.7788 65.6236 36.5927 65.6222C36.4592 65.6207 36.3221 65.6413 36.1815 65.6839C36.0409 65.7251 35.9251 65.7784 35.8342 65.8438L35.3399 65.7841L35.6041 63.6364H37.8711V64.1051H36.0473L35.8939 65.392H35.9194C36.0089 65.321 36.1211 65.2621 36.2561 65.2152C36.391 65.1683 36.5316 65.1449 36.6779 65.1449C36.945 65.1449 37.1829 65.2088 37.3917 65.3366C37.602 65.4631 37.7667 65.6364 37.886 65.8565C38.0068 66.0767 38.0672 66.3281 38.0672 66.6108C38.0672 66.8892 38.0047 67.1378 37.8797 67.3565C37.7561 67.5739 37.5856 67.7457 37.3683 67.8722C37.151 67.9972 36.9038 68.0597 36.6268 68.0597Z" fill="#4F4F4F"/>
<path d="M35.8899 131.378C35.6399 131.378 35.4148 131.329 35.2145 131.229C35.0142 131.13 34.8537 130.993 34.7329 130.82C34.6122 130.647 34.5461 130.449 34.5348 130.228H35.0461C35.066 130.425 35.1555 130.588 35.3146 130.718C35.4751 130.846 35.6669 130.91 35.8899 130.91C36.0689 130.91 36.228 130.868 36.3672 130.784C36.5078 130.7 36.6179 130.585 36.6974 130.439C36.7784 130.291 36.8189 130.124 36.8189 129.938C36.8189 129.748 36.777 129.578 36.6932 129.429C36.6108 129.278 36.4971 129.16 36.3523 129.073C36.2074 128.986 36.0419 128.942 35.8558 128.941C35.7223 128.939 35.5852 128.96 35.4446 129.003C35.304 129.044 35.1882 129.097 35.0973 129.162L34.603 129.103L34.8672 126.955H37.1342V127.424H35.3103L35.1569 128.711H35.1825C35.272 128.64 35.3842 128.581 35.5192 128.534C35.6541 128.487 35.7947 128.463 35.941 128.463C36.2081 128.463 36.446 128.527 36.6548 128.655C36.865 128.782 37.0298 128.955 37.1491 129.175C37.2699 129.395 37.3302 129.647 37.3302 129.929C37.3302 130.208 37.2677 130.456 37.1427 130.675C37.0192 130.892 36.8487 131.064 36.6314 131.191C36.414 131.316 36.1669 131.378 35.8899 131.378Z" fill="#4F4F4F"/>
<path d="M85.0389 176.788V176.475H87.2207V176.788H86.3059V179.385H85.9537V176.788H85.0389ZM88.7971 178.492V177.203H89.1323V179.385H88.7971V179.015H88.7743C88.7232 179.126 88.6436 179.22 88.5357 179.298C88.4277 179.375 88.2914 179.413 88.1266 179.413C87.9902 179.413 87.869 179.383 87.763 179.323C87.6569 179.263 87.5736 179.172 87.513 179.051C87.4524 178.929 87.4221 178.775 87.4221 178.589V177.203H87.7573V178.566C87.7573 178.725 87.8018 178.852 87.8908 178.947C87.9808 179.042 88.0953 179.089 88.2346 179.089C88.3179 179.089 88.4026 179.068 88.4888 179.025C88.5759 178.983 88.6489 178.917 88.7076 178.829C88.7672 178.741 88.7971 178.629 88.7971 178.492ZM90.661 179.43C90.4508 179.43 90.2695 179.384 90.117 179.291C89.9655 179.197 89.8485 179.066 89.7662 178.899C89.6847 178.73 89.644 178.534 89.644 178.311C89.644 178.087 89.6847 177.89 89.7662 177.72C89.8485 177.548 89.9631 177.415 90.1099 177.319C90.2576 177.223 90.43 177.174 90.627 177.174C90.7406 177.174 90.8528 177.193 90.9636 177.231C91.0744 177.269 91.1752 177.331 91.2662 177.416C91.3571 177.5 91.4295 177.612 91.4835 177.751C91.5375 177.89 91.5645 178.062 91.5645 178.265V178.407H89.8826V178.117H91.2235C91.2235 177.994 91.1989 177.885 91.1497 177.788C91.1014 177.691 91.0323 177.615 90.9423 177.559C90.8533 177.503 90.7482 177.475 90.627 177.475C90.4934 177.475 90.3779 177.509 90.2804 177.575C90.1838 177.64 90.1094 177.725 90.0574 177.831C90.0053 177.936 89.9792 178.048 89.9792 178.169V178.362C89.9792 178.527 90.0076 178.666 90.0645 178.781C90.1222 178.894 90.2022 178.981 90.3045 179.041C90.4068 179.099 90.5256 179.129 90.661 179.129C90.7491 179.129 90.8287 179.117 90.8997 179.092C90.9717 179.066 91.0337 179.028 91.0858 178.978C91.1378 178.927 91.1781 178.864 91.2065 178.788L91.5304 178.879C91.4963 178.989 91.439 179.085 91.3585 179.169C91.278 179.251 91.1786 179.315 91.0602 179.362C90.9418 179.407 90.8088 179.43 90.661 179.43ZM93.6199 177.691L93.3187 177.777C93.2998 177.726 93.2718 177.678 93.2349 177.63C93.1989 177.582 93.1497 177.542 93.0872 177.511C93.0247 177.48 92.9447 177.464 92.8471 177.464C92.7136 177.464 92.6023 177.495 92.5133 177.556C92.4252 177.617 92.3812 177.694 92.3812 177.788C92.3812 177.871 92.4115 177.937 92.4721 177.985C92.5327 178.034 92.6274 178.074 92.7562 178.106L93.0801 178.186C93.2752 178.233 93.4205 178.305 93.5162 178.403C93.6118 178.5 93.6596 178.624 93.6596 178.777C93.6596 178.902 93.6236 179.013 93.5517 179.112C93.4806 179.21 93.3812 179.288 93.2534 179.345C93.1255 179.402 92.9769 179.43 92.8074 179.43C92.5848 179.43 92.4006 179.382 92.2548 179.285C92.109 179.188 92.0166 179.047 91.9778 178.862L92.296 178.782C92.3263 178.9 92.3836 178.988 92.4679 179.046C92.5531 179.105 92.6644 179.135 92.8017 179.135C92.9579 179.135 93.082 179.101 93.1738 179.035C93.2666 178.968 93.313 178.887 93.313 178.794C93.313 178.718 93.2865 178.654 93.2335 178.603C93.1805 178.551 93.099 178.512 92.9892 178.487L92.6255 178.402C92.4257 178.354 92.2789 178.281 92.1852 178.181C92.0924 178.081 92.046 177.956 92.046 177.805C92.046 177.682 92.0806 177.573 92.1497 177.478C92.2198 177.384 92.3149 177.309 92.4352 177.255C92.5564 177.201 92.6937 177.174 92.8471 177.174C93.063 177.174 93.2325 177.222 93.3556 177.316C93.4797 177.411 93.5678 177.536 93.6199 177.691ZM94.9881 179.43C94.8063 179.43 94.6458 179.384 94.5066 179.292C94.3674 179.199 94.2585 179.069 94.1799 178.9C94.1013 178.731 94.062 178.53 94.062 178.299C94.062 178.07 94.1013 177.871 94.1799 177.703C94.2585 177.534 94.3678 177.404 94.508 177.312C94.6481 177.22 94.8101 177.174 94.9938 177.174C95.1358 177.174 95.248 177.198 95.3304 177.245C95.4138 177.292 95.4772 177.345 95.5208 177.404C95.5653 177.463 95.5998 177.511 95.6245 177.549H95.6529V176.475H95.9881V179.385H95.6642V179.049H95.6245C95.5998 179.089 95.5648 179.139 95.5194 179.2C95.4739 179.26 95.409 179.313 95.3248 179.36C95.2405 179.407 95.1283 179.43 94.9881 179.43ZM95.0336 179.129C95.168 179.129 95.2817 179.094 95.3745 179.024C95.4673 178.953 95.5378 178.855 95.5861 178.73C95.6344 178.604 95.6586 178.458 95.6586 178.294C95.6586 178.131 95.6349 177.988 95.5875 177.866C95.5402 177.743 95.4701 177.647 95.3773 177.579C95.2845 177.51 95.1699 177.475 95.0336 177.475C94.8915 177.475 94.7731 177.512 94.6784 177.585C94.5847 177.657 94.5141 177.755 94.4668 177.879C94.4204 178.002 94.3972 178.14 94.3972 178.294C94.3972 178.449 94.4209 178.59 94.4682 178.717C94.5165 178.843 94.5875 178.943 94.6813 179.018C94.776 179.092 94.8934 179.129 95.0336 179.129ZM97.2907 179.436C97.1524 179.436 97.0269 179.41 96.9142 179.358C96.8016 179.305 96.7121 179.228 96.6458 179.129C96.5795 179.028 96.5463 178.907 96.5463 178.765C96.5463 178.64 96.571 178.539 96.6202 178.461C96.6694 178.383 96.7353 178.321 96.8176 178.277C96.9 178.232 96.9909 178.199 97.0904 178.177C97.1908 178.154 97.2916 178.136 97.3929 178.123C97.5255 178.106 97.633 178.093 97.7154 178.085C97.7987 178.075 97.8593 178.06 97.8972 178.038C97.936 178.016 97.9554 177.978 97.9554 177.924V177.913C97.9554 177.773 97.9171 177.664 97.8404 177.586C97.7646 177.509 97.6496 177.47 97.4952 177.47C97.3352 177.47 97.2097 177.505 97.1188 177.575C97.0279 177.645 96.964 177.72 96.927 177.799L96.6088 177.686C96.6657 177.553 96.7414 177.45 96.8361 177.376C96.9318 177.301 97.0359 177.249 97.1486 177.22C97.2623 177.189 97.374 177.174 97.4838 177.174C97.5539 177.174 97.6344 177.183 97.7253 177.2C97.8172 177.216 97.9057 177.25 97.9909 177.301C98.0771 177.352 98.1486 177.429 98.2054 177.532C98.2623 177.635 98.2907 177.774 98.2907 177.947V179.385H97.9554V179.089H97.9384C97.9157 179.136 97.8778 179.187 97.8248 179.241C97.7717 179.295 97.7012 179.341 97.6131 179.379C97.525 179.417 97.4176 179.436 97.2907 179.436ZM97.3418 179.135C97.4744 179.135 97.5861 179.108 97.677 179.056C97.7689 179.004 97.838 178.937 97.8844 178.855C97.9318 178.772 97.9554 178.686 97.9554 178.595V178.288C97.9412 178.305 97.91 178.321 97.8617 178.335C97.8143 178.348 97.7594 178.36 97.6969 178.37C97.6354 178.38 97.5752 178.388 97.5165 178.396C97.4587 178.403 97.4119 178.408 97.3759 178.413C97.2888 178.424 97.2073 178.443 97.1316 178.468C97.0568 178.493 96.9962 178.53 96.9498 178.581C96.9043 178.63 96.8816 178.697 96.8816 178.782C96.8816 178.899 96.9247 178.987 97.0108 179.046C97.098 179.105 97.2083 179.135 97.3418 179.135ZM99.0403 180.203C98.9835 180.203 98.9328 180.198 98.8883 180.188C98.8438 180.18 98.813 180.171 98.796 180.163L98.8812 179.867C98.9627 179.888 99.0346 179.896 99.0971 179.89C99.1596 179.885 99.215 179.857 99.2633 179.806C99.3126 179.757 99.3575 179.677 99.3983 179.566L99.4608 179.396L98.6539 177.203H99.0176L99.6199 178.941H99.6426L100.245 177.203H100.608L99.6824 179.703C99.6407 179.815 99.5891 179.909 99.5275 179.983C99.466 180.057 99.3945 180.113 99.313 180.149C99.2325 180.185 99.1416 180.203 99.0403 180.203Z" fill="#4F4F4F"/>
<path d="M126.958 179.385L126.162 176.475H126.52L127.128 178.845H127.157L127.776 176.475H128.174L128.793 178.845H128.821L129.429 176.475H129.787L128.992 179.385H128.628L127.986 177.066H127.964L127.321 179.385H126.958ZM130.892 179.43C130.682 179.43 130.501 179.384 130.348 179.291C130.197 179.197 130.08 179.066 129.998 178.899C129.916 178.73 129.875 178.534 129.875 178.311C129.875 178.087 129.916 177.89 129.998 177.72C130.08 177.548 130.195 177.415 130.341 177.319C130.489 177.223 130.661 177.174 130.858 177.174C130.972 177.174 131.084 177.193 131.195 177.231C131.306 177.269 131.407 177.331 131.498 177.416C131.589 177.5 131.661 177.612 131.715 177.751C131.769 177.89 131.796 178.062 131.796 178.265V178.407H130.114V178.117H131.455C131.455 177.994 131.43 177.885 131.381 177.788C131.333 177.691 131.264 177.615 131.174 177.559C131.085 177.503 130.98 177.475 130.858 177.475C130.725 177.475 130.609 177.509 130.512 177.575C130.415 177.64 130.341 177.725 130.289 177.831C130.237 177.936 130.211 178.048 130.211 178.169V178.362C130.211 178.527 130.239 178.666 130.296 178.781C130.354 178.894 130.434 178.981 130.536 179.041C130.638 179.099 130.757 179.129 130.892 179.129C130.981 179.129 131.06 179.117 131.131 179.092C131.203 179.066 131.265 179.028 131.317 178.978C131.369 178.927 131.41 178.864 131.438 178.788L131.762 178.879C131.728 178.989 131.67 179.085 131.59 179.169C131.509 179.251 131.41 179.315 131.292 179.362C131.173 179.407 131.04 179.43 130.892 179.43ZM133.13 179.43C132.948 179.43 132.787 179.384 132.648 179.292C132.509 179.199 132.4 179.069 132.321 178.9C132.243 178.731 132.204 178.53 132.204 178.299C132.204 178.07 132.243 177.871 132.321 177.703C132.4 177.534 132.509 177.404 132.65 177.312C132.79 177.22 132.952 177.174 133.135 177.174C133.277 177.174 133.39 177.198 133.472 177.245C133.555 177.292 133.619 177.345 133.662 177.404C133.707 177.463 133.741 177.511 133.766 177.549H133.794V176.475H134.13V179.385H133.806V179.049H133.766C133.741 179.089 133.706 179.139 133.661 179.2C133.616 179.26 133.551 179.313 133.466 179.36C133.382 179.407 133.27 179.43 133.13 179.43ZM133.175 179.129C133.31 179.129 133.423 179.094 133.516 179.024C133.609 178.953 133.679 178.855 133.728 178.73C133.776 178.604 133.8 178.458 133.8 178.294C133.8 178.131 133.776 177.988 133.729 177.866C133.682 177.743 133.612 177.647 133.519 177.579C133.426 177.51 133.312 177.475 133.175 177.475C133.033 177.475 132.915 177.512 132.82 177.585C132.726 177.657 132.656 177.755 132.608 177.879C132.562 178.002 132.539 178.14 132.539 178.294C132.539 178.449 132.562 178.59 132.61 178.717C132.658 178.843 132.729 178.943 132.823 179.018C132.918 179.092 133.035 179.129 133.175 179.129ZM135.125 178.072V179.385H134.79V177.203H135.114V177.544H135.142C135.194 177.433 135.271 177.344 135.375 177.277C135.48 177.208 135.614 177.174 135.779 177.174C135.927 177.174 136.056 177.205 136.167 177.265C136.277 177.325 136.364 177.416 136.425 177.538C136.487 177.659 136.517 177.813 136.517 177.998V179.385H136.182V178.021C136.182 177.849 136.138 177.716 136.049 177.62C135.96 177.524 135.838 177.475 135.682 177.475C135.575 177.475 135.48 177.499 135.395 177.545C135.312 177.591 135.246 177.659 135.198 177.748C135.15 177.837 135.125 177.945 135.125 178.072ZM138.045 179.43C137.835 179.43 137.653 179.384 137.501 179.291C137.349 179.197 137.232 179.066 137.15 178.899C137.069 178.73 137.028 178.534 137.028 178.311C137.028 178.087 137.069 177.89 137.15 177.72C137.232 177.548 137.347 177.415 137.494 177.319C137.641 177.223 137.814 177.174 138.011 177.174C138.124 177.174 138.237 177.193 138.347 177.231C138.458 177.269 138.559 177.331 138.65 177.416C138.741 177.5 138.813 177.612 138.867 177.751C138.921 177.89 138.948 178.062 138.948 178.265V178.407H137.266V178.117H138.607C138.607 177.994 138.583 177.885 138.533 177.788C138.485 177.691 138.416 177.615 138.326 177.559C138.237 177.503 138.132 177.475 138.011 177.475C137.877 177.475 137.762 177.509 137.664 177.575C137.568 177.64 137.493 177.725 137.441 177.831C137.389 177.936 137.363 178.048 137.363 178.169V178.362C137.363 178.527 137.391 178.666 137.448 178.781C137.506 178.894 137.586 178.981 137.688 179.041C137.791 179.099 137.909 179.129 138.045 179.129C138.133 179.129 138.212 179.117 138.283 179.092C138.355 179.066 138.417 179.028 138.47 178.978C138.522 178.927 138.562 178.864 138.59 178.788L138.914 178.879C138.88 178.989 138.823 179.085 138.742 179.169C138.662 179.251 138.562 179.315 138.444 179.362C138.326 179.407 138.193 179.43 138.045 179.43ZM141.004 177.691L140.703 177.777C140.684 177.726 140.656 177.678 140.619 177.63C140.583 177.582 140.533 177.542 140.471 177.511C140.408 177.48 140.328 177.464 140.231 177.464C140.097 177.464 139.986 177.495 139.897 177.556C139.809 177.617 139.765 177.694 139.765 177.788C139.765 177.871 139.795 177.937 139.856 177.985C139.917 178.034 140.011 178.074 140.14 178.106L140.464 178.186C140.659 178.233 140.804 178.305 140.9 178.403C140.996 178.5 141.043 178.624 141.043 178.777C141.043 178.902 141.007 179.013 140.935 179.112C140.864 179.21 140.765 179.288 140.637 179.345C140.509 179.402 140.361 179.43 140.191 179.43C139.969 179.43 139.784 179.382 139.639 179.285C139.493 179.188 139.4 179.047 139.362 178.862L139.68 178.782C139.71 178.9 139.767 178.988 139.852 179.046C139.937 179.105 140.048 179.135 140.185 179.135C140.342 179.135 140.466 179.101 140.558 179.035C140.65 178.968 140.697 178.887 140.697 178.794C140.697 178.718 140.67 178.654 140.617 178.603C140.564 178.551 140.483 178.512 140.373 178.487L140.009 178.402C139.81 178.354 139.663 178.281 139.569 178.181C139.476 178.081 139.43 177.956 139.43 177.805C139.43 177.682 139.464 177.573 139.533 177.478C139.604 177.384 139.699 177.309 139.819 177.255C139.94 177.201 140.078 177.174 140.231 177.174C140.447 177.174 140.616 177.222 140.739 177.316C140.863 177.411 140.952 177.536 141.004 177.691ZM142.372 179.43C142.19 179.43 142.03 179.384 141.89 179.292C141.751 179.199 141.642 179.069 141.564 178.9C141.485 178.731 141.446 178.53 141.446 178.299C141.446 178.07 141.485 177.871 141.564 177.703C141.642 177.534 141.752 177.404 141.892 177.312C142.032 177.22 142.194 177.174 142.378 177.174C142.52 177.174 142.632 177.198 142.714 177.245C142.798 177.292 142.861 177.345 142.905 177.404C142.949 177.463 142.984 177.511 143.008 177.549H143.037V176.475H143.372V179.385H143.048V179.049H143.008C142.984 179.089 142.949 179.139 142.903 179.2C142.858 179.26 142.793 179.313 142.709 179.36C142.624 179.407 142.512 179.43 142.372 179.43ZM142.417 179.129C142.552 179.129 142.665 179.094 142.758 179.024C142.851 178.953 142.922 178.855 142.97 178.73C143.018 178.604 143.042 178.458 143.042 178.294C143.042 178.131 143.019 177.988 142.971 177.866C142.924 177.743 142.854 177.647 142.761 177.579C142.668 177.51 142.554 177.475 142.417 177.475C142.275 177.475 142.157 177.512 142.062 177.585C141.968 177.657 141.898 177.755 141.851 177.879C141.804 178.002 141.781 178.14 141.781 178.294C141.781 178.449 141.805 178.59 141.852 178.717C141.9 178.843 141.971 178.943 142.065 179.018C142.16 179.092 142.277 179.129 142.417 179.129ZM144.674 179.436C144.536 179.436 144.411 179.41 144.298 179.358C144.185 179.305 144.096 179.228 144.03 179.129C143.963 179.028 143.93 178.907 143.93 178.765C143.93 178.64 143.955 178.539 144.004 178.461C144.053 178.383 144.119 178.321 144.201 178.277C144.284 178.232 144.375 178.199 144.474 178.177C144.575 178.154 144.675 178.136 144.777 178.123C144.909 178.106 145.017 178.093 145.099 178.085C145.182 178.075 145.243 178.06 145.281 178.038C145.32 178.016 145.339 177.978 145.339 177.924V177.913C145.339 177.773 145.301 177.664 145.224 177.586C145.148 177.509 145.033 177.47 144.879 177.47C144.719 177.47 144.593 177.505 144.503 177.575C144.412 177.645 144.348 177.72 144.311 177.799L143.993 177.686C144.049 177.553 144.125 177.45 144.22 177.376C144.316 177.301 144.42 177.249 144.532 177.22C144.646 177.189 144.758 177.174 144.868 177.174C144.938 177.174 145.018 177.183 145.109 177.2C145.201 177.216 145.29 177.25 145.375 177.301C145.461 177.352 145.532 177.429 145.589 177.532C145.646 177.635 145.674 177.774 145.674 177.947V179.385H145.339V179.089H145.322C145.299 179.136 145.262 179.187 145.209 179.241C145.156 179.295 145.085 179.341 144.997 179.379C144.909 179.417 144.801 179.436 144.674 179.436ZM144.726 179.135C144.858 179.135 144.97 179.108 145.061 179.056C145.153 179.004 145.222 178.937 145.268 178.855C145.316 178.772 145.339 178.686 145.339 178.595V178.288C145.325 178.305 145.294 178.321 145.245 178.335C145.198 178.348 145.143 178.36 145.081 178.37C145.019 178.38 144.959 178.388 144.9 178.396C144.843 178.403 144.796 178.408 144.76 178.413C144.673 178.424 144.591 178.443 144.515 178.468C144.441 178.493 144.38 178.53 144.334 178.581C144.288 178.63 144.265 178.697 144.265 178.782C144.265 178.899 144.308 178.987 144.395 179.046C144.482 179.105 144.592 179.135 144.726 179.135ZM146.424 180.203C146.367 180.203 146.317 180.198 146.272 180.188C146.228 180.18 146.197 180.171 146.18 180.163L146.265 179.867C146.346 179.888 146.418 179.896 146.481 179.89C146.543 179.885 146.599 179.857 146.647 179.806C146.696 179.757 146.741 179.677 146.782 179.566L146.845 179.396L146.038 177.203H146.401L147.004 178.941H147.026L147.629 177.203H147.992L147.066 179.703C147.024 179.815 146.973 179.909 146.911 179.983C146.85 180.057 146.778 180.113 146.697 180.149C146.616 180.185 146.525 180.203 146.424 180.203Z" fill="#4F4F4F"/>
<path d="M167.501 176.788V176.475H169.683V176.788H168.768V179.385H168.416V176.788H167.501ZM170.516 178.072V179.385H170.181V176.475H170.516V177.544H170.544C170.596 177.431 170.672 177.341 170.775 177.275C170.878 177.208 171.015 177.174 171.187 177.174C171.335 177.174 171.465 177.204 171.577 177.264C171.689 177.322 171.776 177.413 171.837 177.535C171.9 177.656 171.931 177.811 171.931 177.998V179.385H171.596V178.021C171.596 177.848 171.551 177.714 171.461 177.619C171.372 177.523 171.248 177.475 171.09 177.475C170.98 177.475 170.882 177.499 170.794 177.545C170.708 177.591 170.64 177.659 170.59 177.748C170.541 177.837 170.516 177.945 170.516 178.072ZM173.919 178.492V177.203H174.254V179.385H173.919V179.015H173.896C173.845 179.126 173.766 179.22 173.658 179.298C173.55 179.375 173.413 179.413 173.249 179.413C173.112 179.413 172.991 179.383 172.885 179.323C172.779 179.263 172.696 179.172 172.635 179.051C172.574 178.929 172.544 178.775 172.544 178.589V177.203H172.879V178.566C172.879 178.725 172.924 178.852 173.013 178.947C173.103 179.042 173.217 179.089 173.357 179.089C173.44 179.089 173.525 179.068 173.611 179.025C173.698 178.983 173.771 178.917 173.83 178.829C173.889 178.741 173.919 178.629 173.919 178.492ZM174.868 179.385V177.203H175.192V177.532H175.215C175.255 177.424 175.327 177.337 175.431 177.269C175.535 177.202 175.652 177.169 175.783 177.169C175.808 177.169 175.839 177.169 175.875 177.17C175.912 177.171 175.94 177.172 175.959 177.174V177.515C175.948 177.512 175.922 177.508 175.881 177.502C175.841 177.496 175.799 177.492 175.755 177.492C175.649 177.492 175.554 177.515 175.471 177.559C175.388 177.603 175.323 177.663 175.275 177.741C175.227 177.818 175.204 177.905 175.204 178.004V179.385H174.868ZM177.902 177.691L177.601 177.777C177.582 177.726 177.554 177.678 177.517 177.63C177.481 177.582 177.432 177.542 177.369 177.511C177.307 177.48 177.227 177.464 177.129 177.464C176.996 177.464 176.885 177.495 176.796 177.556C176.707 177.617 176.663 177.694 176.663 177.788C176.663 177.871 176.694 177.937 176.754 177.985C176.815 178.034 176.91 178.074 177.038 178.106L177.362 178.186C177.557 178.233 177.703 178.305 177.798 178.403C177.894 178.5 177.942 178.624 177.942 178.777C177.942 178.902 177.906 179.013 177.834 179.112C177.763 179.21 177.663 179.288 177.536 179.345C177.408 179.402 177.259 179.43 177.09 179.43C176.867 179.43 176.683 179.382 176.537 179.285C176.391 179.188 176.299 179.047 176.26 178.862L176.578 178.782C176.609 178.9 176.666 178.988 176.75 179.046C176.835 179.105 176.947 179.135 177.084 179.135C177.24 179.135 177.364 179.101 177.456 179.035C177.549 178.968 177.595 178.887 177.595 178.794C177.595 178.718 177.569 178.654 177.516 178.603C177.463 178.551 177.381 178.512 177.271 178.487L176.908 178.402C176.708 178.354 176.561 178.281 176.467 178.181C176.375 178.081 176.328 177.956 176.328 177.805C176.328 177.682 176.363 177.573 176.432 177.478C176.502 177.384 176.597 177.309 176.717 177.255C176.839 177.201 176.976 177.174 177.129 177.174C177.345 177.174 177.515 177.222 177.638 177.316C177.762 177.411 177.85 177.536 177.902 177.691ZM179.27 179.43C179.089 179.43 178.928 179.384 178.789 179.292C178.65 179.199 178.541 179.069 178.462 178.9C178.383 178.731 178.344 178.53 178.344 178.299C178.344 178.07 178.383 177.871 178.462 177.703C178.541 177.534 178.65 177.404 178.79 177.312C178.93 177.22 179.092 177.174 179.276 177.174C179.418 177.174 179.53 177.198 179.613 177.245C179.696 177.292 179.759 177.345 179.803 177.404C179.848 177.463 179.882 177.511 179.907 177.549H179.935V176.475H180.27V179.385H179.946V179.049H179.907C179.882 179.089 179.847 179.139 179.802 179.2C179.756 179.26 179.691 179.313 179.607 179.36C179.523 179.407 179.41 179.43 179.27 179.43ZM179.316 179.129C179.45 179.129 179.564 179.094 179.657 179.024C179.749 178.953 179.82 178.855 179.868 178.73C179.917 178.604 179.941 178.458 179.941 178.294C179.941 178.131 179.917 177.988 179.87 177.866C179.822 177.743 179.752 177.647 179.66 177.579C179.567 177.51 179.452 177.475 179.316 177.475C179.174 177.475 179.055 177.512 178.961 177.585C178.867 177.657 178.796 177.755 178.749 177.879C178.703 178.002 178.679 178.14 178.679 178.294C178.679 178.449 178.703 178.59 178.75 178.717C178.799 178.843 178.87 178.943 178.964 179.018C179.058 179.092 179.176 179.129 179.316 179.129ZM181.573 179.436C181.435 179.436 181.309 179.41 181.196 179.358C181.084 179.305 180.994 179.228 180.928 179.129C180.862 179.028 180.829 178.907 180.829 178.765C180.829 178.64 180.853 178.539 180.902 178.461C180.952 178.383 181.017 178.321 181.1 178.277C181.182 178.232 181.273 178.199 181.373 178.177C181.473 178.154 181.574 178.136 181.675 178.123C181.808 178.106 181.915 178.093 181.998 178.085C182.081 178.075 182.142 178.06 182.179 178.038C182.218 178.016 182.238 177.978 182.238 177.924V177.913C182.238 177.773 182.199 177.664 182.123 177.586C182.047 177.509 181.932 177.47 181.777 177.47C181.617 177.47 181.492 177.505 181.401 177.575C181.31 177.645 181.246 177.72 181.209 177.799L180.891 177.686C180.948 177.553 181.024 177.45 181.118 177.376C181.214 177.301 181.318 177.249 181.431 177.22C181.544 177.189 181.656 177.174 181.766 177.174C181.836 177.174 181.917 177.183 182.008 177.2C182.099 177.216 182.188 177.25 182.273 177.301C182.359 177.352 182.431 177.429 182.488 177.532C182.544 177.635 182.573 177.774 182.573 177.947V179.385H182.238V179.089H182.221C182.198 179.136 182.16 179.187 182.107 179.241C182.054 179.295 181.983 179.341 181.895 179.379C181.807 179.417 181.7 179.436 181.573 179.436ZM181.624 179.135C181.757 179.135 181.868 179.108 181.959 179.056C182.051 179.004 182.12 178.937 182.167 178.855C182.214 178.772 182.238 178.686 182.238 178.595V178.288C182.223 178.305 182.192 178.321 182.144 178.335C182.097 178.348 182.042 178.36 181.979 178.37C181.918 178.38 181.857 178.388 181.799 178.396C181.741 178.403 181.694 178.408 181.658 178.413C181.571 178.424 181.49 178.443 181.414 178.468C181.339 178.493 181.278 178.53 181.232 178.581C181.187 178.63 181.164 178.697 181.164 178.782C181.164 178.899 181.207 178.987 181.293 179.046C181.38 179.105 181.491 179.135 181.624 179.135ZM183.323 180.203C183.266 180.203 183.215 180.198 183.171 180.188C183.126 180.18 183.095 180.171 183.078 180.163L183.163 179.867C183.245 179.888 183.317 179.896 183.379 179.89C183.442 179.885 183.497 179.857 183.546 179.806C183.595 179.757 183.64 179.677 183.68 179.566L183.743 179.396L182.936 177.203H183.3L183.902 178.941H183.925L184.527 177.203H184.891L183.965 179.703C183.923 179.815 183.871 179.909 183.81 179.983C183.748 180.057 183.677 180.113 183.595 180.149C183.515 180.185 183.424 180.203 183.323 180.203Z" fill="#4F4F4F"/>
<path d="M209.627 179.385V176.475H211.371V176.788H209.979V177.771H211.24V178.083H209.979V179.385H209.627ZM211.905 179.385V177.203H212.229V177.532H212.252C212.292 177.424 212.364 177.337 212.468 177.269C212.572 177.202 212.69 177.169 212.82 177.169C212.845 177.169 212.876 177.169 212.913 177.17C212.949 177.171 212.977 177.172 212.996 177.174V177.515C212.985 177.512 212.959 177.508 212.918 177.502C212.878 177.496 212.836 177.492 212.792 177.492C212.686 177.492 212.591 177.515 212.508 177.559C212.425 177.603 212.36 177.663 212.312 177.741C212.264 177.818 212.241 177.905 212.241 178.004V179.385H211.905ZM213.394 179.385V177.203H213.729V179.385H213.394ZM213.564 176.839C213.499 176.839 213.443 176.817 213.395 176.772C213.349 176.728 213.326 176.674 213.326 176.612C213.326 176.549 213.349 176.496 213.395 176.451C213.443 176.407 213.499 176.385 213.564 176.385C213.63 176.385 213.685 176.407 213.732 176.451C213.779 176.496 213.803 176.549 213.803 176.612C213.803 176.674 213.779 176.728 213.732 176.772C213.685 176.817 213.63 176.839 213.564 176.839ZM215.167 179.43C214.985 179.43 214.824 179.384 214.685 179.292C214.546 179.199 214.437 179.069 214.359 178.9C214.28 178.731 214.241 178.53 214.241 178.299C214.241 178.07 214.28 177.871 214.359 177.703C214.437 177.534 214.547 177.404 214.687 177.312C214.827 177.22 214.989 177.174 215.172 177.174C215.315 177.174 215.427 177.198 215.509 177.245C215.592 177.292 215.656 177.345 215.699 177.404C215.744 177.463 215.779 177.511 215.803 177.549H215.832V176.475H216.167V179.385H215.843V179.049H215.803C215.779 179.089 215.744 179.139 215.698 179.2C215.653 179.26 215.588 179.313 215.503 179.36C215.419 179.407 215.307 179.43 215.167 179.43ZM215.212 179.129C215.347 179.129 215.46 179.094 215.553 179.024C215.646 178.953 215.717 178.855 215.765 178.73C215.813 178.604 215.837 178.458 215.837 178.294C215.837 178.131 215.814 177.988 215.766 177.866C215.719 177.743 215.649 177.647 215.556 177.579C215.463 177.51 215.349 177.475 215.212 177.475C215.07 177.475 214.952 177.512 214.857 177.585C214.763 177.657 214.693 177.755 214.646 177.879C214.599 178.002 214.576 178.14 214.576 178.294C214.576 178.449 214.6 178.59 214.647 178.717C214.695 178.843 214.766 178.943 214.86 179.018C214.955 179.092 215.072 179.129 215.212 179.129ZM217.469 179.436C217.331 179.436 217.206 179.41 217.093 179.358C216.98 179.305 216.891 179.228 216.824 179.129C216.758 179.028 216.725 178.907 216.725 178.765C216.725 178.64 216.75 178.539 216.799 178.461C216.848 178.383 216.914 178.321 216.996 178.277C217.079 178.232 217.17 178.199 217.269 178.177C217.369 178.154 217.47 178.136 217.572 178.123C217.704 178.106 217.812 178.093 217.894 178.085C217.977 178.075 218.038 178.06 218.076 178.038C218.115 178.016 218.134 177.978 218.134 177.924V177.913C218.134 177.773 218.096 177.664 218.019 177.586C217.943 177.509 217.828 177.47 217.674 177.47C217.514 177.47 217.388 177.505 217.297 177.575C217.207 177.645 217.143 177.72 217.106 177.799L216.788 177.686C216.844 177.553 216.92 177.45 217.015 177.376C217.11 177.301 217.215 177.249 217.327 177.22C217.441 177.189 217.553 177.174 217.663 177.174C217.733 177.174 217.813 177.183 217.904 177.2C217.996 177.216 218.084 177.25 218.17 177.301C218.256 177.352 218.327 177.429 218.384 177.532C218.441 177.635 218.469 177.774 218.469 177.947V179.385H218.134V179.089H218.117C218.094 179.136 218.056 179.187 218.003 179.241C217.95 179.295 217.88 179.341 217.792 179.379C217.704 179.417 217.596 179.436 217.469 179.436ZM217.521 179.135C217.653 179.135 217.765 179.108 217.856 179.056C217.948 179.004 218.017 178.937 218.063 178.855C218.11 178.772 218.134 178.686 218.134 178.595V178.288C218.12 178.305 218.089 178.321 218.04 178.335C217.993 178.348 217.938 178.36 217.876 178.37C217.814 178.38 217.754 178.388 217.695 178.396C217.637 178.403 217.591 178.408 217.555 178.413C217.467 178.424 217.386 178.443 217.31 178.468C217.235 178.493 217.175 178.53 217.128 178.581C217.083 178.63 217.06 178.697 217.06 178.782C217.06 178.899 217.103 178.987 217.19 179.046C217.277 179.105 217.387 179.135 217.521 179.135ZM219.219 180.203C219.162 180.203 219.112 180.198 219.067 180.188C219.023 180.18 218.992 180.171 218.975 180.163L219.06 179.867C219.141 179.888 219.213 179.896 219.276 179.89C219.338 179.885 219.394 179.857 219.442 179.806C219.491 179.757 219.536 179.677 219.577 179.566L219.639 179.396L218.833 177.203H219.196L219.799 178.941H219.821L220.424 177.203H220.787L219.861 179.703C219.819 179.815 219.768 179.909 219.706 179.983C219.645 180.057 219.573 180.113 219.492 180.149C219.411 180.185 219.32 180.203 219.219 180.203Z" fill="#4F4F4F"/>
<path d="M42.8789 72.3076C65.103 88.0017 113.597 118.42 129.781 114.539C150.01 109.688 168.815 100.842 183.061 111.971C194.458 120.874 205.286 128.996 209.275 131.945" stroke="#F94144"/>
<circle cx="42.8787" cy="72.3077" r="2.20879" fill="#F94144"/>
<circle cx="84.8465" cy="98.077" r="2.20879" fill="#F94144"/>
<ellipse cx="126.445" cy="115.011" rx="2.57692" ry="2.20879" fill="#F94144"/>
<circle cx="168.044" cy="106.912" r="2.20879" fill="#F94144"/>
<circle cx="210.011" cy="131.945" r="2.20879" fill="#F94144"/>
<path d="M43.416 159.238C55.1113 164.385 82.2671 172.791 97.3284 165.242C116.155 155.807 140.116 135.506 148.388 128.072C156.661 120.638 166.074 110.345 181.763 123.783C197.451 137.222 204.583 150.374 210.002 151.518" stroke="#F3722C"/>
<ellipse cx="43.4158" cy="159.238" rx="2.282" ry="2.2874" fill="#F3722C"/>
<ellipse cx="85.0623" cy="168.387" rx="2.282" ry="2.2874" fill="#F3722C"/>
<ellipse cx="126.138" cy="146.657" rx="2.282" ry="2.2874" fill="#F3722C"/>
<ellipse cx="168.356" cy="117.493" rx="2.282" ry="2.2874" fill="#F3722C"/>
<ellipse cx="209.431" cy="151.232" rx="2.282" ry="2.2874" fill="#F3722C"/>
</svg>
