<svg width="248" height="193" viewBox="0 0 248 193" fill="none" xmlns="http://www.w3.org/2000/svg">
<rect x="4" width="244" height="188" rx="12" fill="white"/>
<path d="M25.29 23L23.75 20.28H23.09V23H21.69V16.02H24.31C24.85 16.02 25.31 16.1167 25.69 16.31C26.07 16.4967 26.3533 16.7533 26.54 17.08C26.7333 17.4 26.83 17.76 26.83 18.16C26.83 18.62 26.6967 19.0367 26.43 19.41C26.1633 19.7767 25.7667 20.03 25.24 20.17L26.91 23H25.29ZM23.09 19.23H24.26C24.64 19.23 24.9233 19.14 25.11 18.96C25.2967 18.7733 25.39 18.5167 25.39 18.19C25.39 17.87 25.2967 17.6233 25.11 17.45C24.9233 17.27 24.64 17.18 24.26 17.18H23.09V19.23ZM33.2463 20.11C33.2463 20.31 33.2329 20.49 33.2063 20.65H29.1563C29.1896 21.05 29.3296 21.3633 29.5763 21.59C29.8229 21.8167 30.1263 21.93 30.4863 21.93C31.0063 21.93 31.3763 21.7067 31.5963 21.26H33.1063C32.9463 21.7933 32.6396 22.2333 32.1863 22.58C31.7329 22.92 31.1763 23.09 30.5163 23.09C29.9829 23.09 29.5029 22.9733 29.0763 22.74C28.6563 22.5 28.3263 22.1633 28.0863 21.73C27.8529 21.2967 27.7362 20.7967 27.7362 20.23C27.7362 19.6567 27.8529 19.1533 28.0863 18.72C28.3196 18.2867 28.6463 17.9533 29.0663 17.72C29.4863 17.4867 29.9696 17.37 30.5163 17.37C31.0429 17.37 31.5129 17.4833 31.9263 17.71C32.3463 17.9367 32.6696 18.26 32.8963 18.68C33.1296 19.0933 33.2463 19.57 33.2463 20.11ZM31.7963 19.71C31.7896 19.35 31.6596 19.0633 31.4063 18.85C31.1529 18.63 30.8429 18.52 30.4763 18.52C30.1296 18.52 29.8363 18.6267 29.5963 18.84C29.3629 19.0467 29.2196 19.3367 29.1663 19.71H31.7963ZM36.5781 21.71L37.9781 17.46H39.4681L37.4181 23H35.7181L33.6781 17.46H35.1781L36.5781 21.71ZM45.4045 20.11C45.4045 20.31 45.3911 20.49 45.3645 20.65H41.3145C41.3478 21.05 41.4878 21.3633 41.7345 21.59C41.9811 21.8167 42.2845 21.93 42.6445 21.93C43.1645 21.93 43.5345 21.7067 43.7545 21.26H45.2645C45.1045 21.7933 44.7978 22.2333 44.3445 22.58C43.8911 22.92 43.3345 23.09 42.6745 23.09C42.1411 23.09 41.6611 22.9733 41.2345 22.74C40.8145 22.5 40.4845 22.1633 40.2445 21.73C40.0111 21.2967 39.8945 20.7967 39.8945 20.23C39.8945 19.6567 40.0111 19.1533 40.2445 18.72C40.4778 18.2867 40.8045 17.9533 41.2245 17.72C41.6445 17.4867 42.1278 17.37 42.6745 17.37C43.2011 17.37 43.6711 17.4833 44.0845 17.71C44.5045 17.9367 44.8278 18.26 45.0545 18.68C45.2878 19.0933 45.4045 19.57 45.4045 20.11ZM43.9545 19.71C43.9478 19.35 43.8178 19.0633 43.5645 18.85C43.3111 18.63 43.0011 18.52 42.6345 18.52C42.2878 18.52 41.9945 18.6267 41.7545 18.84C41.5211 19.0467 41.3778 19.3367 41.3245 19.71H43.9545ZM49.4963 17.38C50.1563 17.38 50.6897 17.59 51.0963 18.01C51.503 18.4233 51.7063 19.0033 51.7063 19.75V23H50.3063V19.94C50.3063 19.5 50.1963 19.1633 49.9763 18.93C49.7563 18.69 49.4563 18.57 49.0763 18.57C48.6897 18.57 48.383 18.69 48.1563 18.93C47.9363 19.1633 47.8263 19.5 47.8263 19.94V23H46.4263V17.46H47.8263V18.15C48.013 17.91 48.2497 17.7233 48.5363 17.59C48.8297 17.45 49.1497 17.38 49.4963 17.38ZM58.2677 17.46V23H56.8577V22.3C56.6777 22.54 56.441 22.73 56.1477 22.87C55.861 23.0033 55.5477 23.07 55.2077 23.07C54.7743 23.07 54.391 22.98 54.0577 22.8C53.7243 22.6133 53.461 22.3433 53.2677 21.99C53.081 21.63 52.9877 21.2033 52.9877 20.71V17.46H54.3877V20.51C54.3877 20.95 54.4977 21.29 54.7177 21.53C54.9377 21.7633 55.2377 21.88 55.6177 21.88C56.0043 21.88 56.3077 21.7633 56.5277 21.53C56.7477 21.29 56.8577 20.95 56.8577 20.51V17.46H58.2677ZM64.799 20.11C64.799 20.31 64.7857 20.49 64.759 20.65H60.709C60.7423 21.05 60.8823 21.3633 61.129 21.59C61.3757 21.8167 61.679 21.93 62.039 21.93C62.559 21.93 62.929 21.7067 63.149 21.26H64.659C64.499 21.7933 64.1923 22.2333 63.739 22.58C63.2857 22.92 62.729 23.09 62.069 23.09C61.5357 23.09 61.0557 22.9733 60.629 22.74C60.209 22.5 59.879 22.1633 59.639 21.73C59.4057 21.2967 59.289 20.7967 59.289 20.23C59.289 19.6567 59.4057 19.1533 59.639 18.72C59.8723 18.2867 60.199 17.9533 60.619 17.72C61.039 17.4867 61.5223 17.37 62.069 17.37C62.5957 17.37 63.0657 17.4833 63.479 17.71C63.899 17.9367 64.2223 18.26 64.449 18.68C64.6823 19.0933 64.799 19.57 64.799 20.11ZM63.349 19.71C63.3423 19.35 63.2123 19.0633 62.959 18.85C62.7057 18.63 62.3957 18.52 62.029 18.52C61.6823 18.52 61.389 18.6267 61.149 18.84C60.9157 19.0467 60.7723 19.3367 60.719 19.71H63.349ZM75.8137 16.02V23H74.4137V18.46L72.5437 23H71.4837L69.6037 18.46V23H68.2037V16.02H69.7937L72.0137 21.21L74.2337 16.02H75.8137ZM77.9078 16.8C77.6611 16.8 77.4545 16.7233 77.2878 16.57C77.1278 16.41 77.0478 16.2133 77.0478 15.98C77.0478 15.7467 77.1278 15.5533 77.2878 15.4C77.4545 15.24 77.6611 15.16 77.9078 15.16C78.1545 15.16 78.3578 15.24 78.5178 15.4C78.6845 15.5533 78.7678 15.7467 78.7678 15.98C78.7678 16.2133 78.6845 16.41 78.5178 16.57C78.3578 16.7233 78.1545 16.8 77.9078 16.8ZM78.5978 17.46V23H77.1978V17.46H78.5978ZM83.041 23L81.901 21.28L80.891 23H79.391L81.201 20.22L79.371 17.46H80.951L82.081 19.17L83.101 17.46H84.601L82.781 20.22L84.621 23H83.041Z" fill="#171725"/>
<path d="M103.216 166.563C88.7893 172.115 72.7731 171.868 58.5243 165.873C44.2755 159.878 32.9003 148.6 26.7827 134.403L81.7267 110.727L103.216 166.563Z" fill="#20AFDA"/>
<path d="M27.2433 135.444C20.8569 121.366 20.1675 105.362 25.3195 90.7876C30.4715 76.2127 41.0649 64.1978 54.8797 57.2608L81.7273 110.727L27.2433 135.444Z" fill="#402C7F"/>
<path d="M140.751 100.954C143.019 114.649 140.454 128.707 133.494 140.719C126.535 152.731 115.616 161.949 102.607 166.793L81.7268 110.727L140.751 100.954Z" fill="#F9C74F"/>
<path d="M32.843 76.2344C41.3951 64.114 54.145 55.6028 68.6185 52.3525C83.092 49.1023 98.2568 51.3447 111.17 58.6448L81.7274 110.727L32.843 76.2344Z" fill="#F94144"/>
<path d="M102.393 54.5811C110.476 57.5561 117.821 62.2413 123.927 68.3164C130.032 74.3915 134.754 81.7133 137.77 89.7813C140.785 97.8493 142.023 106.473 141.399 115.064C140.774 123.654 138.303 132.008 134.152 139.556L81.7278 110.727L102.393 54.5811Z" fill="#2EA049"/>
<path d="M63.6644 76.8787C64.1724 76.4707 64.5704 76.1367 64.8584 75.8767C65.1464 75.6127 65.3884 75.3387 65.5844 75.0547C65.7844 74.7667 65.8844 74.4847 65.8844 74.2087C65.8844 73.9487 65.8204 73.7447 65.6924 73.5967C65.5684 73.4447 65.3664 73.3687 65.0864 73.3687C64.8144 73.3687 64.6024 73.4547 64.4504 73.6267C64.3024 73.7947 64.2224 74.0207 64.2104 74.3047H63.6824C63.6984 73.8567 63.8344 73.5107 64.0904 73.2667C64.3464 73.0227 64.6764 72.9007 65.0804 72.9007C65.4924 72.9007 65.8184 73.0147 66.0584 73.2427C66.3024 73.4707 66.4244 73.7847 66.4244 74.1847C66.4244 74.5167 66.3244 74.8407 66.1244 75.1567C65.9284 75.4687 65.7044 75.7447 65.4524 75.9847C65.2004 76.2207 64.8784 76.4967 64.4864 76.8127H66.5504V77.2687H63.6644V76.8787ZM67.1816 75.1027C67.1816 74.4147 67.2936 73.8787 67.5176 73.4947C67.7416 73.1067 68.1336 72.9127 68.6936 72.9127C69.2496 72.9127 69.6396 73.1067 69.8636 73.4947C70.0876 73.8787 70.1996 74.4147 70.1996 75.1027C70.1996 75.8027 70.0876 76.3467 69.8636 76.7347C69.6396 77.1227 69.2496 77.3167 68.6936 77.3167C68.1336 77.3167 67.7416 77.1227 67.5176 76.7347C67.2936 76.3467 67.1816 75.8027 67.1816 75.1027ZM69.6596 75.1027C69.6596 74.7547 69.6356 74.4607 69.5876 74.2207C69.5436 73.9767 69.4496 73.7807 69.3056 73.6327C69.1656 73.4847 68.9616 73.4107 68.6936 73.4107C68.4216 73.4107 68.2136 73.4847 68.0696 73.6327C67.9296 73.7807 67.8356 73.9767 67.7876 74.2207C67.7436 74.4607 67.7216 74.7547 67.7216 75.1027C67.7216 75.4627 67.7436 75.7647 67.7876 76.0087C67.8356 76.2527 67.9296 76.4487 68.0696 76.5967C68.2136 76.7447 68.4216 76.8187 68.6936 76.8187C68.9616 76.8187 69.1656 76.7447 69.3056 76.5967C69.4496 76.4487 69.5436 76.2527 69.5876 76.0087C69.6356 75.7647 69.6596 75.4627 69.6596 75.1027ZM70.8291 73.9567C70.8291 73.6847 70.9111 73.4687 71.0751 73.3087C71.2391 73.1447 71.4491 73.0627 71.7051 73.0627C71.9611 73.0627 72.1711 73.1447 72.3351 73.3087C72.4991 73.4687 72.5811 73.6847 72.5811 73.9567C72.5811 74.2327 72.4991 74.4527 72.3351 74.6167C72.1711 74.7767 71.9611 74.8567 71.7051 74.8567C71.4491 74.8567 71.2391 74.7767 71.0751 74.6167C70.9111 74.4527 70.8291 74.2327 70.8291 73.9567ZM74.3331 73.1287L71.9031 77.3167H71.3631L73.7931 73.1287H74.3331ZM71.7051 73.3987C71.5691 73.3987 71.4611 73.4467 71.3811 73.5427C71.3051 73.6347 71.2671 73.7727 71.2671 73.9567C71.2671 74.1407 71.3051 74.2807 71.3811 74.3767C71.4611 74.4727 71.5691 74.5207 71.7051 74.5207C71.8411 74.5207 71.9491 74.4727 72.0291 74.3767C72.1091 74.2767 72.1491 74.1367 72.1491 73.9567C72.1491 73.7727 72.1091 73.6347 72.0291 73.5427C71.9491 73.4467 71.8411 73.3987 71.7051 73.3987ZM73.1271 76.4887C73.1271 76.2127 73.2091 75.9947 73.3731 75.8347C73.5371 75.6707 73.7471 75.5887 74.0031 75.5887C74.2591 75.5887 74.4671 75.6707 74.6271 75.8347C74.7911 75.9947 74.8731 76.2127 74.8731 76.4887C74.8731 76.7607 74.7911 76.9787 74.6271 77.1427C74.4671 77.3067 74.2591 77.3887 74.0031 77.3887C73.7471 77.3887 73.5371 77.3087 73.3731 77.1487C73.2091 76.9847 73.1271 76.7647 73.1271 76.4887ZM73.9971 75.9307C73.8611 75.9307 73.7531 75.9787 73.6731 76.0747C73.5931 76.1667 73.5531 76.3047 73.5531 76.4887C73.5531 76.6687 73.5931 76.8067 73.6731 76.9027C73.7531 76.9947 73.8611 77.0407 73.9971 77.0407C74.1331 77.0407 74.2411 76.9947 74.3211 76.9027C74.4011 76.8067 74.4411 76.6687 74.4411 76.4887C74.4411 76.3047 74.4011 76.1667 74.3211 76.0747C74.2411 75.9787 74.1331 75.9307 73.9971 75.9307Z" fill="white"/>
<path d="M106.7 101.02C107.208 100.612 107.606 100.278 107.894 100.018C108.182 99.7538 108.424 99.4798 108.62 99.1958C108.82 98.9078 108.92 98.6258 108.92 98.3498C108.92 98.0898 108.856 97.8858 108.728 97.7378C108.604 97.5858 108.402 97.5098 108.122 97.5098C107.85 97.5098 107.638 97.5958 107.486 97.7678C107.338 97.9358 107.258 98.1618 107.246 98.4458H106.718C106.734 97.9978 106.87 97.6518 107.126 97.4078C107.382 97.1638 107.712 97.0418 108.116 97.0418C108.528 97.0418 108.854 97.1558 109.094 97.3838C109.338 97.6118 109.46 97.9258 109.46 98.3258C109.46 98.6578 109.36 98.9818 109.16 99.2978C108.964 99.6098 108.74 99.8858 108.488 100.126C108.236 100.362 107.914 100.638 107.522 100.954H109.586V101.41H106.7V101.02ZM110.151 101.02C110.659 100.612 111.057 100.278 111.345 100.018C111.633 99.7538 111.875 99.4798 112.071 99.1958C112.271 98.9078 112.371 98.6258 112.371 98.3498C112.371 98.0898 112.307 97.8858 112.179 97.7378C112.055 97.5858 111.853 97.5098 111.573 97.5098C111.301 97.5098 111.089 97.5958 110.937 97.7678C110.789 97.9358 110.709 98.1618 110.697 98.4458H110.169C110.185 97.9978 110.321 97.6518 110.577 97.4078C110.833 97.1638 111.163 97.0418 111.567 97.0418C111.979 97.0418 112.305 97.1558 112.545 97.3838C112.789 97.6118 112.911 97.9258 112.911 98.3258C112.911 98.6578 112.811 98.9818 112.611 99.2978C112.415 99.6098 112.191 99.8858 111.939 100.126C111.687 100.362 111.365 100.638 110.973 100.954H113.037V101.41H110.151V101.02ZM113.548 98.0978C113.548 97.8258 113.63 97.6098 113.794 97.4498C113.958 97.2858 114.168 97.2038 114.424 97.2038C114.68 97.2038 114.89 97.2858 115.054 97.4498C115.218 97.6098 115.3 97.8258 115.3 98.0978C115.3 98.3738 115.218 98.5938 115.054 98.7578C114.89 98.9178 114.68 98.9978 114.424 98.9978C114.168 98.9978 113.958 98.9178 113.794 98.7578C113.63 98.5938 113.548 98.3738 113.548 98.0978ZM117.052 97.2698L114.622 101.458H114.082L116.512 97.2698H117.052ZM114.424 97.5398C114.288 97.5398 114.18 97.5878 114.1 97.6838C114.024 97.7758 113.986 97.9138 113.986 98.0978C113.986 98.2818 114.024 98.4218 114.1 98.5178C114.18 98.6138 114.288 98.6618 114.424 98.6618C114.56 98.6618 114.668 98.6138 114.748 98.5178C114.828 98.4178 114.868 98.2778 114.868 98.0978C114.868 97.9138 114.828 97.7758 114.748 97.6838C114.668 97.5878 114.56 97.5398 114.424 97.5398ZM115.846 100.63C115.846 100.354 115.928 100.136 116.092 99.9758C116.256 99.8118 116.466 99.7298 116.722 99.7298C116.978 99.7298 117.186 99.8118 117.346 99.9758C117.51 100.136 117.592 100.354 117.592 100.63C117.592 100.902 117.51 101.12 117.346 101.284C117.186 101.448 116.978 101.53 116.722 101.53C116.466 101.53 116.256 101.45 116.092 101.29C115.928 101.126 115.846 100.906 115.846 100.63ZM116.716 100.072C116.58 100.072 116.472 100.12 116.392 100.216C116.312 100.308 116.272 100.446 116.272 100.63C116.272 100.81 116.312 100.948 116.392 101.044C116.472 101.136 116.58 101.182 116.716 101.182C116.852 101.182 116.96 101.136 117.04 101.044C117.12 100.948 117.16 100.81 117.16 100.63C117.16 100.446 117.12 100.308 117.04 100.216C116.96 100.12 116.852 100.072 116.716 100.072Z" fill="white"/>
<path d="M100.848 135.404V134.906H101.976V139.244H101.424V135.404H100.848ZM102.848 138.806C103.356 138.398 103.754 138.064 104.042 137.804C104.33 137.54 104.572 137.266 104.768 136.982C104.968 136.694 105.068 136.412 105.068 136.136C105.068 135.876 105.004 135.672 104.876 135.524C104.752 135.372 104.55 135.296 104.27 135.296C103.998 135.296 103.786 135.382 103.634 135.554C103.486 135.722 103.406 135.948 103.394 136.232H102.866C102.882 135.784 103.018 135.438 103.274 135.194C103.53 134.95 103.86 134.828 104.264 134.828C104.676 134.828 105.002 134.942 105.242 135.17C105.486 135.398 105.608 135.712 105.608 136.112C105.608 136.444 105.508 136.768 105.308 137.084C105.112 137.396 104.888 137.672 104.636 137.912C104.384 138.148 104.062 138.424 103.67 138.74H105.734V139.196H102.848V138.806ZM106.245 135.884C106.245 135.612 106.327 135.396 106.491 135.236C106.655 135.072 106.865 134.99 107.121 134.99C107.377 134.99 107.587 135.072 107.751 135.236C107.915 135.396 107.997 135.612 107.997 135.884C107.997 136.16 107.915 136.38 107.751 136.544C107.587 136.704 107.377 136.784 107.121 136.784C106.865 136.784 106.655 136.704 106.491 136.544C106.327 136.38 106.245 136.16 106.245 135.884ZM109.749 135.056L107.319 139.244H106.779L109.209 135.056H109.749ZM107.121 135.326C106.985 135.326 106.877 135.374 106.797 135.47C106.721 135.562 106.683 135.7 106.683 135.884C106.683 136.068 106.721 136.208 106.797 136.304C106.877 136.4 106.985 136.448 107.121 136.448C107.257 136.448 107.365 136.4 107.445 136.304C107.525 136.204 107.565 136.064 107.565 135.884C107.565 135.7 107.525 135.562 107.445 135.47C107.365 135.374 107.257 135.326 107.121 135.326ZM108.543 138.416C108.543 138.14 108.625 137.922 108.789 137.762C108.953 137.598 109.163 137.516 109.419 137.516C109.675 137.516 109.883 137.598 110.043 137.762C110.207 137.922 110.289 138.14 110.289 138.416C110.289 138.688 110.207 138.906 110.043 139.07C109.883 139.234 109.675 139.316 109.419 139.316C109.163 139.316 108.953 139.236 108.789 139.076C108.625 138.912 108.543 138.692 108.543 138.416ZM109.413 137.858C109.277 137.858 109.169 137.906 109.089 138.002C109.009 138.094 108.969 138.232 108.969 138.416C108.969 138.596 109.009 138.734 109.089 138.83C109.169 138.922 109.277 138.968 109.413 138.968C109.549 138.968 109.657 138.922 109.737 138.83C109.817 138.734 109.857 138.596 109.857 138.416C109.857 138.232 109.817 138.094 109.737 138.002C109.657 137.906 109.549 137.858 109.413 137.858Z" fill="white"/>
<path d="M62.6156 146.678C63.1236 146.27 63.5216 145.936 63.8096 145.676C64.0976 145.412 64.3396 145.138 64.5356 144.854C64.7356 144.566 64.8356 144.284 64.8356 144.008C64.8356 143.748 64.7716 143.544 64.6436 143.396C64.5196 143.244 64.3176 143.168 64.0376 143.168C63.7656 143.168 63.5536 143.254 63.4016 143.426C63.2536 143.594 63.1736 143.82 63.1616 144.104H62.6336C62.6496 143.656 62.7856 143.31 63.0416 143.066C63.2976 142.822 63.6276 142.7 64.0316 142.7C64.4436 142.7 64.7696 142.814 65.0096 143.042C65.2536 143.27 65.3756 143.584 65.3756 143.984C65.3756 144.316 65.2756 144.64 65.0756 144.956C64.8796 145.268 64.6556 145.544 64.4036 145.784C64.1516 146.02 63.8296 146.296 63.4376 146.612H65.5016V147.068H62.6156V146.678ZM68.5507 143.81C68.4627 143.366 68.1887 143.144 67.7287 143.144C67.3727 143.144 67.1067 143.282 66.9307 143.558C66.7547 143.83 66.6687 144.28 66.6727 144.908C66.7647 144.7 66.9167 144.538 67.1287 144.422C67.3447 144.302 67.5847 144.242 67.8487 144.242C68.2607 144.242 68.5887 144.37 68.8327 144.626C69.0807 144.882 69.2047 145.236 69.2047 145.688C69.2047 145.96 69.1507 146.204 69.0427 146.42C68.9387 146.636 68.7787 146.808 68.5627 146.936C68.3507 147.064 68.0927 147.128 67.7887 147.128C67.3767 147.128 67.0547 147.036 66.8227 146.852C66.5907 146.668 66.4287 146.414 66.3367 146.09C66.2447 145.766 66.1987 145.366 66.1987 144.89C66.1987 143.422 66.7107 142.688 67.7347 142.688C68.1267 142.688 68.4347 142.794 68.6587 143.006C68.8827 143.218 69.0147 143.486 69.0547 143.81H68.5507ZM67.7347 144.704C67.5627 144.704 67.4007 144.74 67.2487 144.812C67.0967 144.88 66.9727 144.986 66.8767 145.13C66.7847 145.27 66.7387 145.442 66.7387 145.646C66.7387 145.95 66.8267 146.198 67.0027 146.39C67.1787 146.578 67.4307 146.672 67.7587 146.672C68.0387 146.672 68.2607 146.586 68.4247 146.414C68.5927 146.238 68.6767 146.002 68.6767 145.706C68.6767 145.394 68.5967 145.15 68.4367 144.974C68.2767 144.794 68.0427 144.704 67.7347 144.704ZM69.8213 143.756C69.8213 143.484 69.9033 143.268 70.0673 143.108C70.2313 142.944 70.4413 142.862 70.6973 142.862C70.9533 142.862 71.1633 142.944 71.3273 143.108C71.4913 143.268 71.5733 143.484 71.5733 143.756C71.5733 144.032 71.4913 144.252 71.3273 144.416C71.1633 144.576 70.9533 144.656 70.6973 144.656C70.4413 144.656 70.2313 144.576 70.0673 144.416C69.9033 144.252 69.8213 144.032 69.8213 143.756ZM73.3253 142.928L70.8953 147.116H70.3553L72.7853 142.928H73.3253ZM70.6973 143.198C70.5613 143.198 70.4533 143.246 70.3733 143.342C70.2973 143.434 70.2593 143.572 70.2593 143.756C70.2593 143.94 70.2973 144.08 70.3733 144.176C70.4533 144.272 70.5613 144.32 70.6973 144.32C70.8333 144.32 70.9413 144.272 71.0213 144.176C71.1013 144.076 71.1413 143.936 71.1413 143.756C71.1413 143.572 71.1013 143.434 71.0213 143.342C70.9413 143.246 70.8333 143.198 70.6973 143.198ZM72.1193 146.288C72.1193 146.012 72.2013 145.794 72.3653 145.634C72.5293 145.47 72.7393 145.388 72.9953 145.388C73.2513 145.388 73.4593 145.47 73.6193 145.634C73.7833 145.794 73.8653 146.012 73.8653 146.288C73.8653 146.56 73.7833 146.778 73.6193 146.942C73.4593 147.106 73.2513 147.188 72.9953 147.188C72.7393 147.188 72.5293 147.108 72.3653 146.948C72.2013 146.784 72.1193 146.564 72.1193 146.288ZM72.9893 145.73C72.8533 145.73 72.7453 145.778 72.6653 145.874C72.5853 145.966 72.5453 146.104 72.5453 146.288C72.5453 146.468 72.5853 146.606 72.6653 146.702C72.7453 146.794 72.8533 146.84 72.9893 146.84C73.1253 146.84 73.2333 146.794 73.3133 146.702C73.3933 146.606 73.4333 146.468 73.4333 146.288C73.4333 146.104 73.3933 145.966 73.3133 145.874C73.2333 145.778 73.1253 145.73 72.9893 145.73Z" fill="white"/>
<path d="M37.9496 110.991C38.4576 110.583 38.8556 110.249 39.1436 109.989C39.4316 109.725 39.6736 109.451 39.8696 109.167C40.0696 108.879 40.1696 108.597 40.1696 108.321C40.1696 108.061 40.1056 107.857 39.9776 107.709C39.8536 107.557 39.6516 107.481 39.3716 107.481C39.0996 107.481 38.8876 107.567 38.7356 107.739C38.5876 107.907 38.5076 108.133 38.4956 108.417H37.9676C37.9836 107.969 38.1196 107.623 38.3756 107.379C38.6316 107.135 38.9616 107.013 39.3656 107.013C39.7776 107.013 40.1036 107.127 40.3436 107.355C40.5876 107.583 40.7096 107.897 40.7096 108.297C40.7096 108.629 40.6096 108.953 40.4096 109.269C40.2136 109.581 39.9896 109.857 39.7376 110.097C39.4856 110.333 39.1636 110.609 38.7716 110.925H40.8356V111.381H37.9496V110.991ZM41.4667 109.215C41.4667 108.527 41.5787 107.991 41.8027 107.607C42.0267 107.219 42.4187 107.025 42.9787 107.025C43.5347 107.025 43.9247 107.219 44.1487 107.607C44.3727 107.991 44.4847 108.527 44.4847 109.215C44.4847 109.915 44.3727 110.459 44.1487 110.847C43.9247 111.235 43.5347 111.429 42.9787 111.429C42.4187 111.429 42.0267 111.235 41.8027 110.847C41.5787 110.459 41.4667 109.915 41.4667 109.215ZM43.9447 109.215C43.9447 108.867 43.9207 108.573 43.8727 108.333C43.8287 108.089 43.7347 107.893 43.5907 107.745C43.4507 107.597 43.2467 107.523 42.9787 107.523C42.7067 107.523 42.4987 107.597 42.3547 107.745C42.2147 107.893 42.1207 108.089 42.0727 108.333C42.0287 108.573 42.0067 108.867 42.0067 109.215C42.0067 109.575 42.0287 109.877 42.0727 110.121C42.1207 110.365 42.2147 110.561 42.3547 110.709C42.4987 110.857 42.7067 110.931 42.9787 110.931C43.2467 110.931 43.4507 110.857 43.5907 110.709C43.7347 110.561 43.8287 110.365 43.8727 110.121C43.9207 109.877 43.9447 109.575 43.9447 109.215ZM45.1143 108.069C45.1143 107.797 45.1963 107.581 45.3603 107.421C45.5243 107.257 45.7343 107.175 45.9903 107.175C46.2463 107.175 46.4563 107.257 46.6203 107.421C46.7843 107.581 46.8663 107.797 46.8663 108.069C46.8663 108.345 46.7843 108.565 46.6203 108.729C46.4563 108.889 46.2463 108.969 45.9903 108.969C45.7343 108.969 45.5243 108.889 45.3603 108.729C45.1963 108.565 45.1143 108.345 45.1143 108.069ZM48.6183 107.241L46.1883 111.429H45.6483L48.0783 107.241H48.6183ZM45.9903 107.511C45.8543 107.511 45.7463 107.559 45.6663 107.655C45.5903 107.747 45.5523 107.885 45.5523 108.069C45.5523 108.253 45.5903 108.393 45.6663 108.489C45.7463 108.585 45.8543 108.633 45.9903 108.633C46.1263 108.633 46.2343 108.585 46.3143 108.489C46.3943 108.389 46.4343 108.249 46.4343 108.069C46.4343 107.885 46.3943 107.747 46.3143 107.655C46.2343 107.559 46.1263 107.511 45.9903 107.511ZM47.4123 110.601C47.4123 110.325 47.4943 110.107 47.6583 109.947C47.8223 109.783 48.0323 109.701 48.2883 109.701C48.5443 109.701 48.7523 109.783 48.9123 109.947C49.0763 110.107 49.1583 110.325 49.1583 110.601C49.1583 110.873 49.0763 111.091 48.9123 111.255C48.7523 111.419 48.5443 111.501 48.2883 111.501C48.0323 111.501 47.8223 111.421 47.6583 111.261C47.4943 111.097 47.4123 110.877 47.4123 110.601ZM48.2823 110.043C48.1463 110.043 48.0383 110.091 47.9583 110.187C47.8783 110.279 47.8383 110.417 47.8383 110.601C47.8383 110.781 47.8783 110.919 47.9583 111.015C48.0383 111.107 48.1463 111.153 48.2823 111.153C48.4183 111.153 48.5263 111.107 48.6063 111.015C48.6863 110.919 48.7263 110.781 48.7263 110.601C48.7263 110.417 48.6863 110.279 48.6063 110.187C48.5263 110.091 48.4183 110.043 48.2823 110.043Z" fill="white"/>
<path d="M231 39C231.276 39 231.5 38.7761 231.5 38.5C231.5 38.2239 231.276 38 231 38V39ZM21 39H231V38H21V39Z" fill="#EDEDED"/>
<path d="M197.258 79.906C197.258 79.498 197.35 79.132 197.534 78.808C197.718 78.48 197.968 78.224 198.284 78.04C198.604 77.856 198.958 77.764 199.346 77.764C199.802 77.764 200.2 77.874 200.54 78.094C200.88 78.314 201.128 78.626 201.284 79.03H200.63C200.514 78.778 200.346 78.584 200.126 78.448C199.91 78.312 199.65 78.244 199.346 78.244C199.054 78.244 198.792 78.312 198.56 78.448C198.328 78.584 198.146 78.778 198.014 79.03C197.882 79.278 197.816 79.57 197.816 79.906C197.816 80.238 197.882 80.53 198.014 80.782C198.146 81.03 198.328 81.222 198.56 81.358C198.792 81.494 199.054 81.562 199.346 81.562C199.65 81.562 199.91 81.496 200.126 81.364C200.346 81.228 200.514 81.034 200.63 80.782H201.284C201.128 81.182 200.88 81.492 200.54 81.712C200.2 81.928 199.802 82.036 199.346 82.036C198.958 82.036 198.604 81.946 198.284 81.766C197.968 81.582 197.718 81.328 197.534 81.004C197.35 80.68 197.258 80.314 197.258 79.906ZM203.531 82.054C203.223 82.054 202.943 81.984 202.691 81.844C202.443 81.704 202.247 81.506 202.103 81.25C201.963 80.99 201.893 80.69 201.893 80.35C201.893 80.014 201.965 79.718 202.109 79.462C202.257 79.202 202.457 79.004 202.709 78.868C202.961 78.728 203.243 78.658 203.555 78.658C203.867 78.658 204.149 78.728 204.401 78.868C204.653 79.004 204.851 79.2 204.995 79.456C205.143 79.712 205.217 80.01 205.217 80.35C205.217 80.69 205.141 80.99 204.989 81.25C204.841 81.506 204.639 81.704 204.383 81.844C204.127 81.984 203.843 82.054 203.531 82.054ZM203.531 81.574C203.727 81.574 203.911 81.528 204.083 81.436C204.255 81.344 204.393 81.206 204.497 81.022C204.605 80.838 204.659 80.614 204.659 80.35C204.659 80.086 204.607 79.862 204.503 79.678C204.399 79.494 204.263 79.358 204.095 79.27C203.927 79.178 203.745 79.132 203.549 79.132C203.349 79.132 203.165 79.178 202.997 79.27C202.833 79.358 202.701 79.494 202.601 79.678C202.501 79.862 202.451 80.086 202.451 80.35C202.451 80.618 202.499 80.844 202.595 81.028C202.695 81.212 202.827 81.35 202.991 81.442C203.155 81.53 203.335 81.574 203.531 81.574ZM207.537 78.652C207.937 78.652 208.261 78.774 208.509 79.018C208.757 79.258 208.881 79.606 208.881 80.062V82H208.341V80.14C208.341 79.812 208.259 79.562 208.095 79.39C207.931 79.214 207.707 79.126 207.423 79.126C207.135 79.126 206.905 79.216 206.733 79.396C206.565 79.576 206.481 79.838 206.481 80.182V82H205.935V78.712H206.481V79.18C206.589 79.012 206.735 78.882 206.919 78.79C207.107 78.698 207.313 78.652 207.537 78.652ZM210.937 82.054C210.685 82.054 210.459 82.012 210.259 81.928C210.059 81.84 209.901 81.72 209.785 81.568C209.669 81.412 209.605 81.234 209.593 81.034H210.157C210.173 81.198 210.249 81.332 210.385 81.436C210.525 81.54 210.707 81.592 210.931 81.592C211.139 81.592 211.303 81.546 211.423 81.454C211.543 81.362 211.603 81.246 211.603 81.106C211.603 80.962 211.539 80.856 211.411 80.788C211.283 80.716 211.085 80.646 210.817 80.578C210.573 80.514 210.373 80.45 210.217 80.386C210.065 80.318 209.933 80.22 209.821 80.092C209.713 79.96 209.659 79.788 209.659 79.576C209.659 79.408 209.709 79.254 209.809 79.114C209.909 78.974 210.051 78.864 210.235 78.784C210.419 78.7 210.629 78.658 210.865 78.658C211.229 78.658 211.523 78.75 211.747 78.934C211.971 79.118 212.091 79.37 212.107 79.69H211.561C211.549 79.518 211.479 79.38 211.351 79.276C211.227 79.172 211.059 79.12 210.847 79.12C210.651 79.12 210.495 79.162 210.379 79.246C210.263 79.33 210.205 79.44 210.205 79.576C210.205 79.684 210.239 79.774 210.307 79.846C210.379 79.914 210.467 79.97 210.571 80.014C210.679 80.054 210.827 80.1 211.015 80.152C211.251 80.216 211.443 80.28 211.591 80.344C211.739 80.404 211.865 80.496 211.969 80.62C212.077 80.744 212.133 80.906 212.137 81.106C212.137 81.286 212.087 81.448 211.987 81.592C211.887 81.736 211.745 81.85 211.561 81.934C211.381 82.014 211.173 82.054 210.937 82.054ZM215.823 78.712V82H215.277V81.514C215.173 81.682 215.027 81.814 214.839 81.91C214.655 82.002 214.451 82.048 214.227 82.048C213.971 82.048 213.741 81.996 213.537 81.892C213.333 81.784 213.171 81.624 213.051 81.412C212.935 81.2 212.877 80.942 212.877 80.638V78.712H213.417V80.566C213.417 80.89 213.499 81.14 213.663 81.316C213.827 81.488 214.051 81.574 214.335 81.574C214.627 81.574 214.857 81.484 215.025 81.304C215.193 81.124 215.277 80.862 215.277 80.518V78.712H215.823ZM217.291 77.56V82H216.745V77.56H217.291ZM218.888 79.162V81.1C218.888 81.26 218.922 81.374 218.99 81.442C219.058 81.506 219.176 81.538 219.344 81.538H219.746V82H219.254C218.95 82 218.722 81.93 218.57 81.79C218.418 81.65 218.342 81.42 218.342 81.1V79.162H217.916V78.712H218.342V77.884H218.888V78.712H219.746V79.162H218.888ZM220.689 78.178C220.585 78.178 220.497 78.142 220.425 78.07C220.353 77.998 220.317 77.91 220.317 77.806C220.317 77.702 220.353 77.614 220.425 77.542C220.497 77.47 220.585 77.434 220.689 77.434C220.789 77.434 220.873 77.47 220.941 77.542C221.013 77.614 221.049 77.702 221.049 77.806C221.049 77.91 221.013 77.998 220.941 78.07C220.873 78.142 220.789 78.178 220.689 78.178ZM220.953 78.712V82H220.407V78.712H220.953ZM223.486 78.652C223.886 78.652 224.21 78.774 224.458 79.018C224.706 79.258 224.83 79.606 224.83 80.062V82H224.29V80.14C224.29 79.812 224.208 79.562 224.044 79.39C223.88 79.214 223.656 79.126 223.372 79.126C223.084 79.126 222.854 79.216 222.682 79.396C222.514 79.576 222.43 79.838 222.43 80.182V82H221.884V78.712H222.43V79.18C222.538 79.012 222.684 78.882 222.868 78.79C223.056 78.698 223.262 78.652 223.486 78.652ZM227.078 78.658C227.362 78.658 227.61 78.72 227.822 78.844C228.038 78.968 228.198 79.124 228.302 79.312V78.712H228.854V82.072C228.854 82.372 228.79 82.638 228.662 82.87C228.534 83.106 228.35 83.29 228.11 83.422C227.874 83.554 227.598 83.62 227.282 83.62C226.85 83.62 226.49 83.518 226.202 83.314C225.914 83.11 225.744 82.832 225.692 82.48H226.232C226.292 82.68 226.416 82.84 226.604 82.96C226.792 83.084 227.018 83.146 227.282 83.146C227.582 83.146 227.826 83.052 228.014 82.864C228.206 82.676 228.302 82.412 228.302 82.072V81.382C228.194 81.574 228.034 81.734 227.822 81.862C227.61 81.99 227.362 82.054 227.078 82.054C226.786 82.054 226.52 81.982 226.28 81.838C226.044 81.694 225.858 81.492 225.722 81.232C225.586 80.972 225.518 80.676 225.518 80.344C225.518 80.008 225.586 79.714 225.722 79.462C225.858 79.206 226.044 79.008 226.28 78.868C226.52 78.728 226.786 78.658 227.078 78.658ZM228.302 80.35C228.302 80.102 228.252 79.886 228.152 79.702C228.052 79.518 227.916 79.378 227.744 79.282C227.576 79.182 227.39 79.132 227.186 79.132C226.982 79.132 226.796 79.18 226.628 79.276C226.46 79.372 226.326 79.512 226.226 79.696C226.126 79.88 226.076 80.096 226.076 80.344C226.076 80.596 226.126 80.816 226.226 81.004C226.326 81.188 226.46 81.33 226.628 81.43C226.796 81.526 226.982 81.574 227.186 81.574C227.39 81.574 227.576 81.526 227.744 81.43C227.916 81.33 228.052 81.188 228.152 81.004C228.252 80.816 228.302 80.598 228.302 80.35ZM198.788 97.042C198.512 97.042 198.264 96.994 198.044 96.898C197.828 96.798 197.658 96.662 197.534 96.49C197.41 96.314 197.346 96.112 197.342 95.884H197.924C197.944 96.08 198.024 96.246 198.164 96.382C198.308 96.514 198.516 96.58 198.788 96.58C199.048 96.58 199.252 96.516 199.4 96.388C199.552 96.256 199.628 96.088 199.628 95.884C199.628 95.724 199.584 95.594 199.496 95.494C199.408 95.394 199.298 95.318 199.166 95.266C199.034 95.214 198.856 95.158 198.632 95.098C198.356 95.026 198.134 94.954 197.966 94.882C197.802 94.81 197.66 94.698 197.54 94.546C197.424 94.39 197.366 94.182 197.366 93.922C197.366 93.694 197.424 93.492 197.54 93.316C197.656 93.14 197.818 93.004 198.026 92.908C198.238 92.812 198.48 92.764 198.752 92.764C199.144 92.764 199.464 92.862 199.712 93.058C199.964 93.254 200.106 93.514 200.138 93.838H199.538C199.518 93.678 199.434 93.538 199.286 93.418C199.138 93.294 198.942 93.232 198.698 93.232C198.47 93.232 198.284 93.292 198.14 93.412C197.996 93.528 197.924 93.692 197.924 93.904C197.924 94.056 197.966 94.18 198.05 94.276C198.138 94.372 198.244 94.446 198.368 94.498C198.496 94.546 198.674 94.602 198.902 94.666C199.178 94.742 199.4 94.818 199.568 94.894C199.736 94.966 199.88 95.08 200 95.236C200.12 95.388 200.18 95.596 200.18 95.86C200.18 96.064 200.126 96.256 200.018 96.436C199.91 96.616 199.75 96.762 199.538 96.874C199.326 96.986 199.076 97.042 198.788 97.042ZM203.899 93.712V97H203.353V96.514C203.249 96.682 203.103 96.814 202.915 96.91C202.731 97.002 202.527 97.048 202.303 97.048C202.047 97.048 201.817 96.996 201.613 96.892C201.409 96.784 201.247 96.624 201.127 96.412C201.011 96.2 200.953 95.942 200.953 95.638V93.712H201.493V95.566C201.493 95.89 201.575 96.14 201.739 96.316C201.903 96.488 202.127 96.574 202.411 96.574C202.703 96.574 202.933 96.484 203.101 96.304C203.269 96.124 203.353 95.862 203.353 95.518V93.712H203.899ZM205.367 94.318C205.475 94.13 205.635 93.974 205.847 93.85C206.063 93.722 206.313 93.658 206.597 93.658C206.889 93.658 207.153 93.728 207.389 93.868C207.629 94.008 207.817 94.206 207.953 94.462C208.089 94.714 208.157 95.008 208.157 95.344C208.157 95.676 208.089 95.972 207.953 96.232C207.817 96.492 207.629 96.694 207.389 96.838C207.153 96.982 206.889 97.054 206.597 97.054C206.317 97.054 206.069 96.992 205.853 96.868C205.641 96.74 205.479 96.582 205.367 96.394V98.56H204.821V93.712H205.367V94.318ZM207.599 95.344C207.599 95.096 207.549 94.88 207.449 94.696C207.349 94.512 207.213 94.372 207.041 94.276C206.873 94.18 206.687 94.132 206.483 94.132C206.283 94.132 206.097 94.182 205.925 94.282C205.757 94.378 205.621 94.52 205.517 94.708C205.417 94.892 205.367 95.106 205.367 95.35C205.367 95.598 205.417 95.816 205.517 96.004C205.621 96.188 205.757 96.33 205.925 96.43C206.097 96.526 206.283 96.574 206.483 96.574C206.687 96.574 206.873 96.526 207.041 96.43C207.213 96.33 207.349 96.188 207.449 96.004C207.549 95.816 207.599 95.596 207.599 95.344ZM209.422 94.318C209.53 94.13 209.69 93.974 209.902 93.85C210.118 93.722 210.368 93.658 210.652 93.658C210.944 93.658 211.208 93.728 211.444 93.868C211.684 94.008 211.872 94.206 212.008 94.462C212.144 94.714 212.212 95.008 212.212 95.344C212.212 95.676 212.144 95.972 212.008 96.232C211.872 96.492 211.684 96.694 211.444 96.838C211.208 96.982 210.944 97.054 210.652 97.054C210.372 97.054 210.124 96.992 209.908 96.868C209.696 96.74 209.534 96.582 209.422 96.394V98.56H208.876V93.712H209.422V94.318ZM211.654 95.344C211.654 95.096 211.604 94.88 211.504 94.696C211.404 94.512 211.268 94.372 211.096 94.276C210.928 94.18 210.742 94.132 210.538 94.132C210.338 94.132 210.152 94.182 209.98 94.282C209.812 94.378 209.676 94.52 209.572 94.708C209.472 94.892 209.422 95.106 209.422 95.35C209.422 95.598 209.472 95.816 209.572 96.004C209.676 96.188 209.812 96.33 209.98 96.43C210.152 96.526 210.338 96.574 210.538 96.574C210.742 96.574 210.928 96.526 211.096 96.43C211.268 96.33 211.404 96.188 211.504 96.004C211.604 95.816 211.654 95.596 211.654 95.344ZM214.365 97.054C214.057 97.054 213.777 96.984 213.525 96.844C213.277 96.704 213.081 96.506 212.937 96.25C212.797 95.99 212.727 95.69 212.727 95.35C212.727 95.014 212.799 94.718 212.943 94.462C213.091 94.202 213.291 94.004 213.543 93.868C213.795 93.728 214.077 93.658 214.389 93.658C214.701 93.658 214.983 93.728 215.235 93.868C215.487 94.004 215.685 94.2 215.829 94.456C215.977 94.712 216.051 95.01 216.051 95.35C216.051 95.69 215.975 95.99 215.823 96.25C215.675 96.506 215.473 96.704 215.217 96.844C214.961 96.984 214.677 97.054 214.365 97.054ZM214.365 96.574C214.561 96.574 214.745 96.528 214.917 96.436C215.089 96.344 215.227 96.206 215.331 96.022C215.439 95.838 215.493 95.614 215.493 95.35C215.493 95.086 215.441 94.862 215.337 94.678C215.233 94.494 215.097 94.358 214.929 94.27C214.761 94.178 214.579 94.132 214.383 94.132C214.183 94.132 213.999 94.178 213.831 94.27C213.667 94.358 213.535 94.494 213.435 94.678C213.335 94.862 213.285 95.086 213.285 95.35C213.285 95.618 213.333 95.844 213.429 96.028C213.529 96.212 213.661 96.35 213.825 96.442C213.989 96.53 214.169 96.574 214.365 96.574ZM217.315 94.246C217.411 94.058 217.547 93.912 217.723 93.808C217.903 93.704 218.121 93.652 218.377 93.652V94.216H218.233C217.621 94.216 217.315 94.548 217.315 95.212V97H216.769V93.712H217.315V94.246ZM219.673 94.162V96.1C219.673 96.26 219.707 96.374 219.775 96.442C219.843 96.506 219.961 96.538 220.129 96.538H220.531V97H220.039C219.735 97 219.507 96.93 219.355 96.79C219.203 96.65 219.127 96.42 219.127 96.1V94.162H218.701V93.712H219.127V92.884H219.673V93.712H220.531V94.162H219.673ZM198.788 112.042C198.512 112.042 198.264 111.994 198.044 111.898C197.828 111.798 197.658 111.662 197.534 111.49C197.41 111.314 197.346 111.112 197.342 110.884H197.924C197.944 111.08 198.024 111.246 198.164 111.382C198.308 111.514 198.516 111.58 198.788 111.58C199.048 111.58 199.252 111.516 199.4 111.388C199.552 111.256 199.628 111.088 199.628 110.884C199.628 110.724 199.584 110.594 199.496 110.494C199.408 110.394 199.298 110.318 199.166 110.266C199.034 110.214 198.856 110.158 198.632 110.098C198.356 110.026 198.134 109.954 197.966 109.882C197.802 109.81 197.66 109.698 197.54 109.546C197.424 109.39 197.366 109.182 197.366 108.922C197.366 108.694 197.424 108.492 197.54 108.316C197.656 108.14 197.818 108.004 198.026 107.908C198.238 107.812 198.48 107.764 198.752 107.764C199.144 107.764 199.464 107.862 199.712 108.058C199.964 108.254 200.106 108.514 200.138 108.838H199.538C199.518 108.678 199.434 108.538 199.286 108.418C199.138 108.294 198.942 108.232 198.698 108.232C198.47 108.232 198.284 108.292 198.14 108.412C197.996 108.528 197.924 108.692 197.924 108.904C197.924 109.056 197.966 109.18 198.05 109.276C198.138 109.372 198.244 109.446 198.368 109.498C198.496 109.546 198.674 109.602 198.902 109.666C199.178 109.742 199.4 109.818 199.568 109.894C199.736 109.966 199.88 110.08 200 110.236C200.12 110.388 200.18 110.596 200.18 110.86C200.18 111.064 200.126 111.256 200.018 111.436C199.91 111.616 199.75 111.762 199.538 111.874C199.326 111.986 199.076 112.042 198.788 112.042ZM202.417 112.054C202.109 112.054 201.829 111.984 201.577 111.844C201.329 111.704 201.133 111.506 200.989 111.25C200.849 110.99 200.779 110.69 200.779 110.35C200.779 110.014 200.851 109.718 200.995 109.462C201.143 109.202 201.343 109.004 201.595 108.868C201.847 108.728 202.129 108.658 202.441 108.658C202.753 108.658 203.035 108.728 203.287 108.868C203.539 109.004 203.737 109.2 203.881 109.456C204.029 109.712 204.103 110.01 204.103 110.35C204.103 110.69 204.027 110.99 203.875 111.25C203.727 111.506 203.525 111.704 203.269 111.844C203.013 111.984 202.729 112.054 202.417 112.054ZM202.417 111.574C202.613 111.574 202.797 111.528 202.969 111.436C203.141 111.344 203.279 111.206 203.383 111.022C203.491 110.838 203.545 110.614 203.545 110.35C203.545 110.086 203.493 109.862 203.389 109.678C203.285 109.494 203.149 109.358 202.981 109.27C202.813 109.178 202.631 109.132 202.435 109.132C202.235 109.132 202.051 109.178 201.883 109.27C201.719 109.358 201.587 109.494 201.487 109.678C201.387 109.862 201.337 110.086 201.337 110.35C201.337 110.618 201.385 110.844 201.481 111.028C201.581 111.212 201.713 111.35 201.877 111.442C202.041 111.53 202.221 111.574 202.417 111.574ZM206.159 109.162H205.469V112H204.923V109.162H204.497V108.712H204.923V108.478C204.923 108.11 205.017 107.842 205.205 107.674C205.397 107.502 205.703 107.416 206.123 107.416V107.872C205.883 107.872 205.713 107.92 205.613 108.016C205.517 108.108 205.469 108.262 205.469 108.478V108.712H206.159V109.162ZM207.462 109.162V111.1C207.462 111.26 207.496 111.374 207.564 111.442C207.632 111.506 207.75 111.538 207.918 111.538H208.32V112H207.828C207.524 112 207.296 111.93 207.144 111.79C206.992 111.65 206.916 111.42 206.916 111.1V109.162H206.49V108.712H206.916V107.884H207.462V108.712H208.32V109.162H207.462ZM213.362 108.712L212.336 112H211.772L210.98 109.39L210.188 112H209.624L208.592 108.712H209.15L209.906 111.472L210.722 108.712H211.28L212.078 111.478L212.822 108.712H213.362ZM213.699 110.344C213.699 110.008 213.767 109.714 213.903 109.462C214.039 109.206 214.225 109.008 214.461 108.868C214.701 108.728 214.967 108.658 215.259 108.658C215.547 108.658 215.797 108.72 216.009 108.844C216.221 108.968 216.379 109.124 216.483 109.312V108.712H217.035V112H216.483V111.388C216.375 111.58 216.213 111.74 215.997 111.868C215.785 111.992 215.537 112.054 215.253 112.054C214.961 112.054 214.697 111.982 214.461 111.838C214.225 111.694 214.039 111.492 213.903 111.232C213.767 110.972 213.699 110.676 213.699 110.344ZM216.483 110.35C216.483 110.102 216.433 109.886 216.333 109.702C216.233 109.518 216.097 109.378 215.925 109.282C215.757 109.182 215.571 109.132 215.367 109.132C215.163 109.132 214.977 109.18 214.809 109.276C214.641 109.372 214.507 109.512 214.407 109.696C214.307 109.88 214.257 110.096 214.257 110.344C214.257 110.596 214.307 110.816 214.407 111.004C214.507 111.188 214.641 111.33 214.809 111.43C214.977 111.526 215.163 111.574 215.367 111.574C215.571 111.574 215.757 111.526 215.925 111.43C216.097 111.33 216.233 111.188 216.333 111.004C216.433 110.816 216.483 110.598 216.483 110.35ZM218.504 109.246C218.6 109.058 218.736 108.912 218.912 108.808C219.092 108.704 219.31 108.652 219.566 108.652V109.216H219.422C218.81 109.216 218.504 109.548 218.504 110.212V112H217.958V108.712H218.504V109.246ZM223.196 110.23C223.196 110.334 223.19 110.444 223.178 110.56H220.55C220.57 110.884 220.68 111.138 220.88 111.322C221.084 111.502 221.33 111.592 221.618 111.592C221.854 111.592 222.05 111.538 222.206 111.43C222.366 111.318 222.478 111.17 222.542 110.986H223.13C223.042 111.302 222.866 111.56 222.602 111.76C222.338 111.956 222.01 112.054 221.618 112.054C221.306 112.054 221.026 111.984 220.778 111.844C220.534 111.704 220.342 111.506 220.202 111.25C220.062 110.99 219.992 110.69 219.992 110.35C219.992 110.01 220.06 109.712 220.196 109.456C220.332 109.2 220.522 109.004 220.766 108.868C221.014 108.728 221.298 108.658 221.618 108.658C221.93 108.658 222.206 108.726 222.446 108.862C222.686 108.998 222.87 109.186 222.998 109.426C223.13 109.662 223.196 109.93 223.196 110.23ZM222.632 110.116C222.632 109.908 222.586 109.73 222.494 109.582C222.402 109.43 222.276 109.316 222.116 109.24C221.96 109.16 221.786 109.12 221.594 109.12C221.318 109.12 221.082 109.208 220.886 109.384C220.694 109.56 220.584 109.804 220.556 110.116H222.632ZM199.934 126.07H198.11L197.774 127H197.198L198.71 122.842H199.34L200.846 127H200.27L199.934 126.07ZM199.778 125.626L199.022 123.514L198.266 125.626H199.778ZM201.301 125.344C201.301 125.008 201.369 124.714 201.505 124.462C201.641 124.206 201.827 124.008 202.063 123.868C202.303 123.728 202.571 123.658 202.867 123.658C203.123 123.658 203.361 123.718 203.581 123.838C203.801 123.954 203.969 124.108 204.085 124.3V122.56H204.637V127H204.085V126.382C203.977 126.578 203.817 126.74 203.605 126.868C203.393 126.992 203.145 127.054 202.861 127.054C202.569 127.054 202.303 126.982 202.063 126.838C201.827 126.694 201.641 126.492 201.505 126.232C201.369 125.972 201.301 125.676 201.301 125.344ZM204.085 125.35C204.085 125.102 204.035 124.886 203.935 124.702C203.835 124.518 203.699 124.378 203.527 124.282C203.359 124.182 203.173 124.132 202.969 124.132C202.765 124.132 202.579 124.18 202.411 124.276C202.243 124.372 202.109 124.512 202.009 124.696C201.909 124.88 201.859 125.096 201.859 125.344C201.859 125.596 201.909 125.816 202.009 126.004C202.109 126.188 202.243 126.33 202.411 126.43C202.579 126.526 202.765 126.574 202.969 126.574C203.173 126.574 203.359 126.526 203.527 126.43C203.699 126.33 203.835 126.188 203.935 126.004C204.035 125.816 204.085 125.598 204.085 125.35ZM209.514 123.652C209.77 123.652 209.998 123.706 210.198 123.814C210.398 123.918 210.556 124.076 210.672 124.288C210.788 124.5 210.846 124.758 210.846 125.062V127H210.306V125.14C210.306 124.812 210.224 124.562 210.06 124.39C209.9 124.214 209.682 124.126 209.406 124.126C209.122 124.126 208.896 124.218 208.728 124.402C208.56 124.582 208.476 124.844 208.476 125.188V127H207.936V125.14C207.936 124.812 207.854 124.562 207.69 124.39C207.53 124.214 207.312 124.126 207.036 124.126C206.752 124.126 206.526 124.218 206.358 124.402C206.19 124.582 206.106 124.844 206.106 125.188V127H205.56V123.712H206.106V124.186C206.214 124.014 206.358 123.882 206.538 123.79C206.722 123.698 206.924 123.652 207.144 123.652C207.42 123.652 207.664 123.714 207.876 123.838C208.088 123.962 208.246 124.144 208.35 124.384C208.442 124.152 208.594 123.972 208.806 123.844C209.018 123.716 209.254 123.652 209.514 123.652ZM212.023 123.178C211.919 123.178 211.831 123.142 211.759 123.07C211.687 122.998 211.651 122.91 211.651 122.806C211.651 122.702 211.687 122.614 211.759 122.542C211.831 122.47 211.919 122.434 212.023 122.434C212.123 122.434 212.207 122.47 212.275 122.542C212.347 122.614 212.383 122.702 212.383 122.806C212.383 122.91 212.347 122.998 212.275 123.07C212.207 123.142 212.123 123.178 212.023 123.178ZM212.287 123.712V127H211.741V123.712H212.287ZM214.82 123.652C215.22 123.652 215.544 123.774 215.792 124.018C216.04 124.258 216.164 124.606 216.164 125.062V127H215.624V125.14C215.624 124.812 215.542 124.562 215.378 124.39C215.214 124.214 214.99 124.126 214.706 124.126C214.418 124.126 214.188 124.216 214.016 124.396C213.848 124.576 213.764 124.838 213.764 125.182V127H213.218V123.712H213.764V124.18C213.872 124.012 214.018 123.882 214.202 123.79C214.39 123.698 214.596 123.652 214.82 123.652ZM199.358 142.042C198.97 142.042 198.616 141.952 198.296 141.772C197.976 141.588 197.722 141.334 197.534 141.01C197.35 140.682 197.258 140.314 197.258 139.906C197.258 139.498 197.35 139.132 197.534 138.808C197.722 138.48 197.976 138.226 198.296 138.046C198.616 137.862 198.97 137.77 199.358 137.77C199.75 137.77 200.106 137.862 200.426 138.046C200.746 138.226 200.998 138.478 201.182 138.802C201.366 139.126 201.458 139.494 201.458 139.906C201.458 140.318 201.366 140.686 201.182 141.01C200.998 141.334 200.746 141.588 200.426 141.772C200.106 141.952 199.75 142.042 199.358 142.042ZM199.358 141.568C199.65 141.568 199.912 141.5 200.144 141.364C200.38 141.228 200.564 141.034 200.696 140.782C200.832 140.53 200.9 140.238 200.9 139.906C200.9 139.57 200.832 139.278 200.696 139.03C200.564 138.778 200.382 138.584 200.15 138.448C199.918 138.312 199.654 138.244 199.358 138.244C199.062 138.244 198.798 138.312 198.566 138.448C198.334 138.584 198.15 138.778 198.014 139.03C197.882 139.278 197.816 139.57 197.816 139.906C197.816 140.238 197.882 140.53 198.014 140.782C198.15 141.034 198.334 141.228 198.566 141.364C198.802 141.5 199.066 141.568 199.358 141.568ZM202.845 139.162V141.1C202.845 141.26 202.879 141.374 202.947 141.442C203.015 141.506 203.133 141.538 203.301 141.538H203.703V142H203.211C202.907 142 202.679 141.93 202.527 141.79C202.375 141.65 202.299 141.42 202.299 141.1V139.162H201.873V138.712H202.299V137.884H202.845V138.712H203.703V139.162H202.845ZM205.996 138.652C206.244 138.652 206.468 138.706 206.668 138.814C206.868 138.918 207.024 139.076 207.136 139.288C207.252 139.5 207.31 139.758 207.31 140.062V142H206.77V140.14C206.77 139.812 206.688 139.562 206.524 139.39C206.36 139.214 206.136 139.126 205.852 139.126C205.564 139.126 205.334 139.216 205.162 139.396C204.994 139.576 204.91 139.838 204.91 140.182V142H204.364V137.56H204.91V139.18C205.018 139.012 205.166 138.882 205.354 138.79C205.546 138.698 205.76 138.652 205.996 138.652ZM211.202 140.23C211.202 140.334 211.196 140.444 211.184 140.56H208.556C208.576 140.884 208.686 141.138 208.886 141.322C209.09 141.502 209.336 141.592 209.624 141.592C209.86 141.592 210.056 141.538 210.212 141.43C210.372 141.318 210.484 141.17 210.548 140.986H211.136C211.048 141.302 210.872 141.56 210.608 141.76C210.344 141.956 210.016 142.054 209.624 142.054C209.312 142.054 209.032 141.984 208.784 141.844C208.54 141.704 208.348 141.506 208.208 141.25C208.068 140.99 207.998 140.69 207.998 140.35C207.998 140.01 208.066 139.712 208.202 139.456C208.338 139.2 208.528 139.004 208.772 138.868C209.02 138.728 209.304 138.658 209.624 138.658C209.936 138.658 210.212 138.726 210.452 138.862C210.692 138.998 210.876 139.186 211.004 139.426C211.136 139.662 211.202 139.93 211.202 140.23ZM210.638 140.116C210.638 139.908 210.592 139.73 210.5 139.582C210.408 139.43 210.282 139.316 210.122 139.24C209.966 139.16 209.792 139.12 209.6 139.12C209.324 139.12 209.088 139.208 208.892 139.384C208.7 139.56 208.59 139.804 208.562 140.116H210.638ZM212.469 139.246C212.565 139.058 212.701 138.912 212.877 138.808C213.057 138.704 213.275 138.652 213.531 138.652V139.216H213.387C212.775 139.216 212.469 139.548 212.469 140.212V142H211.923V138.712H212.469V139.246Z" fill="#848199"/>
<rect x="186" y="77" width="6" height="6" fill="#20AFDA"/>
<rect x="186" y="92" width="6" height="6" fill="#402C7F"/>
<rect x="186" y="107" width="6" height="6" fill="#F94144"/>
<rect x="186" y="122" width="6" height="6" fill="#2EA049"/>
<rect x="186" y="137" width="6" height="6" fill="#F9C74F"/>
</svg>
