<svg width="100" height="100" viewBox="0 0 100 100" fill="none" xmlns="http://www.w3.org/2000/svg">
<path d="M88.4396 62.3209V74.5979C88.4399 75.6777 88.2274 76.7469 87.8144 77.7446C87.4014 78.7422 86.7959 79.6487 86.0325 80.4123C85.2691 81.1759 84.3627 81.7816 83.3652 82.1949C82.3677 82.6082 81.2985 82.8209 80.2187 82.8209H17.5958C16.5161 82.8209 15.4469 82.6082 14.4494 82.1949C13.4518 81.7816 12.5455 81.1759 11.7821 80.4123C11.0187 79.6487 10.4132 78.7422 10.0002 77.7446C9.58716 76.7469 9.37473 75.6777 9.375 74.5979V25.4021C9.37473 24.3222 9.58723 23.2528 10.0004 22.255C10.4135 21.2572 11.0192 20.3506 11.7828 19.587C12.5464 18.8234 13.453 18.2177 14.4508 17.8046C15.4486 17.3914 16.518 17.1789 17.5979 17.1792H80.2187C81.2985 17.1792 82.3677 17.3919 83.3652 17.8052C84.3627 18.2184 85.2691 18.8242 86.0325 19.5878C86.7959 20.3514 87.4014 21.2579 87.8144 22.2555C88.2274 23.2531 88.4399 24.3224 88.4396 25.4021V38.1063" stroke="#4244F5" stroke-width="4.16667" stroke-linecap="round" stroke-linejoin="round"/>
<path d="M88.1121 62.3437H66.51C64.917 62.3442 63.3396 62.0309 61.8677 61.4215C60.3959 60.8122 59.0586 59.9187 57.9322 58.7923C56.8058 57.6659 55.9124 56.3286 55.303 54.8568C54.6937 53.385 54.3803 51.8075 54.3809 50.2145C54.38 48.6213 54.6932 47.0436 55.3024 45.5716C55.9117 44.0995 56.805 42.7619 57.9315 41.6353C59.0579 40.5087 60.3953 39.6151 61.8673 39.0056C63.3392 38.3961 64.9169 38.0827 66.51 38.0833H88.1142C89.4996 38.0833 90.6246 39.2083 90.6246 40.5958V59.8332C90.6246 61.2187 89.4996 62.3437 88.1121 62.3437Z" stroke="#4244F5" stroke-width="4.16667" stroke-linecap="round" stroke-linejoin="round"/>
<path d="M67.6208 55.9918C70.7331 55.9918 73.2562 53.4687 73.2562 50.3564C73.2562 47.244 70.7331 44.7209 67.6208 44.7209C64.5084 44.7209 61.9854 47.244 61.9854 50.3564C61.9854 53.4687 64.5084 55.9918 67.6208 55.9918Z" stroke="#4244F5" stroke-width="4.16667" stroke-linecap="round" stroke-linejoin="round"/>
</svg>
