<svg width="100" height="100" viewBox="0 0 100 100" fill="none" xmlns="http://www.w3.org/2000/svg">
<path d="M17.1408 84.0094C18.6441 84.0094 19.8627 83.1783 19.8627 82.1531C19.8627 81.1279 18.6441 80.2969 17.1408 80.2969C15.6376 80.2969 14.4189 81.1279 14.4189 82.1531C14.4189 83.1783 15.6376 84.0094 17.1408 84.0094Z" fill="#4244F5"/>
<path d="M96.875 72.9203L95.8531 72.3203C95.775 72.275 87.9672 67.6422 86.0266 62.0203L85.5938 60.775L84.7938 61.8203C84.7688 61.8531 83.6594 63.225 80.5547 64.8344C78.2562 51.7516 70.4375 36.1328 60.1625 29.4734C63.1 29.7109 66.0469 29.4672 68.8906 28.4328C70.6031 27.8109 69.8641 25.0203 68.1359 25.6516C65.8047 26.5 63.4687 26.7312 61.1375 26.6125C66.8609 21.3672 71.3547 13.3281 71.3547 7.45C71.3547 6.0375 71.3547 3.40781 69.2609 3.40781C68.4203 3.40781 67.7406 3.93281 66.8016 4.65781C65.3609 5.76875 63.1859 7.45 59.9906 7.45C58.7734 7.45 56.5453 6.16563 54.7547 5.13438C52.5906 3.88906 51.2078 3.125 50.0453 3.125C48.1203 3.125 45.2906 4.68125 42.7938 6.05469C41.7781 6.6125 40.3891 7.37813 40.1016 7.45156C36.4828 7.45156 34.3812 5.78281 32.9875 4.67812C32.175 4.03125 31.5859 3.5625 30.8 3.5625C28.7406 3.5625 28.7406 6.03281 28.7406 8.89375C28.7406 14.4156 32.9469 21.7047 38.4547 26.6031C34.9844 26.8516 31.5625 27.9 29.1578 30.2297C27.8297 31.5141 29.8422 33.5516 31.1656 32.2703C33.1641 30.3328 35.7844 29.5031 38.5875 29.3422C38.6672 29.6281 38.7641 29.9094 38.8828 30.1859C27.1391 38.625 18.7969 58.6641 18.7969 72.1922C18.7969 73.5266 18.9 74.7344 19.0594 75.8719C16.0312 74.5266 14.9266 73.3469 14.9047 73.3203L14.0984 72.3906L13.7016 73.5625C11.9469 78.725 4.31875 83.2031 4.24219 83.2484L3.125 83.8969L4.26094 84.5109C4.65937 84.7266 5.05469 84.9156 5.45312 85.1203L4.73438 85.6188L5.11406 90.3687L34.8844 96.875L46.1719 89.6547C47.3109 89.6609 48.4641 89.6641 49.6375 89.6641L62.8313 96.875L92.6578 87.5V82.4859L91.8688 82.0125C92.2625 81.7625 92.6562 81.5078 93.0484 81.2453L94.0938 80.5469L93.8641 80.4344L95.1937 80.0703L95.4188 74.8578L94.65 74.3125C95.0594 74.0672 95.4672 73.8172 95.8766 73.5578L96.875 72.9203ZM31.5828 8.89375C31.5828 8.2 31.5922 7.65937 31.6063 7.23906C31.8453 7.42656 32.1234 7.63125 32.4203 7.84219C33.3313 10.0234 35.0547 13.1641 37.9766 15.1422C41.5266 17.5484 41.0547 14.7828 42.9484 12.2578C44.8422 9.73437 46.1234 8.4125 49.2953 14.9031C50.6781 17.7328 52.9828 9.825 55.1734 8.67031C55.7531 8.98594 56.3313 9.27969 56.8984 9.52969C60.8266 15.9172 62.6469 13.925 66.1359 8.61562C67.0953 8.05312 67.8828 7.45 68.5094 6.96719C68.5125 7.1125 68.5156 7.27344 68.5156 7.45312C68.5156 12.4688 64.4172 19.6625 59.3984 24.3547C59.1615 23.7525 58.8221 23.1958 58.3953 22.7094C56.3688 20.4141 53.2016 22.9594 51.7 24.6297C49.0359 23.7734 44.6953 21.4156 41.8672 22.7656C41.1628 23.0924 40.5159 23.5308 39.9516 24.0641C35.3266 19.8484 31.5828 13.7625 31.5828 8.89375ZM56.9016 26.0406C56.201 25.8921 55.5044 25.7254 54.8125 25.5406C55.6844 24.7891 56.4844 24.5266 56.8203 25.6438C56.8563 25.7656 56.8781 25.9047 56.9016 26.0406ZM45.0266 27.0109C44.5094 26.9125 43.9781 26.8234 43.4312 26.7531C43.0166 26.4932 42.6106 26.2196 42.2141 25.9328C43.6422 24.975 46.1047 25.4844 48.4578 26.2828C47.2969 26.4 46.1516 26.6531 45.0266 27.0109ZM45.7359 31.1359C44.8609 31.3547 43.9078 31.2672 43.0844 30.9391C43.4188 30.7625 43.7562 30.6094 44.0938 30.4547C44.6406 30.7187 45.1875 30.9391 45.7359 31.1359ZM16.8344 88.0922C13.1076 87.0129 9.49149 85.5831 6.03437 83.8219C8.15469 82.4281 12.7734 79.0578 14.6516 75.0078C15.9391 76.0188 18.9109 77.8625 24.6984 79.2781C24.6 79.4375 24.4797 79.6078 24.3641 79.775C19.4234 78.4812 16.6141 76.8453 16.5688 76.8172L15.8875 76.4109L15.5609 77.1406C15.1312 78.0969 14.1234 78.2406 13.5625 78.2406C13.4062 78.2406 13.3016 78.2297 13.2875 78.2281L12.7297 78.1469L12.5266 78.6813C12.1109 79.7719 10.4047 81.1969 9.77969 81.6547L8.73594 82.4203L9.92969 82.9094C10.3734 83.0906 10.4937 83.2578 10.5 83.3016C10.5156 83.4094 10.3266 83.6937 10.125 83.8578L9.21562 84.5906L10.2734 85.0797C12.4406 86.0797 14.8953 86.9078 17.35 87.5906C17.1547 87.7828 16.9859 87.9469 16.8344 88.0922ZM29.4344 82.2703C31.6187 82.5766 34.0391 82.7703 36.6828 82.7703H36.6844C37.2344 82.7703 37.7922 82.7609 38.3609 82.7438C38.3988 82.8616 38.453 82.9737 38.5219 83.0766C38.6609 83.2875 38.8484 83.4625 39.0859 83.5984L35.0984 87.0062C35.0224 87.003 34.9464 87.0014 34.8703 87.0016C33.0938 87.0016 31.7687 87.6547 31.1328 88.8172C28.7234 88.5098 26.3251 88.1206 23.9422 87.65C25.8577 85.9454 27.6905 84.1502 29.4344 82.2703ZM11.7016 84.1406C11.8578 83.8453 11.9594 83.4875 11.9047 83.0969C11.8527 82.7445 11.6838 82.4198 11.425 82.175C12.1266 81.5734 13.0938 80.6453 13.625 79.6844C14.8328 79.6672 15.8297 79.2094 16.4578 78.4C17.5156 78.9531 19.8984 80.0703 23.4188 81.0391C21.9797 82.8438 20.0406 84.8906 18.5328 86.4125C16.1828 85.7906 13.8156 85.0406 11.7016 84.1406ZM33.9688 90.7172L33.6484 90.7188C32.3031 90.7188 27.8453 90.6094 21.9562 89.3828C22.1625 89.2078 22.3766 89.0281 22.575 88.8562C27.3531 89.8547 31.2062 90.2828 31.4953 90.3156L32.0672 90.3766L32.2437 89.8219C32.6297 88.625 34.0531 88.4484 34.8687 88.4484C35.0922 88.4484 35.2406 88.4625 35.2578 88.4641L35.5609 88.4969L42.4875 82.5781L40.6359 82.5172C40.0172 82.4953 39.7562 82.3562 39.6922 82.2609L40.0844 81.2344L39 81.2797C38.2094 81.3141 37.4375 81.3312 36.6828 81.3312C34.5016 81.3312 32.4766 81.1875 30.6062 80.9609L31.0406 80.4484C34.8156 80.9531 39.3359 81.2641 44.7937 81.225C43.4906 83.0531 40.2406 86.9391 33.9688 90.7172ZM49.6312 83.9281V86.7797C48.7422 86.7797 47.8766 86.7766 47.0297 86.7703L46.775 83.5609L44.6594 83.7328C46.0844 82.0484 46.6922 80.925 46.7469 80.8234L47.3203 79.7391L46.1094 79.7609C34.5187 79.9734 26.9594 78.5922 22.1875 77.0578C21.8391 75.6484 21.6375 74.0547 21.6375 72.1937C21.6375 59.5016 29.7484 40.3172 40.5172 32.5422C42.425 34.3875 45.3187 35.1953 48.0687 33.4C48.6719 33.0062 49.1969 32.4906 49.6891 31.9422C49.8063 31.9453 49.9266 31.9719 50.0453 31.9719C50.4391 31.9719 50.8391 31.9391 51.2375 31.8891C51.7422 32.0906 52.2359 32.2938 52.6937 32.4953C54.8859 33.4609 56.7578 32.8609 58.0359 31.5297C67.9 37.4984 75.8031 53.2875 77.8828 66.05C73.3734 67.8531 66.2203 69.6125 55.2422 69.9219C57.4078 68.6844 59.0328 66.6031 58.4484 63.8687C57.8344 60.9781 55.4188 60.1656 52.9172 60.0328C52.9109 58.675 52.9109 57.3203 52.9203 55.9625C53.6875 56.3016 54.4234 56.6922 55.0922 57.1094C56.2734 57.8516 57.3422 55.9281 56.1688 55.1859C55.1513 54.5463 54.0653 54.0227 52.9312 53.625C52.9469 52.0531 52.9547 50.4844 52.9547 48.9156C52.9562 47.4781 50.8203 47.4781 50.8203 48.9156C50.8203 50.2953 50.8109 51.6734 50.7984 53.05C49.6616 52.8519 48.5007 52.8324 47.3578 52.9922C47.172 51.9579 46.9468 50.9312 46.6828 49.9141C46.3297 48.5297 44.2672 49.1156 44.625 50.5047C44.8875 51.5031 45.1016 52.4969 45.2781 53.5047C45.1875 53.5391 45.0891 53.5562 45 53.5969C42.1062 54.7422 40.3406 57.6625 42.4578 60.3859C43.4438 61.6547 44.7328 62.1672 46.1437 62.3375C46.2203 64.2172 46.2687 66.0984 46.3234 67.9766C45.3781 67.3625 44.5172 66.575 43.7375 65.7422C42.7719 64.7234 41.2641 66.2969 42.2281 67.3141C43.5391 68.7094 44.9156 69.7641 46.4078 70.4391C46.475 72.0438 46.5703 73.6531 46.7266 75.25C46.8641 76.6672 49.0016 76.675 48.8625 75.25C48.7308 73.8688 48.6334 72.4845 48.5703 71.0984C49.3828 71.2391 50.2359 71.275 51.1422 71.1891C51.2437 72.6672 51.3625 74.1453 51.5312 75.6234C51.6281 76.4703 52.4375 76.8031 53.0344 76.6312L52.9016 79.7C51.9609 79.7844 51.0016 79.8625 50.0016 79.9281L48.8109 80.0062L49.4453 81.0312C49.5094 81.1344 50.2297 82.2734 51.8375 83.9313H49.6312V83.9281ZM88.5188 73.6438C86.5547 74.5672 84.0703 75.4141 81.5391 76.1531C79.9828 74.5453 77.9922 72.4 76.5062 70.4969C79.8172 69.4938 81.6703 68.4594 82.5062 67.9016C83.1672 68.4844 84.0422 68.7875 85.0781 68.7859C85.4219 68.7859 85.7266 68.7531 85.9609 68.7156C86.7109 69.6875 87.9203 70.8094 88.6766 71.4797C88.3187 71.8469 88.1453 72.2531 88.1594 72.6922C88.1719 73.0672 88.3219 73.3859 88.5188 73.6438ZM77.3391 78.7781C77.6578 79.0594 77.9875 79.3469 78.3234 79.6375C71.9891 81.3172 67.275 81.5 66.2484 81.5172C59.6891 77.5156 56.2891 73.2812 54.9781 71.375C60.4672 71.2375 65.0047 70.7406 68.7891 70.0562C68.943 70.2453 69.0987 70.4328 69.2562 70.6188C66.2146 71.0925 63.1489 71.3966 60.0734 71.5297L58.8125 71.5828L59.5062 72.6438C59.5047 72.6453 59.3641 72.9078 58.4328 73.0891L56.9188 73.3844L64.3625 79.4109L64.7094 79.3172C64.7172 79.3156 65.3734 79.1391 66.1672 79.1391C67.3125 79.1391 68.0953 79.4875 68.4891 80.1687L68.7391 80.6L69.225 80.5141C71.9467 80.0179 74.6526 79.439 77.3391 78.7781ZM55.3125 74.1859L53.5344 74.0891C53.4516 73.2016 53.3688 72.3141 53.3063 71.4266C53.6188 71.9453 54.2594 72.9203 55.3125 74.1859ZM53.1125 68.4656C53.01 66.3623 52.948 64.2572 52.9266 62.1516C53.1828 62.1609 53.4359 62.1844 53.6766 62.2188C56.4391 62.6375 57.1609 65.7094 55.0047 67.4375C54.4422 67.8828 53.7938 68.2094 53.1125 68.4656ZM69.4234 79.0156C68.7234 78.1516 67.6094 77.6984 66.1688 77.6984C65.5672 77.6984 65.0375 77.7797 64.7031 77.8453L60.0234 74.0531C60.4125 73.8297 60.675 73.5469 60.8187 73.2C60.8541 73.1137 60.8813 73.0242 60.9 72.9328C64.6094 72.7297 67.7344 72.3594 70.3766 71.9062C71.6578 73.3359 73.5406 75.3078 76.0375 77.6C72.9703 78.3297 70.4125 78.8297 69.4234 79.0156ZM50.7891 62.2078C50.8188 64.4719 50.875 66.7422 50.9953 69.0047C50.7938 69.0359 50.5953 69.075 50.3969 69.0953C49.725 69.1719 49.0875 69.1156 48.4813 68.9625C48.4047 66.775 48.3547 64.5828 48.2719 62.3937C49.1125 62.3547 49.9641 62.2719 50.7891 62.2078ZM48.1641 60.2313C48.0665 58.5144 47.9049 56.8017 47.6797 55.0969C48.7153 54.9545 49.7685 55.0081 50.7844 55.2547C50.7732 56.8521 50.7706 58.4495 50.7766 60.0469C50.0906 60.0844 49.4391 60.15 48.8656 60.2016C48.6322 60.2198 48.3982 60.2297 48.1641 60.2313ZM46.0203 59.9578C45.8875 59.9219 45.7563 59.8938 45.6203 59.8484C44.9951 59.6366 44.4291 59.2794 43.9688 58.8063C42.6344 57.5609 44.4656 56.3391 45.6203 55.7594C45.8016 57.15 45.9266 58.5531 46.0203 59.9578ZM63.2656 90.3734C56.4828 86.9078 52.8438 83.0563 51.3984 81.2719C52.4375 81.1937 53.4203 81.1 54.3937 81.0016L65.5156 88.2203L89.9062 81.5203C77.3281 89.1016 64.9016 90.2562 63.2656 90.3734ZM83.4094 78.0453C83.2094 77.8453 82.9703 77.6078 82.6875 77.3219C85.4625 76.4812 88.1469 75.5062 90.1484 74.4344L91.3656 73.7797L90.1312 73.1516C89.8547 73.0094 89.5844 72.7484 89.5797 72.65C89.5828 72.6125 89.6922 72.4125 90.1656 72.1406L91.0687 71.6219L90.2656 70.9531C90.2406 70.9328 87.7359 68.8531 86.8563 67.5141L86.5656 67.0766L86.0672 67.2219C86.0625 67.2219 85.6344 67.3453 85.0781 67.3453C84.2188 67.3469 83.575 67.0656 83.1625 66.5125L82.7062 65.9078L82.1344 66.4C82.1047 66.425 80.3344 67.8766 75.5859 69.2484C75.4296 69.0232 75.279 68.7939 75.1344 68.5609C80.8922 66.8156 83.8344 64.7031 85.1094 63.5469C87.1562 67.975 92.0297 71.5422 94.1453 72.9406C90.7466 74.9973 87.1499 76.7075 83.4094 78.0453Z" fill="#4244F5"/>
<path d="M69.3438 73.6202C67.786 73.1968 66.0282 73.4859 65.4125 74.2593C64.8016 75.0359 65.5735 76.014 67.1297 76.4406C68.6891 76.864 70.4453 76.5734 71.061 75.7984C71.6719 75.0218 70.9032 74.0468 69.3438 73.6202Z" fill="#4244F5"/>
</svg>
