<svg width="100" height="100" viewBox="0 0 100 100" fill="none" xmlns="http://www.w3.org/2000/svg">
<path fill-rule="evenodd" clip-rule="evenodd" d="M68.5462 43.9826C68.5462 42.2755 69.9299 40.8916 71.6375 40.8916H87.0924C88.7995 40.8916 90.1837 42.2755 90.1837 43.9826V90.3483C90.1837 92.0553 88.7995 93.439 87.0924 93.439H71.6375C69.9299 93.439 68.5462 92.0553 68.5462 90.3483V43.9826ZM74.7283 47.0737V87.257H84.0017V47.0737H74.7283ZM37.6359 56.3467C37.6359 54.6396 39.0198 53.2557 40.7269 53.2557H56.1821C57.8892 53.2557 59.2734 54.6396 59.2734 56.3467V90.3483C59.2734 92.0553 57.8892 93.439 56.1821 93.439H40.7269C39.0198 93.439 37.6359 92.0553 37.6359 90.3483V56.3467ZM43.818 59.438V87.257H53.0911V59.438H43.818ZM6.72559 68.7108C6.72559 67.0037 8.1095 65.62 9.81662 65.62H25.2718C26.979 65.62 28.3628 67.0037 28.3628 68.7108V90.3483C28.3628 92.0553 26.979 93.439 25.2718 93.439H9.81662C8.1095 93.439 6.72559 92.0553 6.72559 90.3483V68.7108ZM12.9077 71.8021V87.257H22.1807V71.8021H12.9077Z" fill="#4244F5"/>
<path fill-rule="evenodd" clip-rule="evenodd" d="M74.7279 9.98141C74.7279 8.27424 76.1116 6.89038 77.8192 6.89038H90.1833C91.8904 6.89038 93.2741 8.27424 93.2741 9.98141V22.3455C93.2741 24.0527 91.8904 25.4366 90.1833 25.4366C88.4757 25.4366 87.092 24.0527 87.092 22.3455V16.8646L64.4176 37.0199C63.392 37.9312 61.8888 38.0579 60.7257 37.3308L37.5431 22.8418L11.3173 37.4117C9.825 38.2408 7.94321 37.7031 7.11413 36.2108C6.28511 34.7185 6.82278 32.8366 8.31506 32.0076L36.1344 16.5524C37.1176 16.0062 38.3199 16.0372 39.2738 16.6333L62.0398 30.862L82.0529 13.0724H77.8192C76.1116 13.0724 74.7279 11.6885 74.7279 9.98141Z" fill="#4244F5"/>
</svg>
