<svg width="100" height="100" viewBox="0 0 100 100" fill="none" xmlns="http://www.w3.org/2000/svg">
<g clip-path="url(#clip0_3997_18510)">
<path d="M29.6875 6.24992C31.1523 6.24992 32.4056 6.3964 33.4473 6.68937C34.4889 6.98234 35.4329 7.37297 36.2793 7.86125C37.1257 8.34953 37.8743 8.85409 38.5254 9.37492C39.1764 9.89575 39.8275 10.4003 40.4785 10.8886C41.1296 11.3769 41.8457 11.7512 42.627 12.0116C43.4082 12.2721 44.3034 12.4348 45.3125 12.4999H93.75C94.6289 12.4999 95.4427 12.6627 96.1914 12.9882C96.9401 13.3137 97.5911 13.7532 98.1445 14.3066C98.6979 14.8599 99.1536 15.5273 99.5117 16.3085C99.8698 17.0898 100.033 17.9036 100 18.7499V37.4999H93.75V18.7499H45.3125C44.3034 18.7499 43.4245 18.8964 42.6758 19.1894C41.9271 19.4823 41.2109 19.873 40.5273 20.3612C39.8438 20.8495 39.1764 21.3541 38.5254 21.8749C37.8743 22.3958 37.1419 22.9003 36.3281 23.3886C35.5143 23.8769 34.5703 24.2512 33.4961 24.5116C32.4219 24.7721 31.1523 24.9348 29.6875 24.9999H6.25V81.2499H12.5V87.4999H0V12.4999C0 11.621 0.16276 10.8072 0.488281 10.0585C0.813802 9.30981 1.25326 8.65877 1.80664 8.10539C2.36003 7.552 3.02734 7.09627 3.80859 6.7382C4.58984 6.38013 5.40365 6.21737 6.25 6.24992H29.6875ZM29.6875 18.7499C30.4688 18.7499 31.1523 18.6848 31.7383 18.5546C32.3242 18.4244 32.8613 18.2128 33.3496 17.9198C33.8379 17.6269 34.3099 17.3014 34.7656 16.9433C35.2214 16.5852 35.7422 16.1458 36.3281 15.6249C35.7747 15.1366 35.2702 14.7135 34.8145 14.3554C34.3587 13.9973 33.8704 13.6718 33.3496 13.3788C32.8288 13.0859 32.2917 12.8743 31.7383 12.7441C31.1849 12.6139 30.5013 12.5325 29.6875 12.4999H6.25V18.7499H29.6875ZM100 43.7499V99.9999H18.75V43.7499H100ZM93.75 49.9999H25V93.7499H93.75V49.9999ZM87.5 62.4999H68.75V56.2499H87.5V62.4999ZM81.25 74.9999H68.75V68.7499H81.25V74.9999ZM81.25 87.4999H68.75V81.2499H81.25V87.4999ZM62.5 87.4999H31.25V56.2499H62.5V87.4999ZM56.25 62.4999H37.5V81.2499H56.25V62.4999Z" fill="#4244F5"/>
</g>
<defs>
<clipPath id="clip0_3997_18510">
<rect width="100" height="100" fill="white"/>
</clipPath>
</defs>
</svg>
