<svg width="64" height="64" viewBox="0 0 64 64" fill="none" xmlns="http://www.w3.org/2000/svg">
<g clip-path="url(#clip0_3455_5088)">
<path d="M64.0002 8.5C63.8785 9.73833 63.7702 10.9783 63.6352 12.215C62.5602 22.0133 58.8785 30.6317 52.0918 37.8683C48.1285 42.0933 43.7035 45.7083 38.5735 48.4317C38.4635 48.49 38.3535 48.5467 38.2902 48.58C30.6735 40.9617 23.0802 33.3667 15.4102 25.6933C15.8568 24.91 16.3302 24.015 16.8618 23.155C21.2752 16.0167 27.0018 10.1817 34.2302 5.89C38.5685 3.315 43.3052 1.75167 48.2618 0.898333C50.4918 0.515 52.7618 0.356667 55.0135 0.0933333C55.1768 0.075 55.3385 0.0316667 55.5002 0C57.1668 0 58.8335 0 60.5002 0C60.6818 0.035 60.8618 0.0833333 61.0452 0.105C62.4085 0.271667 63.5285 1.26167 63.8385 2.59C63.9085 2.89 63.9468 3.19667 64.0002 3.5V8.5ZM34.4785 20.1733C34.4852 25.37 38.6518 29.5217 43.8552 29.515C49.0402 29.5083 53.2318 25.315 53.2235 20.1417C53.2152 14.9783 48.9918 10.7717 43.8252 10.78C38.6518 10.7883 34.4718 14.9883 34.4785 20.1717V20.1733Z" fill="#4244F5"/>
<path opacity="0.5" d="M31.8755 64C30.5588 63.57 29.4905 62.8317 29.2055 61.3983C28.8571 59.6467 28.6238 57.8717 28.3271 56.03C35.0721 54.705 41.0921 51.815 46.7105 47.7283C46.6388 48.6317 46.5788 49.39 46.5188 50.1467C46.4355 51.205 46.3605 52.2633 46.2671 53.32C46.1288 54.89 45.3955 56.135 44.0938 57.005C40.8771 59.1567 37.6471 61.285 34.4105 63.405C34.0205 63.66 33.5555 63.8033 33.1255 63.9983H31.8755V64Z" fill="#4244F5"/>
<path opacity="0.5" d="M0 30.875C0.413333 30.1117 0.778333 29.3183 1.24833 28.5933C3.06333 25.8033 4.92833 23.045 6.74167 20.2533C7.74 18.7167 9.08667 17.825 10.9333 17.6983C12.655 17.5817 14.3733 17.4333 16.265 17.2867C12.2067 22.8867 9.29833 28.8867 7.97833 35.6533C6.67167 35.4533 5.40333 35.26 4.135 35.0667C4.03167 35.0517 3.93167 35.0183 3.82833 35.0133C1.90667 34.905 0.565 34.0283 0 32.125C0 31.7083 0 31.2917 0 30.875Z" fill="#4244F5"/>
<path d="M0 61.625C0.4 61.1317 0.761667 60.6 1.20667 60.1517C4.82833 56.5067 8.45833 52.87 12.1133 49.2584C12.4617 48.915 12.9617 48.6317 13.435 48.5284C14.185 48.3667 14.8283 48.7084 15.2317 49.3767C15.645 50.0634 15.615 50.7667 15.1633 51.43C15.0133 51.6517 14.8133 51.8417 14.6233 52.0317C11.05 55.6084 7.48 59.1867 3.895 62.75C3.43167 63.21 2.885 63.585 2.37667 63.9984H1.37667C0.755 63.7034 0.296667 63.245 0 62.625C0 62.2917 0 61.9584 0 61.625Z" fill="#4244F5"/>
<path d="M0 50.625C0.343333 50.1167 0.623333 49.545 1.04333 49.11C2.85667 47.2433 4.71667 45.4217 6.55 43.5733C7.08667 43.0317 7.70167 42.7433 8.46167 42.925C9.85 43.2567 10.415 44.9483 9.41667 45.985C7.365 48.1133 5.27167 50.2033 3.14333 52.255C2.18333 53.1817 0.661667 52.76 0.16 51.525C0.106667 51.3917 0.0533333 51.2583 0 51.125C0 50.9583 0 50.7917 0 50.625Z" fill="#4244F5"/>
<path d="M12.8751 64C12.7617 63.9534 12.6501 63.9034 12.5367 63.86C11.2234 63.3634 10.8051 61.81 11.7817 60.8084C13.8167 58.72 15.8851 56.665 17.9634 54.62C18.7001 53.895 19.8501 53.9317 20.5617 54.6234C21.2817 55.325 21.3584 56.4667 20.6301 57.2117C18.5784 59.3117 16.4951 61.3834 14.4001 63.44C14.1334 63.7017 13.7201 63.815 13.3751 63.9984H12.8751V64Z" fill="#4244F5"/>
<path d="M64 3.5C63.9467 3.19667 63.9083 2.89 63.8383 2.59C63.5283 1.26167 62.4083 0.271667 61.045 0.105C60.8617 0.0816667 60.6817 0.035 60.5 0C61.6667 0 62.8333 0 64 0V3.5Z" fill="white"/>
<path d="M0 62.625C0.296667 63.245 0.755 63.7033 1.375 64H0V62.625Z" fill="white"/>
<path opacity="0.5" d="M13.6631 29.5783C20.5864 36.5016 27.4981 43.4133 34.5081 50.425C32.7414 50.95 30.9831 51.4916 29.2148 51.99C28.5364 52.1816 27.8298 52.2733 27.1381 52.4183C25.9881 52.66 24.9681 52.375 24.1481 51.5616C20.2331 47.6716 16.3314 43.7683 12.4414 39.8533C11.6264 39.0333 11.2948 38 11.5914 36.8666C12.1914 34.5783 12.8448 32.3033 13.4798 30.0233C13.5281 29.8516 13.6148 29.6916 13.6614 29.5783H13.6631Z" fill="#4244F5"/>
<path d="M38.2305 20.14C38.2371 17.0483 40.7388 14.5416 43.8288 14.5316C46.9238 14.5216 49.4871 17.085 49.4721 20.1766C49.4571 23.29 46.9221 25.7866 43.7921 25.7683C40.6938 25.75 38.2238 23.2516 38.2305 20.14Z" fill="#4244F5"/>
</g>
<defs>
<clipPath id="clip0_3455_5088">
<rect width="64" height="64" fill="white"/>
</clipPath>
</defs>
</svg>
