<svg width="100" height="100" viewBox="0 0 100 100" fill="none" xmlns="http://www.w3.org/2000/svg">
<g clip-path="url(#clip0_3709_2450)">
<path opacity="0.5" d="M14.085 67.5952C17.6006 64.3724 21.1473 61.0047 24.8353 57.7846C27.1385 55.7747 30.0013 54.7309 33.1326 54.637C36.5888 54.5323 40.0564 54.5592 43.5155 54.6343C46.2737 54.6933 48.7324 55.7264 51.0187 57.1245C51.9456 57.6907 52.9037 57.8973 54.0087 57.8893C60.1186 57.8517 66.2313 57.8597 72.3413 57.8758C75.7184 57.8839 78.2873 60.0011 78.5303 62.9153C78.813 66.3044 76.278 69.0254 72.6832 69.0603C67.8789 69.1086 63.0746 69.0737 58.2704 69.0764C57.3886 69.0764 56.5041 69.063 55.6223 69.0818C54.7858 69.1006 54.133 69.4172 54.1443 70.3081C54.1556 71.1963 54.7915 71.4915 55.6478 71.4915C61.4412 71.4834 67.2346 71.5425 73.028 71.4512C77.4084 71.3815 80.8816 68.0084 81.1134 63.8706C81.136 63.4439 81.2914 62.926 81.5825 62.6228C85.2281 58.8338 88.8991 55.069 92.59 51.3203C93.9917 49.8954 95.7354 49.6405 97.4932 50.5153C99.2962 51.4115 100.314 53.1745 99.9179 54.908C99.7795 55.5091 99.4714 56.1182 99.0899 56.62C93.9295 63.4198 88.7692 70.2195 83.5494 76.9791C80.274 81.2215 75.823 83.2556 70.25 83.218C61.136 83.1589 52.0219 83.2019 42.9079 83.2019C37.9143 83.2019 37.3999 83.3897 33.9465 86.4595C27.3646 80.2045 20.7827 73.9522 14.0878 67.5898L14.085 67.5952Z" fill="#4244F5"/>
<path opacity="0.5" d="M8.53741 66.3044C17.4819 74.8055 26.5366 83.4085 35.5234 91.9471C32.7228 94.6091 29.8628 97.3274 27.0453 100C18.0754 91.4829 9.01502 82.8799 -0.00292969 74.3198C2.809 71.6793 5.68875 68.9771 8.53459 66.3044H8.53741Z" fill="#4244F5"/>
<path d="M76.668 13.0842H85.2422V43.3987H76.668V13.0842Z" fill="#4244F5"/>
<path d="M60.1776 45.8836C69.3566 45.8836 78.5356 45.8836 87.7175 45.8836C89.2492 45.8836 89.2973 45.9212 89.2916 47.3273C89.2803 50.3542 89.6053 49.9248 86.5136 49.9275C68.5427 49.9382 50.5718 49.9329 32.6009 49.9329C31.4177 49.9329 30.8262 49.3872 30.8262 48.296C30.8318 45.5965 30.5435 45.8863 33.3837 45.8836C42.3169 45.8782 51.2472 45.8836 60.1804 45.8836H60.1776Z" fill="#4244F5"/>
<path d="M62.8145 19.4333H71.4226V43.4043H62.8145V19.4333Z" fill="#4244F5"/>
<path d="M39.3729 26.5873C34.156 26.5793 29.9565 22.581 29.9678 17.6328C29.9791 12.7007 34.2295 8.6702 39.4068 8.68093C44.5813 8.69166 48.8317 12.7436 48.8261 17.6623C48.8204 22.5917 44.5813 26.5927 39.3757 26.5846L39.3729 26.5873ZM41.8118 16.7097C42.9648 16.3689 43.2729 15.5585 42.8574 14.6515C42.5522 13.9807 41.922 13.444 41.4359 12.8483C41.159 12.5075 40.9131 12.1372 40.5909 11.8393C40.2179 11.4931 39.794 11.0021 39.3616 10.9726C38.997 10.9457 38.5534 11.4556 38.2058 11.7883C37.8638 12.113 37.6631 12.5933 37.2873 12.8617C36.171 13.656 35.6284 14.6462 35.8121 15.9825C35.9986 17.343 36.9171 18.0085 38.2199 18.3305C38.867 18.4888 39.5368 18.6015 40.1529 18.8403C40.4214 18.945 40.7633 19.3126 40.7492 19.5461C40.7322 19.8439 40.4609 20.233 40.1783 20.3967C39.2938 20.9092 38.2538 20.4718 37.9655 19.4978C37.7451 18.7491 37.3014 18.2875 36.4536 18.4351C35.5888 18.5854 35.3797 19.2026 35.4673 19.9593C35.603 21.1239 36.3208 21.8887 37.3071 22.522C37.666 22.7527 37.8666 23.1928 38.1944 23.4799C38.576 23.8127 39.0253 24.3198 39.4294 24.3064C39.8336 24.293 40.2405 23.7537 40.6079 23.4075C40.8566 23.174 40.9809 22.7474 41.2635 22.6293C43.4792 21.7116 44.3524 18.4593 41.8174 16.7151L41.8118 16.7097Z" fill="#4244F5"/>
<path d="M57.5558 25.8198V43.4042H48.9307V25.8198H57.5558Z" fill="#4244F5"/>
<path d="M82.0291 2.80181C81.2972 2.60592 80.8507 2.512 80.4296 2.36442C79.692 2.10681 79.3585 1.58086 79.5789 0.85634C79.7852 0.177437 80.3561 -0.120422 81.0626 0.0432663C82.6028 0.40016 84.1317 0.799988 85.655 1.22128C86.4208 1.43327 86.726 1.99679 86.5423 2.71326C86.1721 4.14352 85.7539 5.56036 85.3384 6.97988C85.1237 7.71782 84.5669 8.02641 83.8039 7.85736C83.0098 7.68025 82.7667 7.12211 82.9137 6.39222C82.9985 5.97361 83.103 5.55768 83.2415 4.94049C82.7526 5.20078 82.4276 5.36715 82.1083 5.54158C79.3896 7.03087 76.654 8.49333 73.9636 10.0282C73.0875 10.5274 72.3697 10.5113 71.5219 10.0068C70.1795 9.20712 68.7636 8.5148 67.4156 7.71782C66.8023 7.35288 66.3445 7.35556 65.72 7.73392C62.2411 9.8404 58.7311 11.9013 55.2296 13.9755C54.9301 14.1526 54.5966 14.4612 54.314 14.429C53.811 14.3727 53.1186 14.2278 52.9066 13.8897C52.7003 13.5623 52.9321 12.929 53.0931 12.4675C53.1638 12.2662 53.5255 12.1481 53.7629 12.0059C57.6205 9.71428 61.4922 7.44411 65.33 5.12296C66.1524 4.62653 66.8363 4.5836 67.6643 5.07198C69.1338 5.93604 70.6401 6.74106 72.1492 7.53803C72.4121 7.67757 72.8614 7.78491 73.0847 7.66684C76.0012 6.11314 78.8894 4.5192 82.0291 2.80181Z" fill="#4244F5"/>
<path d="M35.1055 32.2036H43.6826V43.3988H35.1055V32.2036Z" fill="#4244F5"/>
<path d="M40.8114 16.4412C40.1303 16.2802 39.5397 16.197 38.9999 15.9931C38.7371 15.8938 38.5675 15.5664 38.3584 15.3437C38.6071 15.1371 38.8275 14.8151 39.113 14.7507C39.746 14.6085 40.2829 14.799 40.4808 15.4832C40.5627 15.765 40.6729 16.0414 40.8114 16.4412Z" fill="#4244F5"/>
</g>
<defs>
<clipPath id="clip0_3709_2450">
<rect width="100" height="100" fill="white"/>
</clipPath>
</defs>
</svg>
