<svg width="78" height="78" viewBox="0 0 78 78" fill="none" xmlns="http://www.w3.org/2000/svg">
<g clip-path="url(#clip0_3455_5143)">
<path d="M9.39575 48.6715C9.39575 48.2362 9.39575 47.9234 9.39575 47.6106C9.39575 39.6604 9.39575 31.7101 9.39575 23.7578C9.39575 22.2531 9.74593 21.9065 11.2556 21.9044C11.5177 21.9044 11.7799 21.9044 12.042 21.9044C13.2371 21.9044 13.6209 21.5325 13.6649 20.3004C13.6838 19.7467 13.6607 19.1909 13.6712 18.6372C13.688 17.7348 14.0465 17.3671 14.8811 17.1537C15.1998 17.0713 15.5458 16.7923 15.7198 16.5049C20.7836 8.21651 27.9842 2.89521 37.422 0.788246C51.412 -2.33311 65.8676 4.00258 73.217 16.3823C83.785 34.1827 76.1525 57.2579 57.0693 64.9863C54.7355 65.9309 52.2088 66.4106 49.7556 67.0404C49.2271 67.1756 49.093 67.3701 49.0971 67.8751C49.116 70.6753 49.1076 73.4754 49.1055 76.2755C49.1055 77.6344 48.7323 78 47.3694 78C32.1694 78 16.9674 78 1.76748 78C0.370995 78 0.00195312 77.6259 0.00195312 76.2185C0.00195312 67.6342 0.00195312 59.05 0.00195312 50.4636C0.00195312 49.0477 0.368899 48.6715 1.757 48.6715C4.269 48.6715 6.78101 48.6715 9.39785 48.6715H9.39575ZM11.9728 24.4847V75.4091H14.6315V74.494C14.6315 70.4259 14.6315 66.3578 14.6315 62.2897C14.6315 59.5529 16.1895 57.9764 18.9217 57.9574C20.5991 57.9468 22.2766 57.9468 23.954 57.9574C26.682 57.9743 28.2526 59.5572 28.2547 62.2876C28.2588 66.3557 28.2547 70.4238 28.2547 74.4919C28.2547 74.7962 28.2547 75.1026 28.2547 75.4196H30.9134V24.4847H11.9728ZM62.0954 32.4413C62.0954 32.1096 62.1101 31.8454 62.0933 31.5855C61.7788 26.6023 60.571 21.86 58.3819 17.3714C58.1156 16.8261 57.8535 16.7606 57.2999 16.8642C54.9096 17.3122 52.515 17.7412 50.1078 18.0899C48.6946 18.2949 47.2561 18.3329 45.8135 18.447V32.4413H62.0933H62.0954ZM45.8009 38.3903C46.3713 38.3903 46.864 38.3903 47.3589 38.3903C48.7113 38.3945 49.1013 38.777 49.1034 40.1169C49.1076 42.6507 49.1034 45.1846 49.1034 47.7163C49.1034 48.2108 49.1034 48.7053 49.1034 49.1259C52.1292 49.6394 55.0542 50.1339 57.994 50.6327C60.6339 45.8862 62.1583 39.0201 62.0304 35.0766H45.7988V38.3882L45.8009 38.3903ZM75.4564 32.4392C75.0643 24.956 72.4223 18.4724 67.6017 12.963C65.1987 14.0323 62.8733 15.0679 60.7241 16.0231C61.6362 18.7006 62.7161 21.3169 63.4038 24.0325C64.0958 26.7692 64.3956 29.6074 64.8737 32.4392H75.4585H75.4564ZM67.652 54.5507C72.4663 49.016 75.0664 42.5345 75.4564 35.0724H64.643C64.3977 40.8502 63.0327 46.3004 60.5228 51.3787C62.9153 52.4417 65.2302 53.473 67.652 54.5486V54.5507ZM46.5558 44.6013H45.1404V45.5967C45.1404 54.5507 45.1404 63.5048 45.1404 72.4568C45.1404 72.7209 45.1635 72.9893 45.1258 73.2472C45.023 73.934 44.6288 74.3482 43.9222 74.3693C43.2113 74.3926 42.7962 73.991 42.6536 73.3169C42.5949 73.0379 42.6242 72.7379 42.6242 72.4483C42.6242 63.4689 42.6242 54.4873 42.6242 45.5079V44.5907H41.0684C41.0684 44.9479 41.0684 45.2585 41.0684 45.5692C41.0684 54.5486 41.0684 63.5302 41.0684 72.5096C41.0684 73.8072 40.6721 74.3862 39.8019 74.3736C38.9359 74.3609 38.5543 73.7797 38.5543 72.4716C38.5543 63.4921 38.5543 54.5106 38.5543 45.5312C38.5543 45.2226 38.5543 44.9162 38.5543 44.5886H37.0047C37.0047 44.9415 37.0047 45.2522 37.0047 45.565C37.0047 54.4916 37.0047 63.4203 37.0047 72.3469C37.0047 72.6364 37.0173 72.9302 36.9879 73.2176C36.9167 73.9192 36.5225 74.3313 35.82 74.3693C35.1155 74.4053 34.6793 74.0291 34.5389 73.3423C34.478 73.0358 34.4906 72.7125 34.4906 72.3955C34.4885 63.4414 34.4906 54.4873 34.4906 45.5354V44.5865H33.5491V75.4154H46.56V44.6013H46.5558ZM9.33704 75.4387V51.2603H2.56847V75.4387H9.33704ZM43.203 32.4646V18.4048C39.2253 18.2505 35.3356 17.8088 31.5131 16.8494C31.316 16.8008 30.9218 17.0184 30.8212 17.2171C30.3326 18.1765 29.8755 19.1571 29.4876 20.163C29.2905 20.6745 29.2674 21.2556 29.1458 21.9086C30.1733 21.9086 31.0309 21.9023 31.8906 21.9086C33.0585 21.9192 33.4946 22.3609 33.4967 23.5443C33.5009 26.2346 33.4967 28.9269 33.4967 31.6172C33.4967 31.894 33.4967 32.1687 33.4967 32.4646H43.2009H43.203ZM17.1477 75.3985H25.6965C25.7154 75.2337 25.7343 75.1301 25.7343 75.0266C25.7343 70.6964 25.7426 66.3641 25.7343 62.034C25.7322 61.0766 25.252 60.5356 24.2979 60.5145C22.4129 60.4722 20.5257 60.4722 18.6386 60.5082C17.6027 60.5293 17.1498 61.0682 17.1477 62.1333C17.1435 64.3776 17.1477 66.6219 17.1477 68.8663C17.1477 71.0282 17.1477 73.1901 17.1477 75.3964V75.3985ZM45.8114 15.8794C49.5123 15.8138 53.1126 15.3553 56.6835 14.4465C54.8907 10.8666 48.6107 4.40623 45.8114 3.24391V15.8794ZM43.2155 3.12768C38.7472 6.16027 35.1847 9.87335 32.3372 14.4487C35.9605 15.3447 39.5356 15.8223 43.2155 15.8794V3.12768ZM65.8529 56.4168C63.7708 55.5715 61.8543 54.817 59.9608 54.0076C59.3737 53.7561 59.1116 53.9083 58.795 54.4303C56.5849 58.0525 53.8402 61.2161 50.5943 63.9359C50.4685 64.0416 50.3678 64.1769 50.1204 64.4431C56.174 63.2702 61.2797 60.6645 65.8508 56.4189L65.8529 56.4168ZM38.829 3.06639C32.9201 4.22448 27.8059 6.81962 23.2223 11.0864C25.3401 11.9507 27.2754 12.72 29.194 13.5357C29.7098 13.7555 29.909 13.5568 30.1942 13.1617C31.5634 11.266 32.8824 9.32177 34.3921 7.54448C35.7299 5.97218 37.2962 4.59642 38.8311 3.06639H38.829ZM50.1812 3.19741C50.4559 3.43199 50.7327 3.66234 51.0053 3.89903C53.922 6.42655 56.4298 9.31121 58.5056 12.5784C59.2458 13.7449 59.2542 13.7935 60.5437 13.2842C62.2527 12.6059 63.9322 11.8493 65.769 11.0653C61.2021 6.82807 56.1027 4.21391 50.1812 3.19953V3.19741ZM49.1391 61.8501C52.1732 59.2529 54.6244 56.3935 56.7233 52.9467C54.1065 52.5262 51.6532 52.131 49.1391 51.7253V61.8501ZM33.5261 38.3332H43.2071V35.0745H33.5261V38.3332ZM16.2293 21.8368H26.6569V19.7488H16.2293V21.8368ZM22.6876 17.1685C24.2518 17.1685 25.6881 17.1685 27.1224 17.1685C28.1456 17.1685 28.2421 17.0818 28.4308 16.0674C26.1096 15.0362 23.8031 14.0112 21.4316 12.9567C21.2596 13.1595 21.0269 13.4322 20.7585 13.7449C22.2116 13.578 22.6792 13.9964 22.6855 15.4123C22.6876 15.9597 22.6855 16.5091 22.6855 17.1685H22.6876ZM46.5621 40.9643H33.5596V41.9576H46.5621V40.9643ZM18.2968 17.1051H20.1651V14.4275C19.5067 15.3679 18.9447 16.1773 18.2968 17.1051Z" fill="#4244F5"/>
<path opacity="0.5" d="M21.4146 34.4067C19.3723 34.4067 17.3321 34.4088 15.2898 34.4067C14.0359 34.4046 13.6207 34.0052 13.6102 32.771C13.5997 31.372 13.5976 29.9751 13.6102 28.5761C13.6228 27.4307 14.0548 26.9911 15.1849 26.989C19.3472 26.9827 23.5094 26.9827 27.6716 26.989C28.8164 26.989 29.2568 27.4307 29.2631 28.5507C29.2715 30.0026 29.2736 31.4523 29.2631 32.9042C29.2547 33.9418 28.8081 34.3983 27.7743 34.4025C25.6544 34.413 23.5345 34.4067 21.4125 34.4067H21.4146ZM26.7175 29.5672H16.1767V31.8073H26.7175V29.5672Z" fill="#4244F5"/>
<path opacity="0.5" d="M29.2654 41.9745C29.2654 42.767 29.278 43.5595 29.2613 44.352C29.2445 45.2227 28.8314 45.7214 27.9843 45.7425C26.3341 45.7848 24.6818 45.7848 23.0316 45.7425C22.1949 45.7214 21.7504 45.2184 21.7378 44.352C21.7127 42.767 21.7148 41.182 21.7378 39.597C21.7504 38.6418 22.2075 38.1854 23.149 38.1748C24.7216 38.1558 26.2942 38.1558 27.8669 38.1748C28.8146 38.1854 29.2466 38.6397 29.2633 39.5949C29.2759 40.3874 29.2654 41.1799 29.2654 41.9724V41.9745ZM24.3064 40.753V43.1812H26.7094V40.753H24.3064Z" fill="#4244F5"/>
<path opacity="0.5" d="M29.265 50.1741C29.265 50.992 29.2818 51.8119 29.2587 52.6298C29.2357 53.4476 28.7953 53.9147 27.986 53.9274C26.3358 53.9527 24.6835 53.9506 23.0332 53.9274C22.2637 53.9168 21.771 53.4751 21.7521 52.7122C21.7101 51.0237 21.7143 49.3309 21.7479 47.6424C21.7626 46.8753 22.2239 46.3934 22.9934 46.3744C24.6688 46.3321 26.3483 46.3321 28.0237 46.3765C28.831 46.3976 29.2441 46.8985 29.2629 47.7185C29.2818 48.5363 29.2671 49.3563 29.2671 50.1741H29.265ZM26.6922 51.3597V48.9357H24.2934V51.3597H26.6922Z" fill="#4244F5"/>
<path opacity="0.5" d="M17.3784 38.1727C18.1647 38.1727 18.951 38.1579 19.7352 38.1769C20.6494 38.198 21.1045 38.6228 21.117 39.5294C21.1422 41.1397 21.1401 42.7501 21.117 44.3604C21.1045 45.267 20.6641 45.7341 19.7562 45.7531C18.1584 45.7869 16.5606 45.7869 14.9628 45.7531C14.0612 45.732 13.6293 45.267 13.6146 44.3456C13.5894 42.7628 13.5894 41.1778 13.6146 39.5928C13.6293 38.6291 14.0738 38.198 15.0195 38.1769C15.8058 38.16 16.5921 38.1727 17.3763 38.1727H17.3784ZM18.561 40.7741H16.1937V43.1854H18.561V40.7741Z" fill="#4244F5"/>
<path opacity="0.5" d="M17.2825 53.9379C16.4962 53.9379 15.7099 53.9569 14.9256 53.9337C14.11 53.9083 13.6424 53.4814 13.6277 52.6614C13.5942 50.9983 13.5942 49.3351 13.6277 47.6719C13.6424 46.8477 14.0827 46.3891 14.911 46.3701C16.5612 46.33 18.2114 46.33 19.8616 46.3722C20.6814 46.3934 21.1092 46.8668 21.1218 47.6931C21.1469 49.3288 21.1469 50.9666 21.1218 52.6044C21.1092 53.4729 20.6563 53.9125 19.8008 53.9358C18.9641 53.959 18.1254 53.94 17.2867 53.94L17.2825 53.9379ZM18.5783 48.8871C17.8402 48.8871 17.1881 48.8659 16.5423 48.904C16.3997 48.9124 16.1586 49.1238 16.1523 49.2506C16.1145 49.948 16.1334 50.6475 16.1334 51.3427H18.5804V48.8871H18.5783Z" fill="#4244F5"/>
</g>
<defs>
<clipPath id="clip0_3455_5143">
<rect width="78" height="78" fill="white"/>
</clipPath>
</defs>
</svg>
