<svg width="78" height="78" viewBox="0 0 78 78" fill="none" xmlns="http://www.w3.org/2000/svg">
<g clip-path="url(#clip0_3455_5118)">
<path d="M14.4727 0C15.5675 0.2925 16.6969 0.489531 17.7491 0.891719C21.5292 2.33391 24.0541 5.03547 25.4252 8.82578C25.7075 9.60781 25.4739 10.2517 24.8564 10.4873C24.18 10.7453 23.595 10.4264 23.2842 9.59563C21.8583 5.78297 19.1872 3.37391 15.2019 2.50453C10.855 1.55797 6.30906 3.54656 3.91422 7.38156C1.53359 11.1963 1.78953 16.1505 4.55 19.6523C4.65969 19.7905 4.7775 19.9205 4.84047 19.9916C5.40109 19.3213 5.85812 18.5331 6.53047 18.0355C7.17641 17.5561 8.03156 17.3388 8.81969 17.0808C9.74391 16.7781 10.1461 15.6528 9.46766 14.952C7.75328 13.1848 7.53187 11.0459 7.91375 8.78719C8.36266 6.13031 10.7291 4.37125 13.4794 4.54188C16.0489 4.70234 18.1248 6.77625 18.3158 9.37016C18.4702 11.4603 18.2102 13.4002 16.6562 15.0231C16.3597 15.3339 16.4389 16.0773 16.4877 16.6055C16.5039 16.7781 16.965 16.965 17.2494 17.0442C19.6483 17.7166 19.9652 17.9481 21.2245 20.0769C22.4555 18.6855 23.2152 17.093 23.6133 15.3156C23.662 15.0922 23.6945 14.8667 23.7494 14.6453C23.9302 13.8917 24.4481 13.5302 25.1225 13.6744C25.7461 13.8084 26.0975 14.3589 25.9858 15.0658C25.612 17.4241 24.7183 19.5711 23.1481 21.3688C19.5061 25.5409 14.9114 27.103 9.58141 25.61C4.22297 24.113 1.10703 20.3897 0.136094 14.8972C0.109688 14.753 0.0467187 14.6148 0 14.4727C0 13.5078 0 12.543 0 11.5781C0.04875 11.44 0.119844 11.3059 0.142187 11.1638C0.930312 5.8825 4.86688 1.58031 10.0445 0.347344C10.5544 0.2275 11.0662 0.115781 11.5781 0C12.543 0 13.5078 0 14.4727 0ZM12.7989 23.853C15.1694 23.8042 16.9548 23.3025 18.59 22.3011C18.7667 22.1934 18.9962 22.0127 19.0206 21.84C19.1202 21.1352 19.0308 20.3958 18.4052 19.9895C17.8486 19.628 17.1762 19.3883 16.5222 19.2644C16.2744 19.2177 15.925 19.63 15.6427 19.8595C14.0258 21.1595 11.7427 21.058 10.2233 19.6178C10.0648 19.4675 9.84141 19.2055 9.70734 19.238C8.90906 19.433 8.02953 19.4797 7.47297 20.2313C6.79656 21.1453 7.00172 22.035 7.99094 22.5733C9.63219 23.465 11.3933 23.8591 12.7969 23.855L12.7989 23.853ZM16.0286 10.2314C16.0286 10.1217 16.0509 9.815 16.0245 9.51438C15.9169 8.24688 15.0394 7.20281 13.8369 6.89203C12.6242 6.57922 11.3364 7.0525 10.6173 8.07828C9.21172 10.0831 10.1786 13.3656 12.4719 14.2086C12.872 14.3548 13.4489 14.3081 13.845 14.1294C15.4212 13.4245 16.1748 12.1713 16.0286 10.2314ZM14.1964 16.6034H11.9844C12.2159 17.162 11.442 17.8567 12.157 18.1858C12.6587 18.4153 13.4083 18.4194 13.9283 18.2163C14.7509 17.8953 13.8775 17.158 14.1964 16.6034Z" fill="#4244F5"/>
<path d="M78.0002 63.832V78H66.2697C66.4099 77.9533 66.548 77.8863 66.6922 77.8659C69.4974 77.48 71.9166 76.2917 73.9662 74.3519C75.4083 72.9869 76.4727 71.3639 77.1654 69.5033C77.4376 68.7741 77.1796 68.1708 76.5479 67.9291C75.9365 67.6955 75.4002 67.9494 75.0711 68.6278C75.0163 68.7416 74.9716 68.8614 74.9229 68.9772C72.9526 73.7039 68.2401 76.3303 63.1091 75.5585C58.3479 74.8435 54.6165 70.7342 54.1879 65.7313C53.7816 60.9964 56.6701 56.4992 61.1977 54.8194C65.6624 53.1619 70.7994 54.6833 73.5802 58.4858C74.6629 59.9666 75.3555 61.6038 75.5993 63.4299C75.7374 64.4577 76.3082 64.9939 77.0557 64.7156C77.4274 64.5775 77.6874 64.1347 77.9982 63.832H78.0002ZM71.878 62.53C71.8374 62.5259 71.7988 62.5219 71.7582 62.5199C71.7582 61.6078 71.7541 60.6938 71.7582 59.7817C71.7622 59.0708 71.4372 58.628 70.7304 58.4919C68.9226 58.1445 67.2387 57.4884 65.6279 56.5927C65.2643 56.3895 64.596 56.3977 64.2263 56.6008C62.6562 57.462 61.023 58.1039 59.2701 58.4675C58.3479 58.6584 58.0919 58.9855 58.0858 59.9381C58.0757 61.4859 58.0574 63.0338 58.0899 64.5795C58.1508 67.4355 59.2701 69.7938 61.5613 71.5325C62.4266 72.1886 63.3772 72.735 64.2913 73.3281C64.7788 73.643 65.2501 73.5678 65.7132 73.2631C66.5176 72.735 67.3463 72.2394 68.1283 71.6788C69.8366 70.4499 71.0391 68.8208 71.4535 66.753C71.7318 65.3738 71.744 63.9417 71.876 62.5341L71.878 62.53Z" fill="white"/>
<path d="M78 14.4727C77.8761 15.0374 77.7644 15.6041 77.6242 16.1648C76.1353 22.1509 70.5656 26.4124 64.5978 26.1341C58.0937 25.8315 52.9161 21.2307 51.9817 14.9176C50.9377 7.86508 55.9812 1.12133 63.0277 0.140234C63.1983 0.115859 63.3608 0.0467969 63.5273 -0.00195312C64.4414 -0.00195312 65.3555 -0.00195312 66.2695 -0.00195312C66.4137 0.0427344 66.5539 0.105703 66.7002 0.128047C72.0891 0.922266 76.31 4.71664 77.6202 9.96336C77.7664 10.5463 77.8741 11.1415 78 11.7285V14.4707V14.4727ZM64.6872 23.853C70.397 24.0724 75.4873 19.3355 75.7067 13.5952C75.9342 7.62336 71.3517 2.5432 65.5159 2.29539C59.3795 2.03539 54.3806 6.65648 54.147 12.8071C53.9256 18.6652 58.6544 23.6215 64.6892 23.853H64.6872Z" fill="#4244F5"/>
<path d="M0 63.5273C0.115781 62.985 0.223438 62.4406 0.351406 61.9023C1.78141 55.8919 7.4425 51.5653 13.4773 51.868C19.9712 52.195 25.1712 56.8709 26.0244 63.1516C26.9161 69.7206 22.7338 75.9383 16.317 77.5795C15.3908 77.8152 14.7753 77.5531 14.6067 76.8463C14.432 76.1191 14.8037 75.6438 15.7544 75.3736C20.6822 73.9781 23.9363 69.7186 23.855 64.7664C23.7738 59.8772 20.4323 55.6705 15.667 54.4619C10.0141 53.0278 4.19047 56.4606 2.64672 62.14C1.12531 67.7442 4.44641 73.6552 10.0202 75.2659C10.2395 75.3289 10.465 75.3756 10.6783 75.4548C11.3283 75.7006 11.6289 76.2958 11.4278 76.9153C11.245 77.48 10.6661 77.7969 10.0202 77.6405C8.19609 77.1977 6.53453 76.4034 5.06187 75.2395C2.30953 73.0681 0.662187 70.2467 0.138125 66.7733C0.111719 66.6027 0.0467188 66.4361 0 66.2675C0 65.3534 0 64.4394 0 63.5253L0 63.5273Z" fill="#4244F5"/>
<path d="M78.0002 63.832C77.6894 64.1367 77.4294 64.5775 77.0577 64.7156C76.3102 64.9939 75.7394 64.4556 75.6013 63.4299C75.3575 61.6038 74.6649 59.9666 73.5822 58.4858C70.8014 54.6813 65.6644 53.1619 61.1997 54.8194C56.6721 56.5013 53.7836 60.9984 54.1899 65.7313C54.6205 70.7342 58.3499 74.8434 63.1111 75.5584C68.2421 76.3283 72.9546 73.7039 74.9249 68.9772C74.9736 68.8594 75.0163 68.7416 75.0731 68.6278C75.4002 67.9494 75.9385 67.6975 76.5499 67.9291C77.1816 68.1708 77.4396 68.7741 77.1674 69.5033C76.4747 71.3639 75.4103 72.9869 73.9681 74.3519C71.9186 76.2917 69.4974 77.478 66.6942 77.8659C66.55 77.8863 66.4119 77.9533 66.2717 78H63.5296C62.2011 77.61 60.8138 77.3561 59.5585 76.8036C54.2488 74.4677 51.1592 68.8005 51.9839 63.1028C52.8167 57.3442 57.3708 52.7963 63.1192 51.9797C70.2611 50.9661 76.8424 55.9325 77.8682 63.1049C77.8885 63.2491 77.9575 63.3872 78.0042 63.5274V63.832H78.0002Z" fill="#4244F5"/>
<path d="M78 11.7305C77.8741 11.1414 77.7664 10.5483 77.6202 9.96531C76.308 4.71859 72.0891 0.924219 66.7002 0.13C66.5539 0.107656 66.4137 0.0446875 66.2695 0C70.1797 0 74.0898 0 78 0V11.7305Z" fill="white"/>
<path d="M11.5781 0C11.0662 0.115781 10.5544 0.2275 10.0445 0.347344C4.86688 1.58031 0.930313 5.8825 0.142187 11.1637C0.119844 11.3059 0.04875 11.44 0 11.5781V0C3.85938 0 7.71875 0 11.5781 0Z" fill="white"/>
<path d="M53.7814 48.8556C52.6236 48.1853 51.6588 47.6288 50.6432 47.0417C50.4949 47.2164 50.3486 47.381 50.2125 47.5536C47.7954 50.633 44.653 52.4631 40.7733 52.9892C40.2879 53.0542 40.1193 53.1964 40.1355 53.6819C40.166 54.6163 40.1436 55.5527 40.1436 56.6841C41.3949 56.4525 42.5649 56.2981 43.6983 56.0036C44.6246 55.7619 45.5143 55.3719 46.406 55.0103C47.2997 54.6467 47.9497 54.7686 48.2483 55.4125C48.553 56.0747 48.2422 56.6841 47.3952 57.0863C35.941 62.5239 22.0046 55.5446 19.4939 43.1113C17.1824 31.6692 24.8057 20.8711 36.3513 19.236C47.4439 17.6638 57.8988 25.9838 58.8271 37.1536C59.3613 43.5724 57.2468 49.0181 52.6521 53.5113C51.996 54.1531 51.4394 54.2181 50.9093 53.7692C50.3629 53.3061 50.3913 52.5871 50.96 51.9675C51.8822 50.9621 52.7922 49.9464 53.7794 48.8556H53.7814ZM50.8341 39.1016C50.9296 32.6442 45.6402 27.2574 39.1199 27.17C32.6422 27.0827 27.2838 32.3233 27.166 38.8599C27.0502 45.3152 32.303 50.7021 38.8396 50.8321C45.3233 50.96 50.7366 45.6666 50.8341 39.1016ZM23.1705 46.8264C24.2654 46.1906 25.2444 45.6199 26.2133 45.0572C24.4502 40.2188 24.4482 38.8436 26.1869 32.9246C25.216 32.3639 24.2349 31.7952 23.1725 31.1817C20.7493 36.4102 20.7472 41.5675 23.1725 46.8285L23.1705 46.8264ZM51.7543 32.9631C52.6744 34.9274 53.1111 36.9221 53.1132 39C53.1152 41.0963 52.6561 43.1072 51.7604 45.045C52.7983 45.6442 53.7774 46.211 54.8296 46.8183C57.2508 41.5817 57.2589 36.4264 54.8336 31.1858C53.7814 31.7931 52.8004 32.3599 51.7543 32.9652V32.9631ZM53.625 29.2338C51.2586 25.0149 44.068 20.8996 40.1457 21.5313C40.1457 22.4555 40.168 23.3899 40.1375 24.3222C40.1213 24.8077 40.2939 24.9478 40.7774 25.0108C44.196 25.4597 47.0824 26.9608 49.4163 29.5039C49.8408 29.9671 50.2288 30.4606 50.6472 30.9563C51.6628 30.3672 52.6439 29.7985 53.625 29.2317V29.2338ZM37.8585 56.5439C37.8585 55.5913 37.8341 54.6853 37.8686 53.7814C37.8889 53.2574 37.7569 53.0583 37.178 52.9791C33.3593 52.455 30.2514 50.6553 27.8546 47.6328C27.7002 47.4378 27.5418 47.2469 27.3711 47.0377C26.3433 47.6308 25.3582 48.1996 24.375 48.7663C26.7638 52.9689 32.8758 56.5196 37.8585 56.5439ZM27.3813 30.9685C29.9508 27.5153 33.2618 25.476 37.4807 24.9641C37.6168 24.9478 37.8321 24.7264 37.8361 24.5964C37.8646 23.5646 37.8524 22.5327 37.8524 21.385C32.0674 21.9111 27.6514 24.5314 24.31 29.1952C25.3622 29.8025 26.3454 30.3713 27.3813 30.9685Z" fill="#4244F5"/>
<path d="M19.9691 64.2159C19.9691 65.4225 19.9468 66.5905 19.9874 67.7564C19.9955 67.9819 20.1987 68.2845 20.3997 68.4064C20.9218 68.7233 21.1757 69.1295 21.0497 69.7288C20.9279 70.3097 20.5135 70.5616 19.9529 70.6063C19.7254 70.6245 19.4958 70.6205 19.2683 70.6205C15.1307 70.6205 10.993 70.6205 6.85334 70.6205C6.57506 70.6205 6.23381 70.6977 6.03068 70.5656C5.65897 70.3259 5.18365 70.0009 5.10037 69.6333C5.02725 69.3083 5.3299 68.6928 5.63865 68.5303C6.10178 68.2845 6.16678 68.0144 6.15865 67.5817C6.14037 66.6169 6.17897 65.652 6.13428 64.6892C6.12209 64.4556 5.86818 64.2362 5.73209 64.0067C5.50053 63.6208 5.11459 63.247 5.08006 62.8448C5.03334 62.3005 5.47412 61.9714 6.03678 61.8353C6.27647 61.7764 6.53443 61.6058 6.68475 61.4088C7.36318 60.5231 8.02943 59.6253 8.65303 58.6991C9.04506 58.1141 9.51631 57.8541 10.2333 57.8663C12.1366 57.9028 14.0419 57.8967 15.9452 57.8683C16.5932 57.8581 17.0583 58.0653 17.4219 58.6056C17.9176 59.3409 18.4538 60.0498 18.9819 60.7669C19.3618 61.2828 19.6665 61.7967 20.4201 61.9775C21.2488 62.1766 21.3341 63.3689 20.6293 63.8788C20.4465 64.0108 20.2271 64.088 19.9732 64.218L19.9691 64.2159ZM9.25834 61.7866H16.8674C16.6257 61.4372 16.4144 61.1873 16.2641 60.905C15.9412 60.2916 15.4597 60.1209 14.7813 60.1494C13.5179 60.2042 12.2483 60.1392 10.9829 60.1839C10.6863 60.1941 10.341 60.3911 10.1216 60.6064C9.80475 60.9192 9.58334 61.3275 9.25631 61.7845L9.25834 61.7866ZM9.96522 68.3008V64.1753H8.49865V68.3008H9.96522ZM17.6352 68.2906V64.1794H16.1747V68.2906H17.6352ZM13.7941 68.2987V64.1652H12.356V68.2987H13.7941Z" fill="#4244F5"/>
<path opacity="0.5" d="M33.1214 9.8475C33.5662 10.077 34.0171 10.2944 34.4518 10.5402C35.0937 10.9037 35.307 11.4928 35.0348 12.0717C34.7545 12.6669 34.0923 12.8984 33.4179 12.5633C31.9635 11.8462 30.5193 11.1089 29.0893 10.3472C28.4312 9.99578 28.2606 9.3925 28.6201 8.72828C29.3696 7.34703 30.1456 5.98203 30.9378 4.62515C31.3075 3.99343 31.931 3.82078 32.4917 4.12546C33.0787 4.44437 33.2473 5.09031 32.8959 5.77078C32.5953 6.35375 32.2601 6.91843 31.9148 7.5339C33.4484 7.33078 34.9089 7.08297 36.3795 6.95093C40.5192 6.57718 44.5776 7.04843 48.5446 8.2814C49.3795 8.5414 49.7228 9.13453 49.4871 9.82515C49.2739 10.4508 48.6543 10.7108 47.8357 10.4548C44.4842 9.40875 41.0554 8.96593 37.5556 9.15687C36.0768 9.23812 34.6042 9.46765 33.1295 9.63015C33.1254 9.70328 33.1234 9.77437 33.1193 9.8475H33.1214Z" fill="#4244F5"/>
<path opacity="0.5" d="M68.1929 33.0485C67.9166 33.5806 67.6993 34.0356 67.4495 34.4703C67.0899 35.098 66.4785 35.3072 65.9057 35.0249C65.337 34.7445 65.0973 34.1006 65.4081 33.4669C66.1352 31.9902 66.8827 30.5216 67.6607 29.0713C68.0081 28.4213 68.6174 28.2628 69.2877 28.6264C70.667 29.378 72.036 30.1499 73.3909 30.9461C74.0205 31.3158 74.181 31.9475 73.8641 32.5081C73.5493 33.0647 72.9237 33.2414 72.2798 32.9164C71.6724 32.6097 71.0874 32.2624 70.4577 31.913C70.6527 33.3491 70.8802 34.7181 71.0204 36.0953C71.4429 40.2858 70.9879 44.397 69.7427 48.4149C69.6209 48.811 69.3101 49.2578 68.9607 49.4386C68.6845 49.5808 68.0365 49.4833 67.872 49.2578C67.614 48.9044 67.4759 48.3295 67.551 47.8949C67.7846 46.5766 68.2051 45.2928 68.4488 43.9745C69.0907 40.495 69.0074 37.0114 68.3818 33.536C68.3574 33.3999 68.2823 33.2719 68.1949 33.0464L68.1929 33.0485Z" fill="#4244F5"/>
<path opacity="0.5" d="M45.0248 68.2276C44.3991 67.9026 43.9421 67.6873 43.5074 67.4334C42.8757 67.0658 42.6848 66.4604 42.9854 65.8836C43.2779 65.3209 43.9137 65.0995 44.5515 65.4164C46.0038 66.1334 47.4481 66.8728 48.8781 67.6345C49.5768 68.0062 49.7474 68.5994 49.3635 69.3062C48.6241 70.6631 47.8624 72.0078 47.0824 73.3403C46.6884 74.0126 46.0526 74.1894 45.4737 73.8501C44.9029 73.517 44.7607 72.8772 45.1223 72.1886C45.4229 71.6178 45.7479 71.0592 45.9795 70.6408C43.4079 70.8114 40.818 71.0734 38.2221 71.1283C35.2646 71.1912 32.3782 70.594 29.5487 69.749C28.657 69.4829 28.2791 68.9122 28.5066 68.1972C28.7138 67.5411 29.3354 67.2933 30.2109 67.5594C34.8299 68.967 39.512 69.2554 44.2651 68.4064C44.458 68.3718 44.649 68.317 45.0248 68.2276Z" fill="#4244F5"/>
<path opacity="0.5" d="M9.84763 44.8784C10.0772 44.4356 10.2925 43.9847 10.5383 43.552C10.9059 42.904 11.4828 42.6908 12.0658 42.9629C12.6711 43.2473 12.9026 43.8973 12.5695 44.5758C11.8525 46.0301 11.1151 47.4744 10.3514 48.9044C9.99794 49.5665 9.40481 49.7433 8.73653 49.3817C7.33294 48.622 5.94357 47.8339 4.56638 47.0254C3.97732 46.6801 3.82903 46.0586 4.12357 45.5142C4.43028 44.9454 5.05388 44.7525 5.69575 45.0714C6.30513 45.3761 6.89216 45.7234 7.532 46.0769C7.32888 44.529 7.077 43.0462 6.94497 41.5512C6.58544 37.4359 7.05466 33.4019 8.2795 29.4592C8.53747 28.6264 9.12856 28.279 9.81919 28.5106C10.4489 28.7219 10.7129 29.3394 10.457 30.1559C9.417 33.4811 8.97013 36.8875 9.15497 40.3609C9.23419 41.8661 9.46372 43.3651 9.62419 44.8662C9.69935 44.8703 9.77247 44.8744 9.84763 44.8764V44.8784Z" fill="#4244F5"/>
<path d="M71.8778 62.53C71.7457 63.9376 71.7336 65.3697 71.4553 66.7489C71.0389 68.8167 69.8384 70.4458 68.1301 71.6747C67.3501 72.2373 66.5214 72.7309 65.715 73.2591C65.2518 73.5637 64.7806 73.6389 64.2931 73.3241C63.379 72.7309 62.4284 72.1866 61.5631 71.5284C59.2718 69.7917 58.1547 67.4334 58.0917 64.5755C58.0592 63.0297 58.0775 61.4819 58.0876 59.9341C58.0937 58.9814 58.3497 58.6564 59.2718 58.4634C61.0228 58.0998 62.6579 57.4559 64.2281 56.5967C64.5978 56.3936 65.2661 56.3855 65.6297 56.5886C67.2425 57.4844 68.9243 58.1384 70.7322 58.4878C71.439 58.6239 71.764 59.0667 71.76 59.7777C71.7539 60.6897 71.76 61.6037 71.76 62.5158C71.8006 62.5198 71.8392 62.5239 71.8798 62.5259L71.8778 62.53ZM63.765 59.4709C62.792 59.798 61.8718 60.1453 60.9293 60.4114C60.5109 60.5292 60.3504 60.6856 60.3626 61.1284C60.3911 62.2944 60.3504 63.4644 60.3809 64.6303C60.4297 66.4909 61.1061 68.0916 62.5056 69.3469C62.8672 69.6719 63.2856 69.9339 63.767 70.2914V59.4709H63.765ZM66.1456 59.4852V70.2406C67.7889 69.2798 68.9528 67.9737 69.2331 66.2066C69.5276 64.352 69.4667 62.4427 69.5561 60.6409C68.2987 60.2144 67.2262 59.8508 66.1456 59.4852Z" fill="#4244F5"/>
<path d="M64.6874 23.853C58.6525 23.6194 53.9238 18.6651 54.1452 12.807C54.3788 6.6564 59.3777 2.0353 65.5141 2.2953C71.3519 2.54311 75.9344 7.62327 75.7049 13.5951C75.4855 19.3355 70.3972 24.0723 64.6853 23.853H64.6874ZM64.9778 7.0139C63.1274 7.0139 61.2769 7.00577 59.4244 7.01593C57.9477 7.02405 57.1189 7.85077 57.1128 9.32952C57.1027 11.8137 57.1027 14.298 57.1128 16.7842C57.1189 18.2792 57.8989 19.108 59.4041 19.1181C63.0806 19.1445 66.7572 19.1425 70.4338 19.1181C71.943 19.108 72.7474 18.3016 72.7636 16.8045C72.79 14.3203 72.788 11.8361 72.7636 9.34983C72.7494 7.82233 71.9084 7.02202 70.3789 7.0139C68.5792 7.00577 66.7795 7.0139 64.9778 7.0139Z" fill="white"/>
<path d="M23.1683 46.8244C20.743 41.5635 20.745 36.4081 23.1683 31.1777C24.2307 31.7931 25.2138 32.3599 26.1827 32.9205C24.446 38.8395 24.448 40.2147 26.2091 45.0531C25.2402 45.6158 24.2611 46.1866 23.1663 46.8224L23.1683 46.8244Z" fill="white"/>
<path d="M51.752 32.9611C52.798 32.3558 53.7791 31.7911 54.8313 31.1817C57.2566 36.4223 57.2485 41.5776 54.8273 46.8142C53.7771 46.2069 52.796 45.6401 51.758 45.0409C52.6538 43.1051 53.1129 41.0942 53.1109 38.9959C53.1088 36.918 52.6721 34.9233 51.752 32.959V32.9611Z" fill="white"/>
<path d="M53.6228 29.2338C52.6417 29.8025 51.6606 30.3713 50.645 30.9583C50.2266 30.4627 49.8386 29.967 49.4141 29.506C47.0802 26.9628 44.1917 25.4617 40.7752 25.0128C40.2917 24.9499 40.1191 24.8097 40.1353 24.3242C40.1658 23.3919 40.1434 22.4555 40.1434 21.5333C44.0658 20.9016 51.2564 25.0169 53.6228 29.2358V29.2338Z" fill="white"/>
<path d="M37.8565 56.5439C32.8738 56.5195 26.7618 52.9689 24.373 48.7663C25.3562 48.1995 26.3413 47.6308 27.3691 47.0377C27.5377 47.2469 27.6982 47.4378 27.8526 47.6328C30.2495 50.6553 33.3593 52.455 37.176 52.9791C37.7549 53.0583 37.887 53.2573 37.8666 53.7814C37.8321 54.6853 37.8565 55.5913 37.8565 56.5439Z" fill="white"/>
<path d="M27.3794 30.9684C26.3434 30.3713 25.3603 29.8025 24.3081 29.1952C27.6495 24.5314 32.0654 21.9111 37.8504 21.385C37.8504 22.5327 37.8626 23.5666 37.8342 24.5964C37.8301 24.7264 37.6169 24.9458 37.4787 24.9641C33.2619 25.4759 29.9489 27.5153 27.3794 30.9684Z" fill="white"/>
<path d="M64.9796 7.01392C66.7792 7.01392 68.5789 7.00782 70.3806 7.01392C71.9102 7.02204 72.7491 7.82235 72.7653 9.34985C72.7897 11.8341 72.7917 14.3203 72.7653 16.8045C72.7491 18.3016 71.9467 19.11 70.4355 19.1181C66.7589 19.1425 63.0824 19.1425 59.4058 19.1181C57.9006 19.108 57.1206 18.2792 57.1146 16.7842C57.1044 14.3 57.1044 11.8158 57.1146 9.32954C57.1206 7.85079 57.9494 7.02407 59.4261 7.01595C61.2766 7.00376 63.1271 7.01392 64.9796 7.01392ZM59.4363 9.32142V12.9452H70.4274V9.32142H59.4363ZM70.4416 15.3705H59.4444V16.7903H70.4416V15.3705Z" fill="#4244F5"/>
<path d="M37.8278 45.7173C37.058 45.3781 36.3247 45.108 35.6422 44.7403C34.982 44.3848 34.8013 43.6922 35.1263 43.1315C35.4513 42.5669 36.1256 42.384 36.7736 42.7923C37.5049 43.2514 38.2788 43.3611 39.1035 43.288C39.9688 43.2108 40.6147 42.5811 40.7163 41.7361C40.8138 40.9215 40.4786 40.4442 39.5645 40.103C38.878 39.847 38.1691 39.6337 37.5069 39.327C36.0911 38.6709 35.3192 37.5395 35.305 35.9714C35.2908 34.452 36.0403 33.3937 37.3972 32.7153C37.6166 32.6056 37.7486 32.2522 37.8481 31.984C37.9842 31.6164 37.9395 31.1086 38.1792 30.8689C38.4331 30.615 38.9978 30.4261 39.3066 30.5398C39.6499 30.6658 40.0825 31.1655 40.0785 31.4986C40.0724 32.3111 40.377 32.7376 41.1124 32.9915C41.3845 33.085 41.6222 33.3226 41.8375 33.5339C42.3291 34.0133 42.3677 34.712 41.9533 35.169C41.5552 35.6098 40.9377 35.6078 40.3628 35.2787C39.92 35.0269 39.4224 34.7953 38.9247 34.7344C38.297 34.6572 37.771 34.974 37.6247 35.6464C37.4805 36.3106 37.7141 36.8753 38.3336 37.1759C38.9227 37.4623 39.5442 37.6919 40.1678 37.897C41.8111 38.4373 42.9039 39.4651 43.0075 41.2567C43.1131 43.0564 42.262 44.3767 40.6797 45.1973C40.2816 45.4045 40.1333 45.6137 40.1333 46.0545C40.1333 47.0701 39.7575 47.5353 39.0161 47.5455C38.2747 47.5556 37.905 47.0884 37.8563 46.085C37.8502 45.9367 37.8339 45.7884 37.8278 45.7194V45.7173Z" fill="#4244F5"/>
</g>
<defs>
<clipPath id="clip0_3455_5118">
<rect width="78" height="78" fill="white"/>
</clipPath>
</defs>
</svg>
