<svg width="100" height="100" viewBox="0 0 100 100" fill="none" xmlns="http://www.w3.org/2000/svg">
<path d="M59.6501 37.9073C59.0765 36.2818 58.0127 34.8743 56.6054 33.879C55.1981 32.8836 53.5166 32.3495 51.7929 32.3501H45.3429C43.5028 32.3405 41.7244 33.0135 40.3518 34.2391C38.9791 35.4646 38.1096 37.1556 37.9115 38.9851C37.7134 40.8145 38.2006 42.6525 39.2791 44.1435C40.3575 45.6345 41.9505 46.6727 43.7501 47.0573L53.5715 49.2001C55.5797 49.6398 57.3547 50.806 58.5553 52.4748C59.7559 54.1436 60.2975 56.1972 60.076 58.241C59.8545 60.2849 58.8856 62.1748 57.3553 63.5476C55.8251 64.9205 53.8416 65.6794 51.7858 65.6787H46.2358C42.6072 65.6787 39.5215 63.3644 38.3786 60.1287M49.0143 32.3501V24.0144M49.0143 74.0144V65.6858M14.2715 96.4144V78.5573H32.1286" stroke="#4244F5" stroke-width="7.14286" stroke-linecap="round" stroke-linejoin="round"/>
<path d="M95.6283 41.4572C97.5246 51.5658 96.0106 62.018 91.3241 71.1732C86.6376 80.3284 79.0438 87.6683 69.7346 92.0409C60.4254 96.4135 49.9279 97.5713 39.8895 95.3326C29.8511 93.0938 20.8403 87.5853 14.2712 79.6715M4.37119 58.5429C2.47494 48.4342 3.98888 37.9821 8.6754 28.8269C13.3619 19.6717 20.9557 12.3318 30.2649 7.95917C39.5741 3.58655 50.0717 2.42875 60.11 4.66751C70.1484 6.90626 79.1593 12.4148 85.7283 20.3286" stroke="#4244F5" stroke-width="7.14286" stroke-linecap="round" stroke-linejoin="round"/>
<path d="M85.7282 3.58569V21.4428H67.8711" stroke="#4244F5" stroke-width="7.14286" stroke-linecap="round" stroke-linejoin="round"/>
</svg>
