<svg width="64" height="64" viewBox="0 0 64 64" fill="none" xmlns="http://www.w3.org/2000/svg">
<g clip-path="url(#clip0_3455_5103)">
<path opacity="0.5" d="M27.6804 36.4345C27.1177 36.6865 26.5912 36.9197 26.0665 37.158C24.9929 37.6449 24.6235 37.5146 24.1368 36.4722C23.7933 35.735 23.4377 35.0012 23.115 34.2537C22.9648 33.9056 22.7939 33.849 22.4228 33.9656C20.4707 34.576 20.4862 34.5554 19.7785 32.6043C18.2544 28.3987 16.7079 24.1999 15.17 19.9994C15.1044 19.8211 15.0267 19.648 14.9301 19.4148C12.7967 20.2686 10.5528 19.7337 8.40217 20.0372C6.07892 20.3646 3.77465 20.188 1.46348 20.2669C0.294944 20.3046 0.00151661 19.9874 -0.000209432 18.8422C-0.000209432 15.264 -0.00193548 11.6842 -0.000209432 8.10606C-0.000209432 7.02936 0.3053 6.7259 1.3789 6.72418C3.04108 6.72075 4.70154 6.74647 6.36372 6.70875C6.81767 6.69846 7.30786 6.59217 7.71521 6.39329C10.6564 4.96169 13.5751 3.48895 16.5094 2.04364C19.7388 0.452597 22.8423 0.685767 25.78 2.76201C27.3075 3.84213 28.8144 4.95483 30.3074 6.08296C30.7424 6.41215 31.1048 6.49101 31.6485 6.30413C37.5723 4.2759 43.5082 2.27852 49.4423 0.276005C50.8007 -0.181762 50.8197 -0.15776 51.6689 0.999518C55.5594 6.29385 59.4568 11.583 63.3525 16.8739C63.4423 16.9957 63.5303 17.1157 63.6183 17.2374C64.1931 18.0364 64.1327 18.4598 63.3456 19.0839C62.2185 19.9771 61.0068 20.7298 59.7658 21.4688C56.0341 23.6907 52.387 26.0533 48.7191 28.3816C42.8696 32.0951 37.0321 35.8258 31.1877 39.5463C30.4558 40.0126 29.9674 39.9132 29.4944 39.2017C28.8886 38.2947 28.2983 37.3775 27.6786 36.4328L27.6804 36.4345ZM22.6852 24.8737C24.6788 24.9869 25.547 25.3263 26.5187 26.4785C26.8208 26.8351 27.0762 26.8934 27.4922 26.7528C30.8718 25.6024 34.2583 24.4708 37.6414 23.3255C41.2678 22.098 44.8908 20.8601 48.5172 19.6308C48.8313 19.5245 49.073 19.4525 49.0695 19.005C49.0592 17.6146 49.6564 16.495 50.7386 15.6104C50.8801 15.4938 50.9802 15.1594 50.9198 14.9897C50.3105 13.2992 49.6684 11.619 49.0125 9.9457C48.9539 9.79482 48.7277 9.60623 48.581 9.60795C47.1381 9.62852 46.0161 9.00959 45.0565 7.98947C44.9149 7.84031 44.5645 7.7443 44.3695 7.80602C39.7575 9.27534 35.1559 10.7738 30.5473 12.2534C30.1693 12.3751 29.9622 12.538 29.8396 12.9529C29.094 15.4732 26.9606 17.0471 24.3163 17.078C23.7346 17.0848 23.1512 17.0591 22.5695 17.0917C22.39 17.102 22.1708 17.2203 22.0535 17.3591C21.5339 17.9746 21.0454 18.6158 20.4517 19.3685C21.149 21.0916 21.9102 22.9706 22.6817 24.8754L22.6852 24.8737ZM28.6435 7.31568C27.002 6.13097 25.5435 4.94626 23.9573 3.96386C22 2.75172 19.8717 2.64885 17.7763 3.65868C14.7143 5.13485 11.6851 6.67789 8.63346 8.17464C8.27445 8.35123 8.14327 8.55525 8.14672 8.95644C8.16398 11.7631 8.15535 14.5714 8.1588 17.378C8.1588 17.5614 8.18469 17.7466 8.19678 17.9163C9.81063 17.9163 11.371 18.0295 12.9072 17.8838C14.3829 17.7432 15.5963 16.9254 16.6285 15.8572C16.9168 15.5589 17.2861 15.1766 17.6486 15.1423C18.9518 15.0189 20.267 15.0017 21.5771 14.9931C22.5851 14.988 23.5965 15.1097 24.6028 15.0789C26.1666 15.0326 27.6804 13.7416 27.8081 12.3991C27.5699 12.3991 27.3334 12.3991 27.0987 12.3991C24.1644 12.3991 21.2301 12.4026 18.2959 12.3974C17.5657 12.3974 17.1049 12.0117 17.0894 11.4219C17.0738 10.8372 17.5381 10.4343 18.2562 10.4035C18.7722 10.3812 19.3246 10.4652 19.7975 10.3109C22.7128 9.35763 25.6108 8.34951 28.6452 7.31568H28.6435ZM26.4704 10.2132C26.4773 10.2715 26.4842 10.328 26.4911 10.3863C27.6027 10.3863 28.7591 10.5852 29.8138 10.3435C31.759 9.89941 33.6525 9.21704 35.5563 8.59811C38.6269 7.60028 41.6872 6.56988 44.7527 5.55833C45.5294 5.30116 45.992 5.44346 46.2561 6.08811C46.7152 7.20424 48.0408 7.87974 49.1575 7.50084C49.841 7.26939 50.2657 7.52828 50.5177 8.19693C51.4135 10.5595 52.3041 12.9238 53.193 15.288C53.5106 16.135 53.3397 16.5156 52.4888 16.9099C51.3979 17.4157 50.8991 18.3793 51.1287 19.5348C51.3306 20.5464 51.1908 20.8138 50.1949 21.1567C46.836 22.3106 43.4771 23.461 40.1131 24.5977C35.7272 26.0773 31.3379 27.5432 26.9485 29.0091C26.0907 29.2954 25.6609 29.1274 25.3623 28.4227C24.8583 27.2346 23.8347 26.7134 22.5385 26.986C21.6271 27.178 21.2422 26.9517 20.9264 26.0636C20.6674 25.3383 20.3999 24.6165 20.1237 23.8965C19.5472 22.398 18.9431 20.9098 18.3856 19.4045C18.0249 18.4324 18.1612 18.1529 19.0639 17.6386C19.2763 17.5186 19.4678 17.3643 19.7371 17.1791C18.4995 16.9528 18.4339 17.0265 17.3655 17.8872C16.8253 18.3227 16.8028 18.6656 17.0324 19.2811C18.5513 23.3307 20.0185 27.3974 21.5063 31.4591C21.584 31.6716 21.6841 31.8757 21.7773 32.0917C33.3677 28.337 44.9063 24.5994 56.4984 20.8447C54.3115 14.5474 52.1678 8.37695 50.005 2.15165C42.0462 4.8794 34.2583 7.54713 26.4687 10.2166L26.4704 10.2132ZM6.05821 18.2627V8.73527H2.06932V18.2627H6.05648H6.05821ZM30.7475 37.4495C35.3492 34.5263 39.9146 31.6254 44.48 28.7244C44.4558 28.6816 44.4299 28.6387 44.4057 28.5976C39.4468 30.9053 34.4879 33.213 29.4944 35.5361C29.938 36.2133 30.3247 36.8031 30.7475 37.4495ZM24.8238 33.201C25.1517 33.8885 25.4331 34.48 25.7282 35.104C30.6129 32.8204 35.4338 30.5675 40.2529 28.3147C40.2408 28.2821 40.2287 28.2495 40.2149 28.2187C35.1075 29.8714 30.0019 31.5259 24.822 33.2027L24.8238 33.201ZM61.6178 17.8958C60.1576 15.9121 58.7388 13.9867 57.3217 12.0614C57.2872 12.0819 57.2509 12.1025 57.2164 12.1214C58.328 14.3039 59.4379 16.4847 60.5701 18.7067C60.9637 18.4015 61.2657 18.1684 61.6178 17.8958ZM58.2693 19.8263C58.3349 19.84 58.4005 19.8537 58.4661 19.8674C58.53 19.7097 58.6922 19.5074 58.6439 19.4011C58.2676 18.5901 57.8499 17.798 57.4443 17.0008C57.4011 17.0197 57.358 17.0402 57.3148 17.0591L58.271 19.8246L58.2693 19.8263Z" fill="#3029D9"/>
<path d="M30.4832 50.9511C31.7726 48.7514 33.6833 47.8256 36.1688 47.901C37.8276 47.9524 39.4915 47.9267 41.1519 47.8941C41.4298 47.889 41.7733 47.7347 41.9666 47.5358C43.4596 45.9979 45.272 45.1681 47.4106 45.0618C48.3789 45.0138 49.3524 45.0498 50.3224 45.0258C51.0387 45.0087 51.7844 45.1801 52.442 44.7001C52.5766 44.6023 52.8183 44.6349 53.0116 44.6349C54.8671 44.6315 56.7226 44.6281 58.5781 44.6349C59.5705 44.6383 59.8933 44.9607 59.8933 45.9551C59.8968 49.5966 59.8985 53.2399 59.8933 56.8815C59.8933 57.8604 59.5516 58.1896 58.5677 58.1913C56.8848 58.1948 55.2019 58.1793 53.5208 58.2033C53.1911 58.2085 52.8355 58.2908 52.5404 58.4348C49.5077 59.9213 46.4785 61.4146 43.4631 62.9353C40.0956 64.6344 36.892 64.2726 33.9232 62.0832C29.6979 58.9663 25.4087 55.9488 20.9002 53.2485C20.6413 53.0942 20.3876 52.933 20.127 52.7804C18.4389 51.7946 17.9194 49.9052 18.8773 48.237C19.8094 46.6169 21.7305 46.0888 23.403 47.0129C25.7556 48.3125 28.103 49.6258 30.4867 50.9528L30.4832 50.9511ZM51.705 47.0112C50.3949 47.0112 49.128 46.9855 47.8611 47.0163C46.028 47.0609 44.4366 47.6884 43.2646 49.1337C42.7848 49.7252 42.2393 49.9532 41.4799 49.9395C39.4518 49.9018 37.4237 49.9087 35.3956 49.9327C33.7575 49.9515 32.249 51.1842 32.1195 52.6158C32.3543 52.6158 32.5873 52.6158 32.8186 52.6158C35.7529 52.6158 38.6889 52.6124 41.6231 52.6193C42.3567 52.621 42.8107 53.0153 42.8089 53.6051C42.8089 54.1983 42.3498 54.5892 41.6197 54.5892C38.102 54.5926 34.5843 54.5926 31.0666 54.5892C30.1967 54.5892 29.8964 54.2497 29.8515 53.3788C29.8394 53.1559 29.6824 52.849 29.4959 52.7427C27.1451 51.3934 24.7787 50.0698 22.4088 48.7514C21.7063 48.3605 21.0107 48.5525 20.6258 49.2023C20.215 49.8967 20.3893 50.5893 21.0901 51.0265C21.3645 51.1962 21.6424 51.3608 21.9186 51.5271C26.4788 54.2703 30.8388 57.3015 35.1039 60.4785C37.4237 62.2067 39.9247 62.4896 42.5707 61.1454C45.4083 59.7018 48.2667 58.2994 51.1285 56.9003C51.5669 56.686 51.755 56.4494 51.7498 55.9334C51.7188 53.1902 51.736 50.447 51.7343 47.7038C51.7343 47.4947 51.7153 47.2872 51.7015 47.0129L51.705 47.0112ZM53.8487 46.6391V56.1631H57.8186V46.6391H53.8487Z" fill="#3029D9"/>
<path d="M28.6421 7.31568C25.6094 8.34951 22.7114 9.35763 19.7944 10.3109C19.3214 10.4652 18.7691 10.3812 18.253 10.4035C17.5367 10.4343 17.0724 10.8389 17.0862 11.4219C17.1017 12.0117 17.5626 12.3957 18.2927 12.3974C21.227 12.4026 24.1613 12.3991 27.0955 12.3991C27.332 12.3991 27.5667 12.3991 27.8049 12.3991C27.6772 13.7416 26.1635 15.0326 24.5997 15.0789C23.5934 15.108 22.5819 14.9863 21.5739 14.9931C20.2639 15.0017 18.9469 15.0189 17.6454 15.1423C17.283 15.1766 16.9136 15.5606 16.6254 15.8572C15.5932 16.9254 14.3798 17.7432 12.904 17.8838C11.3678 18.0295 9.80575 17.9163 8.19363 17.9163C8.18154 17.7449 8.15565 17.5614 8.15565 17.378C8.15393 14.5714 8.16256 11.7631 8.14357 8.95644C8.14185 8.55525 8.27302 8.35123 8.63032 8.17464C11.682 6.67789 14.7112 5.13485 17.7732 3.65868C19.8669 2.64885 21.9951 2.75172 23.9541 3.96386C25.5404 4.94626 26.9989 6.12926 28.6403 7.31568H28.6421Z" fill="white"/>
<path d="M26.469 10.2132C34.2569 7.54374 42.0466 4.876 50.0053 2.14825C52.1681 8.37355 54.3118 14.544 56.4987 20.8413C44.9049 24.596 33.368 28.3336 21.7776 32.0883C21.6844 31.8723 21.5843 31.6683 21.5066 31.4557C20.0205 27.394 18.5534 23.3256 17.0327 19.2777C16.8014 18.6622 16.8239 18.3193 17.3659 17.8838C18.4343 17.0248 18.4999 16.9494 19.7374 17.1757C19.4682 17.3609 19.2766 17.5152 19.0643 17.6352C18.1616 18.1495 18.0269 18.429 18.3859 19.4011C18.9435 20.9064 19.5476 22.3946 20.1241 23.8931C20.4002 24.6114 20.6678 25.3332 20.9267 26.0602C21.2425 26.9466 21.6275 27.1746 22.5388 26.9826C23.8351 26.71 24.8586 27.2295 25.3626 28.4193C25.6612 29.124 26.091 29.2937 26.9488 29.0057C31.3382 27.5398 35.7275 26.0739 40.1134 24.5943C43.4774 23.4593 46.8381 22.3089 50.1952 21.1533C51.1911 20.8104 51.331 20.543 51.129 19.5314C50.8994 18.3759 51.3983 17.4123 52.4891 16.9065C53.3401 16.5122 53.5109 16.1333 53.1934 15.2846C52.3062 12.9186 51.4138 10.5561 50.518 8.19353C50.2643 7.52659 49.8396 7.26599 49.1579 7.49745C48.0411 7.87635 46.7155 7.20084 46.2564 6.08471C45.9923 5.44007 45.528 5.29948 44.753 5.55494C41.6875 6.5682 38.6273 7.59689 35.5566 8.59472C33.6528 9.21365 31.7611 9.89601 29.8141 10.3401C28.7595 10.5818 27.6013 10.3829 26.4914 10.3829C26.4845 10.3246 26.4776 10.2681 26.4707 10.2098L26.469 10.2132Z" fill="white"/>
<path d="M30.7463 37.4495C30.3234 36.8031 29.9368 36.2133 29.4932 35.5361C34.4849 33.213 39.4455 30.9053 44.4045 28.5976C44.4286 28.6405 44.4545 28.6833 44.4787 28.7245C39.9133 31.6254 35.3479 34.5263 30.7463 37.4495Z" fill="white"/>
<path opacity="0.5" d="M24.8223 33.201C30.0021 31.5242 35.1095 29.8697 40.2151 28.217C40.2272 28.2496 40.2393 28.2821 40.2531 28.313C35.4323 30.5658 30.6131 32.8187 25.7284 35.1024C25.4316 34.4783 25.1502 33.8885 24.824 33.1993L24.8223 33.201Z" fill="white"/>
<path d="M61.6143 17.8941C61.2622 18.1667 60.9601 18.4016 60.5666 18.705C59.4343 16.4831 58.3245 14.3005 57.2129 12.1197C57.2474 12.0991 57.2837 12.0786 57.3182 12.0597C58.7353 13.9851 60.1541 15.9104 61.6143 17.8941Z" fill="white"/>
<path d="M58.2677 19.8246L57.3115 17.0591C57.3547 17.0403 57.3978 17.0197 57.441 17.0009C57.8466 17.7981 58.2643 18.5902 58.6406 19.4011C58.6906 19.5074 58.5284 19.7097 58.4628 19.8675C58.3972 19.8538 58.3316 19.84 58.266 19.8263L58.2677 19.8246Z" fill="white"/>
<path d="M51.7055 47.0112C51.7193 47.2855 51.7383 47.4929 51.7383 47.7021C51.7401 50.4453 51.7228 53.1884 51.7539 55.9316C51.759 56.4477 51.5726 56.6843 51.1325 56.8986C48.2724 58.2976 45.4141 59.7001 42.5748 61.1436C39.9287 62.4895 37.4277 62.2066 35.1079 60.4767C30.8428 57.2998 26.4829 54.2686 21.9226 51.5254C21.6465 51.3591 21.3669 51.1962 21.0941 51.0248C20.3934 50.5893 20.2173 49.8949 20.6298 49.2005C21.0147 48.5508 21.7103 48.3604 22.4128 48.7496C24.781 50.0681 27.1474 51.3934 29.5 52.741C29.6847 52.8473 29.8435 53.1541 29.8555 53.377C29.9004 54.2497 30.2007 54.5875 31.0707 54.5875C34.5884 54.5909 38.106 54.5909 41.6237 54.5875C42.3538 54.5875 42.8112 54.1966 42.813 53.6033C42.813 53.0136 42.3607 52.6192 41.6272 52.6175C38.6929 52.6107 35.7569 52.6141 32.8226 52.6141C32.5913 52.6141 32.3583 52.6141 32.1236 52.6141C32.253 51.1825 33.7616 49.9498 35.3996 49.9309C37.4277 49.9069 39.4575 49.8983 41.4839 49.9378C42.2434 49.9515 42.7888 49.7235 43.2686 49.132C44.4406 47.6867 46.0338 47.0609 47.8651 47.0146C49.132 46.9837 50.3989 47.0094 51.709 47.0094L51.7055 47.0112Z" fill="white"/>
<path d="M53.8496 46.6392H57.8195V56.1631H53.8496V46.6392Z" fill="white"/>
</g>
<defs>
<clipPath id="clip0_3455_5103">
<rect width="64" height="64" fill="white"/>
</clipPath>
</defs>
</svg>
