<svg width="75" height="79" viewBox="0 0 75 79" fill="none" xmlns="http://www.w3.org/2000/svg">
<g clip-path="url(#clip0_3455_5157)">
<path opacity="0.5" d="M10.5635 53.4002C13.2002 50.8542 15.8602 48.1937 18.6262 45.6498C20.3536 44.062 22.5007 43.2374 24.8492 43.1632C27.4414 43.0805 30.0421 43.1017 32.6364 43.1611C34.7051 43.2077 36.5491 44.0239 38.2638 45.1283C38.959 45.5756 39.6775 45.7389 40.5062 45.7325C45.0887 45.7028 49.6733 45.7092 54.2557 45.7219C56.7886 45.7283 58.7152 47.4009 58.8975 49.7031C59.1095 52.3805 57.2082 54.5301 54.5122 54.5576C50.909 54.5958 47.3057 54.5682 43.7025 54.5703C43.0412 54.5703 42.3778 54.5597 41.7165 54.5746C41.0891 54.5894 40.5995 54.8396 40.608 55.5434C40.6165 56.2451 41.0934 56.4783 41.7356 56.4783C46.0806 56.4719 50.4257 56.5185 54.7708 56.4465C58.0561 56.3913 60.661 53.7266 60.8348 50.4578C60.8517 50.1207 60.9683 49.7115 61.1866 49.472C63.9208 46.4787 66.6741 43.5045 69.4422 40.543C70.4935 39.4173 71.8013 39.2159 73.1196 39.907C74.4719 40.6151 75.2349 42.0079 74.9382 43.3773C74.8344 43.8522 74.6033 44.3334 74.3172 44.7298C70.4469 50.1016 66.5766 55.4734 62.6618 60.8134C60.2053 64.165 56.867 65.7719 52.6873 65.7422C45.8517 65.6956 39.0162 65.7295 32.1807 65.7295C28.4355 65.7295 28.0497 65.8779 25.4596 68.303C20.5232 63.3616 15.5868 58.4222 10.5656 53.3959L10.5635 53.4002Z" fill="#3029D9"/>
<path opacity="0.5" d="M6.4033 52.3805C13.1117 59.0963 19.9027 65.8927 26.6428 72.6382C24.5423 74.7411 22.3974 76.8886 20.2842 79C13.5568 72.2715 6.76151 65.4751 -0.00195312 58.7126C2.10699 56.6266 4.2668 54.4919 6.40118 52.3805H6.4033Z" fill="#3029D9"/>
<path d="M57.501 10.3366H63.9317V34.2851H57.501V10.3366Z" fill="#3029D9"/>
<path d="M45.1332 36.2481C52.0175 36.2481 58.9017 36.2481 65.7881 36.2481C66.9369 36.2481 66.9729 36.2778 66.9687 37.3886C66.9602 39.7798 67.204 39.4407 64.8852 39.4428C51.407 39.4513 37.9289 39.447 24.4507 39.447C23.5633 39.447 23.1196 39.016 23.1196 38.1539C23.1239 36.0213 22.9077 36.2502 25.0378 36.2481C31.7377 36.2439 38.4354 36.2481 45.1353 36.2481H45.1332Z" fill="#3029D9"/>
<path d="M47.1113 15.3523H53.5675V34.2893H47.1113V15.3523Z" fill="#3029D9"/>
<path d="M29.5294 21.0039C25.6168 20.9976 22.4671 17.8389 22.4756 13.9298C22.4841 10.0335 25.6719 6.84939 29.5549 6.85787C33.4358 6.86635 36.6235 10.0674 36.6193 13.9532C36.6151 17.8474 33.4358 21.0082 29.5316 21.0018L29.5294 21.0039ZM31.3586 13.2006C32.2234 12.9314 32.4544 12.2912 32.1428 11.5746C31.9139 11.0447 31.4413 10.6207 31.0767 10.1501C30.869 9.88084 30.6846 9.58829 30.443 9.35298C30.1632 9.07952 29.8453 8.69158 29.521 8.66826C29.2475 8.64706 28.9148 9.04984 28.6541 9.3127C28.3976 9.56921 28.2471 9.94867 27.9652 10.1607C27.128 10.7882 26.721 11.5704 26.8588 12.6261C26.9987 13.7009 27.6876 14.2266 28.6647 14.481C29.15 14.6061 29.6524 14.6951 30.1144 14.8838C30.3158 14.9665 30.5723 15.2569 30.5617 15.4413C30.5489 15.6766 30.3455 15.984 30.1335 16.1133C29.4701 16.5182 28.6901 16.1727 28.4739 15.4032C28.3086 14.8117 27.9758 14.4471 27.34 14.5637C26.6914 14.6824 26.5345 15.17 26.6002 15.7678C26.702 16.6878 27.2403 17.292 27.9801 17.7923C28.2492 17.9746 28.3997 18.3223 28.6456 18.5491C28.9317 18.812 29.2687 19.2126 29.5718 19.202C29.8749 19.1914 30.1801 18.7653 30.4557 18.4918C30.6422 18.3074 30.7355 17.9704 30.9474 17.8771C32.6091 17.1521 33.2641 14.5828 31.3628 13.2048L31.3586 13.2006Z" fill="#3029D9"/>
<path d="M43.1661 20.3976V34.2893H36.6973V20.3976H43.1661Z" fill="#3029D9"/>
<path d="M61.5221 2.21316C60.9731 2.0584 60.6383 1.98421 60.3224 1.86761C59.7692 1.6641 59.5191 1.2486 59.6845 0.676233C59.8392 0.139899 60.2673 -0.0954091 60.7972 0.0339045C61.9524 0.315851 63.099 0.631715 64.2415 0.964538C64.8159 1.13201 65.0448 1.57719 64.907 2.1432C64.6293 3.2731 64.3157 4.39241 64.0041 5.51383C63.843 6.0968 63.4254 6.34059 62.8532 6.20704C62.2576 6.06713 62.0753 5.62619 62.1855 5.04958C62.2491 4.71887 62.3275 4.39029 62.4314 3.90271C62.0647 4.10834 61.821 4.23978 61.5814 4.37757C59.5424 5.55411 57.4907 6.70945 55.4729 7.92203C54.8159 8.31633 54.2775 8.30362 53.6416 7.90508C52.6349 7.27335 51.573 6.72641 50.5619 6.0968C50.102 5.8085 49.7586 5.81062 49.2902 6.10952C46.6811 7.77364 44.0486 9.40172 41.4225 11.0404C41.1978 11.1803 40.9477 11.4241 40.7357 11.3987C40.3585 11.3541 39.8392 11.2397 39.6802 10.9726C39.5255 10.7139 39.6993 10.2136 39.8201 9.84902C39.8731 9.69003 40.1444 9.59675 40.3224 9.4844C43.2156 7.67401 46.1194 5.88057 48.9977 4.04687C49.6145 3.65469 50.1274 3.62077 50.7485 4.00659C51.8506 4.68919 52.9803 5.32516 54.1122 5.95477C54.3093 6.06501 54.6463 6.1498 54.8137 6.05653C57.0011 4.82911 59.1673 3.56989 61.5221 2.21316Z" fill="#3029D9"/>
<path d="M26.3291 25.4409H32.7619V34.2851H26.3291V25.4409Z" fill="#3029D9"/>
<path d="M30.6083 12.9886C30.0975 12.8614 29.6545 12.7957 29.2497 12.6346C29.0526 12.5562 28.9254 12.2975 28.7686 12.1216C28.9551 11.9584 29.1204 11.704 29.3345 11.6531C29.8092 11.5407 30.212 11.6912 30.3603 12.2318C30.4218 12.4544 30.5045 12.6728 30.6083 12.9886Z" fill="#3029D9"/>
</g>
<defs>
<clipPath id="clip0_3455_5157">
<rect width="75" height="79" fill="white"/>
</clipPath>
</defs>
</svg>
