<svg width="78" height="80" viewBox="0 0 78 80" fill="none" xmlns="http://www.w3.org/2000/svg">
<g clip-path="url(#clip0_3455_5063)">
<path opacity="0.5" d="M63.2061 80C62.6548 79.8854 62.1035 79.7813 61.5543 79.6563C55.0973 78.1729 50.8208 72.2792 51.1643 65.3396C51.4749 59.0792 56.5681 53.6375 62.8667 52.8396C70.1177 51.9209 76.9387 57.1313 77.8705 64.3021C78.8744 72.025 73.8882 78.7959 66.413 79.8625C66.2649 79.8834 66.125 79.9521 65.981 80H63.204H63.2061ZM70.6463 62.7875C70.9117 62.5584 71.2058 62.3084 71.4959 62.0542C71.9813 61.625 72.0081 61.1938 71.5185 60.7375C71.1585 60.4021 70.8232 60.0417 70.4776 59.6917C69.5108 58.7104 69.4738 58.6959 68.542 59.6771C68.1799 60.0584 67.9146 60.1188 67.3695 59.9438C66.5508 59.6792 66.3945 59.2313 66.4377 58.4688C66.4891 57.5584 66.3348 57.4438 65.4235 57.4334C64.8332 57.4271 64.2387 57.4563 63.6504 57.4271C62.9531 57.3917 62.663 57.6917 62.7021 58.3979C62.7227 58.775 62.7844 59.3021 62.5787 59.5084C62.2557 59.8313 61.7374 60.0188 61.2725 60.1042C61.073 60.1417 60.7973 59.7896 60.5628 59.6042C60.462 59.525 60.3756 59.4271 60.2892 59.3292C59.8819 58.8667 59.4808 58.8417 59.0488 59.3084C58.6621 59.7271 58.2507 60.1209 57.8517 60.5271C57.0556 61.3375 56.998 61.5209 57.8969 62.2563C58.6621 62.8834 58.189 63.3938 58.0183 64.0104C57.8352 64.6688 57.3559 64.4354 56.961 64.4792C56.8088 64.4959 56.6524 64.4854 56.4981 64.4834C55.9818 64.4729 55.7494 64.7375 55.7576 65.2521C55.7658 65.8771 55.7576 66.5021 55.7576 67.1271C55.7617 68.2021 55.8358 68.2667 56.9075 68.2834C57.2325 68.2875 57.648 68.2375 57.862 68.4146C58.4297 68.8792 58.3885 69.9521 57.8702 70.4792C57.7797 70.5709 57.6912 70.6667 57.5966 70.7542C57.1626 71.1542 57.177 71.5417 57.5966 71.95C58.115 72.4563 58.621 72.975 59.127 73.4938C59.487 73.8625 59.849 73.8709 60.1925 73.4959C60.4888 73.1729 60.7582 72.8229 61.0236 72.5042C61.4453 72.6896 61.7147 72.8646 62.0068 72.925C62.6095 73.0459 62.805 73.3896 62.7145 73.9729C62.6877 74.15 62.7144 74.3375 62.7103 74.5188C62.6959 75.075 62.9654 75.3271 63.5105 75.3167C64.0762 75.3063 64.6419 75.3167 65.2076 75.3146C66.4212 75.3146 66.4644 75.2854 66.4438 74.0271C66.4356 73.5063 66.4973 73.1938 67.0753 72.9146C67.8323 72.55 68.2581 72.6979 68.7662 73.2813C69.3689 73.975 69.5725 73.9438 70.2061 73.3125C70.5908 72.9292 70.9713 72.5417 71.3519 72.1542C72.0821 71.4104 72.0739 71.2813 71.3354 70.5084C71.1112 70.2729 70.7821 70.0104 70.7553 69.7334C70.6792 68.9896 71.4383 68.2771 72.185 68.275C72.3125 68.275 72.4421 68.2709 72.5696 68.275C73.1518 68.2979 73.4171 68.0209 73.4048 67.4271C73.3883 66.75 73.378 66.0729 73.4089 65.3959C73.4397 64.7209 73.1476 64.3938 72.4976 64.4854C71.6378 64.6063 71.0701 64.3542 70.9096 63.4229C70.8787 63.25 70.7759 63.0896 70.6484 62.7854L70.6463 62.7875Z" fill="#3029D9"/>
<path d="M54.4122 0C56.3499 0.658333 57.1357 2.05625 57.0164 4.075C56.9711 4.85 57.0082 5.63125 57.0082 6.47708H13.6895C13.7779 5.04375 13.7491 3.58958 13.9939 2.18542C14.2037 0.989583 15.2466 0.420833 16.306 0L54.4122 0Z" fill="#3029D9"/>
<path d="M9.41684 27.7584C11.9285 32.3146 17.4927 32.1334 19.778 27.8396C22.1868 32.2771 27.8354 32.1667 30.2194 27.8125C31.3961 29.8459 33.0314 31.1313 35.4319 31.1104C37.7996 31.0896 39.4061 29.7938 40.5601 27.7792C43.0059 32.2375 48.5392 32.2104 50.9521 27.7729C52.1226 29.8042 53.7414 31.1125 56.1296 31.1084C58.5034 31.1063 60.1305 29.85 61.229 27.9063C61.9325 28.6417 62.5187 29.625 63.3744 30.0584C64.5984 30.6771 64.7259 31.5063 64.7136 32.7021C64.6477 38.5584 64.6621 44.4167 64.6498 50.275C64.6498 50.5834 64.6498 50.8896 64.6498 51.1646C55.5043 52.1271 50.5099 57.1792 49.5657 66.4354C47.5087 66.4354 45.4043 66.4396 43.3 66.4354C31.2438 66.4104 19.1897 66.375 7.13355 66.3729C6.36423 66.3729 6.14619 66.1938 6.14619 65.3896C6.13179 54.1438 6.08653 42.8959 6.02688 31.65C6.02482 31.0792 6.15441 30.7604 6.68924 30.5229C7.90905 29.9771 8.7298 28.9792 9.4189 27.7584H9.41684ZM25.873 38.4542H11.7022V64.9021H25.875V38.4542H25.873ZM54.9078 39.8729H38.0567V51.6375H54.9078V39.8729Z" fill="#3029D9"/>
<path d="M31.7523 8.00208H39.0012C39.2748 13.5375 39.5463 19.0375 39.822 24.6H30.9336C31.2051 19.0854 31.4787 13.5708 31.7523 8.00208Z" fill="#3029D9"/>
<path d="M50.1232 24.6209H41.2369C40.9633 19.0875 40.6897 13.5875 40.4141 8.02502H47.6568C48.4714 13.5104 49.2921 19.0229 50.1252 24.6209H50.1232Z" fill="#3029D9"/>
<path d="M20.6357 24.5979C21.4627 19.0354 22.2793 13.5354 23.1021 8.00208H30.3428C30.0672 13.5417 29.7956 19.0396 29.52 24.5979H20.6357Z" fill="#3029D9"/>
<path d="M60.3778 24.6584C59.0489 24.6584 57.7715 24.6584 56.4921 24.6584C55.0275 24.6584 53.5629 24.6771 52.0983 24.6375C51.8885 24.6313 51.5326 24.3667 51.5038 24.1813C50.6995 18.9417 49.9281 13.6959 49.1547 8.4521C49.1362 8.32502 49.1341 8.19377 49.1177 7.9646C50.2058 7.9646 51.2755 7.9646 52.3451 7.9646C53.4765 7.9646 54.6058 7.97919 55.7372 7.95627C56.13 7.94794 56.3255 8.05002 56.4283 8.47502C57.7037 13.6959 58.9975 18.9104 60.2873 24.1271C60.3243 24.2729 60.3387 24.425 60.3798 24.6604L60.3778 24.6584Z" fill="#3029D9"/>
<path d="M14.4567 8H21.6768C20.8499 13.5583 20.0312 19.075 19.2064 24.6208H10.3447C11.7229 19.0458 13.0867 13.5375 14.4546 8H14.4567Z" fill="#3029D9"/>
<path d="M70.4983 24.6583C67.7645 24.6583 65.0452 24.6437 62.3237 24.6708C61.7745 24.675 61.7807 24.2937 61.7005 23.9666C60.5999 19.5354 59.5077 15.1041 58.4133 10.6708C58.1973 9.7958 57.9855 8.9208 57.751 7.96455C59.6085 7.96455 61.3775 7.95414 63.1445 7.98122C63.3173 7.9833 63.5723 8.16664 63.6423 8.32914C65.9502 13.7104 68.2397 19.0979 70.5312 24.4854C70.5394 24.5041 70.523 24.5333 70.4962 24.6583H70.4983Z" fill="#3029D9"/>
<path d="M0.133789 24.6313C0.818775 23.0313 1.44822 21.5563 2.07973 20.0813C3.72123 16.2417 5.37301 12.4063 6.98982 8.55628C7.18524 8.08961 7.41768 7.94586 7.89285 7.9542C9.55904 7.9792 11.2273 7.96461 13.0148 7.96461C11.6263 13.5709 10.2584 19.0979 8.88845 24.6334H0.133789V24.6313Z" fill="#3029D9"/>
<path d="M10.4106 26.1208H18.8362C18.398 28.2271 16.5961 29.7188 14.5535 29.6979C12.6034 29.6771 10.8118 28.1479 10.4106 26.1208Z" fill="#3029D9"/>
<path d="M41.5293 26.1188H49.961C49.6154 28.075 47.8238 29.6438 45.9149 29.6938C43.8352 29.7479 42.0456 28.3063 41.5293 26.1188Z" fill="#3029D9"/>
<path d="M20.7945 26.1166H29.2139C28.7943 28.2104 26.98 29.7166 24.9374 29.6958C22.9832 29.6771 21.1833 28.1458 20.7925 26.1166H20.7945Z" fill="#3029D9"/>
<path d="M31.1392 26.1125H39.5626C39.3384 27.9125 37.5385 29.5729 35.7119 29.6896C33.5726 29.8271 31.748 28.425 31.1392 26.1125Z" fill="#3029D9"/>
<path d="M51.9316 26.1208H60.3037C60.1659 27.8917 58.2693 29.6146 56.3645 29.6938C54.2499 29.7813 52.2937 28.2188 51.9316 26.1208Z" fill="#3029D9"/>
<path d="M8.46256 26.1396C7.98739 28.1854 6.26156 29.6583 4.35265 29.6958C2.31209 29.7354 0.631504 28.3792 0 26.1396H8.46256Z" fill="#3029D9"/>
<path d="M62.2842 26.1083H70.7097C70.4444 27.9667 68.6445 29.6 66.7829 29.6917C64.6641 29.7958 62.8334 28.3688 62.2842 26.1083Z" fill="#3029D9"/>
<path d="M70.6439 62.7875C70.7715 63.0916 70.8743 63.2521 70.9052 63.425C71.0656 64.3562 71.6334 64.6083 72.4932 64.4875C73.1432 64.3958 73.4353 64.7229 73.4045 65.3979C73.3736 66.0729 73.3859 66.7521 73.4003 67.4291C73.4147 68.0229 73.1494 68.3 72.5652 68.2771C72.4377 68.2729 72.3081 68.2771 72.1805 68.2771C71.4359 68.2771 70.6769 68.9916 70.7509 69.7354C70.7797 70.0125 71.1068 70.2729 71.331 70.5104C72.0695 71.2833 72.0777 71.4104 71.3474 72.1562C70.9669 72.5437 70.5863 72.9312 70.2017 73.3146C69.5681 73.9458 69.3645 73.9771 68.7618 73.2833C68.2537 72.6979 67.8279 72.5521 67.0709 72.9166C66.4929 73.1937 66.4312 73.5062 66.4394 74.0291C66.46 75.2875 66.4168 75.3166 65.2031 75.3166C64.6375 75.3166 64.0718 75.3083 63.5061 75.3187C62.961 75.3291 62.6915 75.0791 62.7059 74.5208C62.71 74.3396 62.6812 74.1521 62.71 73.975C62.8005 73.3916 62.6051 73.0479 62.0024 72.9271C61.7103 72.8687 61.4388 72.6916 61.0192 72.5062C60.7538 72.825 60.4864 73.1729 60.1881 73.4979C59.8446 73.8729 59.4826 73.8646 59.1226 73.4958C58.6166 72.9771 58.1126 72.4583 57.5922 71.9521C57.1725 71.5437 57.1561 71.1562 57.5922 70.7562C57.6868 70.6687 57.7753 70.5729 57.8658 70.4812C58.3862 69.9541 58.4253 68.8812 57.8575 68.4166C57.6436 68.2416 57.2281 68.2916 56.9031 68.2854C55.8314 68.2687 55.7573 68.2041 55.7532 67.1291C55.7512 66.5041 55.7614 65.8791 55.7532 65.2541C55.747 64.7375 55.9774 64.475 56.4937 64.4854C56.648 64.4875 56.8043 64.4979 56.9566 64.4812C57.3515 64.4375 57.8308 64.6729 58.0139 64.0125C58.1867 63.3958 58.6577 62.8854 57.8925 62.2583C56.9936 61.5229 57.0532 61.3396 57.8472 60.5291C58.2463 60.1229 58.6577 59.7291 59.0444 59.3104C59.4764 58.8437 59.8775 58.8708 60.2848 59.3312C60.3712 59.4291 60.4576 59.5271 60.5584 59.6062C60.7929 59.7916 61.0665 60.1437 61.2681 60.1062C61.733 60.0187 62.2513 59.8333 62.5743 59.5104C62.78 59.3062 62.7183 58.7791 62.6977 58.4C62.6586 57.6916 62.9486 57.3937 63.646 57.4291C64.2363 57.4583 64.8288 57.4291 65.4191 57.4354C66.3304 57.4437 66.4847 57.5604 66.4332 58.4708C66.39 59.2354 66.5443 59.6812 67.3651 59.9458C67.9102 60.1208 68.1776 60.0604 68.5376 59.6791C69.4694 58.6979 69.5064 58.7125 70.4732 59.6937C70.8188 60.0437 71.1541 60.4041 71.5141 60.7396C72.0036 61.1958 71.9789 61.6271 71.4914 62.0562C71.2014 62.3125 70.9072 62.5625 70.6419 62.7896L70.6439 62.7875ZM64.5428 63.5583C62.9836 63.5729 61.7844 64.8146 61.7988 66.4021C61.8111 67.9646 63.0721 69.2229 64.6066 69.2021C66.1309 69.1833 67.3836 67.8833 67.3671 66.3375C67.3507 64.7791 66.0959 63.5437 64.5449 63.5583H64.5428Z" fill="white"/>
<path opacity="0.5" d="M64.5431 63.5584C66.0961 63.5438 67.3509 64.7792 67.3653 66.3375C67.3818 67.8834 66.129 69.1834 64.6048 69.2021C63.0703 69.2209 61.8093 67.9646 61.797 66.4021C61.7846 64.8146 62.9818 63.5729 64.541 63.5584H64.5431Z" fill="#3029D9"/>
<path d="M15.6805 51.6583C15.6805 52.5416 15.6908 53.425 15.6785 54.3083C15.6682 55.0916 15.2588 55.5875 14.6417 55.6041C14.0205 55.6208 13.5618 55.1271 13.5536 54.3604C13.5371 52.5687 13.5392 50.775 13.5536 48.9833C13.5597 48.1937 13.9876 47.7271 14.6294 47.7375C15.2691 47.7458 15.6661 48.2146 15.6764 49.0104C15.6888 49.8937 15.6785 50.7771 15.6785 51.6604L15.6805 51.6583Z" fill="#3029D9"/>
</g>
<defs>
<clipPath id="clip0_3455_5063">
<rect width="78" height="80" fill="white"/>
</clipPath>
</defs>
</svg>
