<svg width="172" height="172" viewBox="0 0 172 172" fill="none" xmlns="http://www.w3.org/2000/svg">
<g filter="url(#filter0_d_3455_5193)">
<path d="M122 76C122 56.1178 105.882 40 86 40C66.1177 40 50 56.1178 50 76V112H86C105.882 112 122 95.8823 122 76Z" fill="#3029D9"/>
</g>
<path opacity="0.4" d="M97.0234 74.1535C100.148 74.1535 102.683 71.6202 102.683 68.4952C102.683 65.3702 100.148 62.837 97.0234 62.837" stroke="white" stroke-width="4" stroke-linecap="round" stroke-linejoin="round"/>
<path d="M99.626 80.3024C100.559 80.3668 101.487 80.4991 102.401 80.7046C103.67 80.9531 105.197 81.4734 105.74 82.6122C106.087 83.3416 106.087 84.1908 105.74 84.922C105.198 86.0608 103.67 86.5792 102.401 86.8402" stroke="white" stroke-width="4" stroke-linecap="round" stroke-linejoin="round"/>
<path opacity="0.4" d="M74.9755 74.1535C71.8505 74.1535 69.3154 71.6202 69.3154 68.4952C69.3154 65.3702 71.8505 62.837 74.9755 62.837" stroke="white" stroke-width="4" stroke-linecap="round" stroke-linejoin="round"/>
<path d="M72.3738 80.3024C71.4406 80.3668 70.5128 80.4991 69.5992 80.7046C68.3299 80.9531 66.8032 81.4734 66.2615 82.6122C65.9128 83.3416 65.9128 84.1908 66.2615 84.922C66.8014 86.0608 68.3299 86.5792 69.5992 86.8402" stroke="white" stroke-width="4" stroke-linecap="round" stroke-linejoin="round"/>
<path fill-rule="evenodd" clip-rule="evenodd" d="M85.991 81.5208C92.3233 81.5208 97.7331 82.4791 97.7331 86.3138C97.7331 90.1468 92.359 91.1408 85.991 91.1408C79.657 91.1408 74.249 90.1825 74.249 86.3478C74.249 82.5131 79.623 81.5208 85.991 81.5208Z" stroke="white" stroke-width="4" stroke-linecap="round" stroke-linejoin="round"/>
<path opacity="0.4" fill-rule="evenodd" clip-rule="evenodd" d="M85.9905 76.0512C81.8143 76.0512 78.4658 72.7027 78.4658 68.5247C78.4658 64.3485 81.8143 61 85.9905 61C90.1667 61 93.5152 64.3485 93.5152 68.5247C93.5152 72.7027 90.1667 76.0512 85.9905 76.0512Z" stroke="white" stroke-width="4" stroke-linecap="round" stroke-linejoin="round"/>
<defs>
<filter id="filter0_d_3455_5193" x="0" y="0" width="172" height="172" filterUnits="userSpaceOnUse" color-interpolation-filters="sRGB">
<feFlood flood-opacity="0" result="BackgroundImageFix"/>
<feColorMatrix in="SourceAlpha" type="matrix" values="0 0 0 0 0 0 0 0 0 0 0 0 0 0 0 0 0 0 127 0" result="hardAlpha"/>
<feOffset dy="10"/>
<feGaussianBlur stdDeviation="25"/>
<feColorMatrix type="matrix" values="0 0 0 0 0.188235 0 0 0 0 0.160784 0 0 0 0 0.85098 0 0 0 0.3 0"/>
<feBlend mode="normal" in2="BackgroundImageFix" result="effect1_dropShadow_3455_5193"/>
<feBlend mode="normal" in="SourceGraphic" in2="effect1_dropShadow_3455_5193" result="shape"/>
</filter>
</defs>
</svg>
