<svg width="200" height="200" viewBox="0 0 200 200" fill="none" xmlns="http://www.w3.org/2000/svg">
<g filter="url(#filter0_d_3709_2500)">
<path d="M150 90C150 62.3858 127.614 40 100 40V40C72.3858 40 50 62.3858 50 90V140H100C127.614 140 150 117.614 150 90V90Z" fill="#3029D9"/>
</g>
<path d="M119.688 65.9375H119.316V70.3125H119.688C120.268 70.3125 120.824 70.543 121.234 70.9532C121.645 71.3634 121.875 71.9198 121.875 72.5V116.25C121.875 116.83 121.645 117.387 121.234 117.797C120.824 118.207 120.268 118.438 119.688 118.438H80.3125C79.7323 118.438 79.1759 118.207 78.7657 117.797C78.3555 117.387 78.125 116.83 78.125 116.25V72.5C78.125 71.9198 78.3555 71.3634 78.7657 70.9532C79.1759 70.543 79.7323 70.3125 80.3125 70.3125H80.6844V65.9375H80.3125C78.572 65.9375 76.9028 66.6289 75.6721 67.8596C74.4414 69.0903 73.75 70.7595 73.75 72.5V116.25C73.75 117.99 74.4414 119.66 75.6721 120.89C76.9028 122.121 78.572 122.812 80.3125 122.812H119.688C121.428 122.812 123.097 122.121 124.328 120.89C125.559 119.66 126.25 117.99 126.25 116.25V72.5C126.25 70.7595 125.559 69.0903 124.328 67.8596C123.097 66.6289 121.428 65.9375 119.688 65.9375Z" fill="white"/>
<path d="M115.312 61.5625H108.75V55H91.25V61.5625H84.6875V74.6875H115.312V61.5625ZM110.938 70.3125H89.0625V65.9375H95.625V59.375H104.375V65.9375H110.938V70.3125Z" fill="white"/>
<path d="M86.875 83.4375H113.125V87.8125H86.875V83.4375ZM86.875 94.375H113.125V98.75H86.875V94.375ZM86.875 105.312H113.125V109.688H86.875V105.312Z" fill="white"/>
<defs>
<filter id="filter0_d_3709_2500" x="0" y="0" width="200" height="200" filterUnits="userSpaceOnUse" color-interpolation-filters="sRGB">
<feFlood flood-opacity="0" result="BackgroundImageFix"/>
<feColorMatrix in="SourceAlpha" type="matrix" values="0 0 0 0 0 0 0 0 0 0 0 0 0 0 0 0 0 0 127 0" result="hardAlpha"/>
<feOffset dy="10"/>
<feGaussianBlur stdDeviation="25"/>
<feColorMatrix type="matrix" values="0 0 0 0 0.188235 0 0 0 0 0.160784 0 0 0 0 0.85098 0 0 0 0.3 0"/>
<feBlend mode="normal" in2="BackgroundImageFix" result="effect1_dropShadow_3709_2500"/>
<feBlend mode="normal" in="SourceGraphic" in2="effect1_dropShadow_3709_2500" result="shape"/>
</filter>
</defs>
</svg>
