<svg width="31" height="31" viewBox="0 0 31 31" fill="none" xmlns="http://www.w3.org/2000/svg">
<path d="M14.923 0H15.8473C19.624 0 23.2019 1.56592 26.5811 4.69775C28.9564 7.50961 30.2634 10.0548 30.5019 12.3334C30.6808 13.4097 30.7702 14.0933 30.7702 14.3841V15.6204C30.7702 17.6178 30.0745 19.9303 28.6831 22.5579C26.6556 25.7964 23.7684 28.0459 20.0215 29.3064C18.1232 29.7815 16.6374 30.0191 15.564 30.0191H15.2062C11.2804 30.0191 7.6379 28.4774 4.27861 25.394C1.4262 22.3107 0 18.728 0 14.6459V14.4714C0 14.3357 0.0298161 14.2193 0.0894484 14.1223C0.0894484 14.0545 0.0596322 14.0205 0 14.0205C0.38761 11.1311 1.17774 8.79434 2.37038 7.01027C4.25874 4.01418 7.17078 1.88104 11.1065 0.610853C12.5774 0.203618 13.8496 0 14.923 0ZM12.8358 9.58458L12.9253 12.3334C12.9253 12.4207 12.8358 12.5128 12.6569 12.6098H11.1065V15.7077H12.6569C12.7464 15.7077 12.8358 15.7998 12.9253 15.984V23.6197L12.97 24.1578H16.2051V15.8967C16.2249 15.7707 16.2846 15.7077 16.384 15.7077H19.0227C19.1419 15.7077 19.296 14.7332 19.4848 12.7843V12.6098H16.384C16.2647 12.6098 16.2051 12.5516 16.2051 12.4352V10.2972C16.2051 9.38581 16.7517 8.88161 17.8449 8.78465H19.6637V6.12308C19.6637 5.94855 19.0277 5.86128 17.7555 5.86128H17.2934C15.1963 5.86128 13.8297 6.62727 13.1936 8.15925C13.0744 8.47922 12.9551 8.95433 12.8358 9.58458Z" fill="#171725"/>
</svg>
