<svg width="32" height="31" viewBox="0 0 32 31" fill="none" xmlns="http://www.w3.org/2000/svg">
<path d="M14.8719 0H17.0644C19.4111 0 22.0809 0.972908 25.0739 2.91872C27.3311 4.68492 28.9668 6.72554 29.981 9.04056C30.8958 11.2458 31.3532 13.1068 31.3532 14.6235V15.8958C31.3532 19.3085 29.9562 22.6912 27.1621 26.044C23.9205 29.2072 20.1568 30.7888 15.8712 30.7888C10.5216 30.7888 6.15138 28.2892 2.76064 23.2899C1.30889 20.5957 0.583008 17.9464 0.583008 15.342C0.583008 11.0512 2.34301 7.18455 5.86302 3.74195C9.14438 1.24732 12.1473 0 14.8719 0ZM7.77218 13.3363V18.0961C7.77218 20.6905 8.59252 22.4218 10.2332 23.2899C10.969 23.709 13.3356 23.8637 17.3329 23.7539C20.3955 23.7539 22.1555 23.4196 22.6129 22.7511C23.647 21.9229 24.1641 20.5508 24.1641 18.6349V12.5131C24.1641 10.0983 23.3139 8.51668 21.6136 7.76829L20.48 7.3941L19.3315 7.30429H12.6942C10.3277 7.30429 8.74664 8.4618 7.95116 10.7768C7.83184 11.4853 7.77218 12.3385 7.77218 13.3363ZM12.9627 8.77114H19.3315C21.6384 8.77114 22.7919 9.98852 22.7919 12.4233V18.9043C22.4836 21.1595 21.544 22.2871 19.9729 22.2871H17.3329C16.0999 22.2871 14.7973 22.317 13.4251 22.3769C11.1381 22.3769 9.80066 21.6484 9.41286 20.1916C9.29354 19.3833 9.23387 18.1659 9.23387 16.5394V14.5188C9.23387 11.4753 9.47749 9.95359 9.96472 9.95359C10.452 9.16529 11.4513 8.77114 12.9627 8.77114ZM19.421 11.2408C19.6895 11.8495 20.0276 12.1539 20.4353 12.1539C20.8429 12.1539 21.176 11.8495 21.4346 11.2408C21.2954 10.5024 20.9275 10.1332 20.3308 10.1332C19.7243 10.3228 19.421 10.692 19.421 11.2408ZM11.7844 15.6264C11.7844 17.5922 12.908 18.9592 15.1552 19.7276H16.9749C19.1525 18.9393 20.2414 17.5423 20.2414 15.5366V15.342C20.2414 14.2045 19.6646 13.1417 18.5112 12.1539C17.7256 11.605 16.9103 11.3306 16.0651 11.3306H15.9756C14.0963 11.3306 12.7887 12.3035 12.0529 14.2494C11.9534 14.3791 11.8639 14.8381 11.7844 15.6264ZM15.9756 12.7825H16.0651C17.3776 12.7825 18.2576 13.486 18.7051 14.893C18.7647 14.9728 18.7946 15.1873 18.7946 15.5366C18.5062 17.4225 17.5964 18.3655 16.0651 18.3655C14.852 18.3655 13.972 17.7568 13.4251 16.5394C13.3455 16.4396 13.2809 16.1353 13.2312 15.6264C13.4499 13.7305 14.3647 12.7825 15.9756 12.7825Z" fill="#171725"/>
</svg>
