<svg width="32" height="31" viewBox="0 0 32 31" fill="none" xmlns="http://www.w3.org/2000/svg">
<ellipse cx="15.9847" cy="15.3944" rx="15.3587" ry="15.3944" fill="#171725"/>
<path d="M23.6329 16.7176V22.3974H20.3477V17.0979C20.3477 15.7662 19.8723 14.858 18.6835 14.858C17.7758 14.858 17.2352 15.4707 16.9979 16.0626C16.9112 16.2743 16.8889 16.5691 16.8889 16.8654V22.3974H13.6021C13.6021 22.3974 13.6467 13.4224 13.6021 12.4919H16.8889V13.8958L16.8674 13.9282H16.8889V13.8958C17.3251 13.2223 18.1045 12.2594 19.85 12.2594C22.0118 12.2594 23.6329 13.6757 23.6329 16.7176ZM10.1648 7.71729C9.04135 7.71729 8.30566 8.45622 8.30566 9.42837C8.30566 10.379 9.01984 11.1402 10.1218 11.1402H10.1433C11.2899 11.1402 12.0017 10.379 12.0017 9.42837C11.9818 8.45622 11.2906 7.71729 10.1656 7.71729H10.1648ZM8.50072 22.3974H11.7859V12.4919H8.50072V22.3974Z" fill="white"/>
</svg>
