<svg width="31" height="31" viewBox="0 0 31 31" fill="none" xmlns="http://www.w3.org/2000/svg">
<path d="M15.422 0H16.0346C19.3794 0 22.6075 1.30719 25.7189 3.92157C29.0248 7.36416 30.6777 10.9764 30.6777 14.7583V16.2251C30.6777 18.4204 29.8513 20.9998 28.1983 23.9635C26.1564 26.957 23.3756 29.0226 19.8558 30.1601C18.2223 30.5792 16.861 30.7888 15.772 30.7888H15.6845C11.6105 30.7888 7.96917 29.1523 4.76051 25.8793C2.03801 22.6862 0.676758 19.1937 0.676758 15.4019C0.676758 11.3506 2.21789 7.64356 5.30015 4.28079C8.50881 1.42693 11.8828 0 15.422 0ZM16.3117 12.7526V13.486C16.3117 13.6057 16.2485 13.6656 16.1221 13.6656C14.265 13.4062 12.6703 12.7376 11.3383 11.6599L10.0986 10.4775H9.99646C9.99646 10.5773 9.87978 10.8217 9.64642 11.2109V12.3035C9.72421 12.9222 10.1374 13.6207 10.8861 14.399V14.4888C10.4778 14.4888 10.0645 14.3691 9.64642 14.1296V14.2194C9.64642 15.3869 10.3854 16.3898 11.8633 17.2279L11.6883 17.3178H11.2508L10.7986 17.2279V17.4076C11.4792 18.6848 12.3398 19.3234 13.3801 19.3234V19.5929C12.2134 20.3213 11.0563 20.6855 9.90895 20.6855H9.3839V20.8651C11.0563 21.6534 12.505 22.0476 13.7302 22.0476C16.2971 22.0476 18.4848 20.9849 20.2933 18.8594C21.5963 17.0034 22.2477 15.2422 22.2477 13.5758V12.9472C23.1909 12.0192 23.6673 11.5003 23.677 11.3905V11.3007C23.3367 11.4803 22.8603 11.635 22.2477 11.7647L22.1602 11.5701C22.7144 11.2408 23.1277 10.7868 23.3999 10.208V10.1182H23.3124C22.4373 10.5473 21.9074 10.7619 21.7227 10.7619H21.4601C20.8087 10.213 20.2156 9.90869 19.6808 9.84882H18.9661C17.9744 9.84882 17.1771 10.4226 16.5742 11.5701C16.3992 11.8695 16.3117 12.2636 16.3117 12.7526Z" fill="#171725"/>
</svg>
