<svg width="26" height="26" viewBox="0 0 26 26" fill="none" xmlns="http://www.w3.org/2000/svg">
<path d="M23.6838 1.0999C24.3923 1.4967 24.9142 2.15866 25.1348 2.9402C25.3553 3.72175 25.2564 4.55888 24.8598 5.26752L14.7886 23.2523C14.5335 23.7079 14.1797 24.1007 13.7532 24.4018C13.3266 24.703 12.8381 24.9049 12.3234 24.9927C11.8086 25.0805 11.2808 25.0521 10.7785 24.9095C10.2762 24.7668 9.81218 24.5136 9.42044 24.1684L1.78781 17.4449C1.17841 16.9079 0.807293 16.1508 0.756095 15.3402C0.704898 14.5296 0.977817 13.7318 1.51481 13.1224C2.05181 12.513 2.8089 12.1419 3.61952 12.0907C4.43015 12.0395 5.22791 12.3124 5.83731 12.8494L11.0313 17.4256L19.5153 2.2759C19.7118 1.92496 19.9755 1.61616 20.2913 1.36713C20.6071 1.1181 20.9689 0.933723 21.356 0.82452C21.7431 0.715317 22.1479 0.68343 22.5473 0.730679C22.9467 0.777928 23.3329 0.903389 23.6838 1.0999Z" fill="black"/>
</svg>
