<svg width="70" height="78" viewBox="0 0 70 78" fill="none" xmlns="http://www.w3.org/2000/svg">
<g clip-path="url(#clip0_3455_5035)">
<path d="M43.8244 0C51.6407 0 59.4591 0 67.2755 0C69.3239 0.708906 70.0386 2.19375 69.998 4.29609C69.9229 8.23063 69.9777 12.1652 69.9756 16.1017C69.9756 18.7159 68.6459 20.0566 66.0553 20.0586C64.3052 20.0586 62.5532 20.0383 60.8031 20.0748C60.3971 20.083 59.9484 20.2048 59.5992 20.412C56.7406 22.1041 53.9004 23.8245 51.0601 25.547C50.5119 25.8802 49.9638 26.1239 49.3669 25.7116C48.768 25.2972 48.8065 24.7061 48.9344 24.0703C49.1963 22.7683 49.4136 21.4561 49.6531 20.1297H45.9642C46.8088 22.7439 46.7459 25.3622 46.7053 27.9744C46.6971 28.4395 46.8433 28.6873 47.2433 28.927C48.77 29.8411 49.5943 31.2122 49.6267 33.0017C49.6572 34.7527 49.6613 36.5056 49.6207 38.2566C49.5679 40.5214 47.9031 42.4227 45.6678 42.8289C45.1846 42.9163 44.6913 42.9508 43.9787 43.0361C44.6121 43.9441 45.1542 44.7241 45.6983 45.5041C46.4657 46.603 47.3671 47.6328 47.9721 48.815C49.2816 51.3683 48.5791 53.9723 46.287 55.6948C46.1205 55.8208 45.9642 55.9609 45.7531 56.1356C46.3033 56.3428 46.7722 56.4748 47.1986 56.6922C48.7517 57.4803 50.3779 58.1689 51.8153 59.1358C53.7725 60.452 54.6597 62.4244 54.6434 64.8131C54.617 68.6217 54.6191 72.4303 54.6495 76.2369C54.6556 76.9803 54.4891 77.5714 53.874 78.0041H0.881127C0.26597 77.6648 -0.00201878 77.1611 1.14445e-05 76.4481C0.0162532 72.538 0.00813233 68.6278 0.00813233 64.7177C0.00813233 62.4325 0.893309 60.5536 2.72457 59.2008C3.65441 58.5142 4.68576 57.9434 5.72524 57.4255C6.7302 56.9258 7.80215 56.5602 8.8802 56.1214C8.41528 55.7213 7.9666 55.3902 7.58289 54.9961C5.77802 53.1294 5.49582 50.7041 6.94743 48.2848C7.71282 47.0092 8.72793 45.8859 9.5989 44.6712C9.95825 44.1695 10.2344 43.6089 10.5937 42.9955C10.277 42.9691 10.1288 42.9508 9.97855 42.9447C6.99412 42.8167 5.01466 40.7814 5.00045 37.8097C4.99233 36.2863 4.9903 34.7628 5.00045 33.2394C5.01263 31.3361 5.84502 29.8939 7.44483 28.86C7.68237 28.7077 7.88742 28.3319 7.90569 28.0455C7.96457 27.1355 7.9199 26.2194 7.93006 25.3053C8.02142 17.6333 12.5204 11.1089 19.5551 8.37281C22.8156 7.10531 26.2061 7.07484 29.6088 7.23328C33.389 7.41 36.7795 8.71813 39.772 11.0419C40.2248 11.3933 40.6552 11.7731 41.2196 12.2403C41.2196 11.8523 41.2196 11.6106 41.2196 11.3689C41.2196 8.72828 41.2196 6.08766 41.2196 3.44703C41.2196 2.20797 41.7454 1.24312 42.7666 0.560625C43.0955 0.34125 43.467 0.188906 43.8203 0.0040625L43.8244 0ZM40.3161 26.648C40.3161 26.0873 40.3202 25.608 40.3161 25.1286C40.2593 20.0058 36.879 15.5167 31.978 14.0725C29.6981 13.4002 27.3491 13.4672 25.0306 13.6845C23.7171 13.8064 22.3649 14.1436 21.159 14.6758C16.5321 16.7233 13.8339 21.5333 14.4146 26.6297C14.5283 26.6459 14.6501 26.6723 14.7719 26.6784C16.593 26.7617 17.3219 27.5173 17.3259 29.3373C17.3259 29.9102 17.3259 30.483 17.3259 31.1411C18.5258 31.0131 19.6119 30.938 20.6859 30.7755C25.2702 30.0767 29.4687 28.6488 32.6236 24.9397C34.26 23.0161 37.3784 23.593 38.4971 25.868C38.6392 26.1564 38.7651 26.453 38.8889 26.7231C39.3782 26.6987 39.8045 26.6764 40.3161 26.65V26.648ZM17.3239 33.7248C17.3239 36.4142 17.332 39.1787 17.3137 41.9453C17.3117 42.3678 17.2772 42.837 17.0884 43.1966C16.8772 43.6028 17.0092 43.8466 17.2122 44.1492C20.6189 49.2273 27.5318 50.958 32.9241 48.0756C33.0804 47.9923 33.2165 47.8664 33.5027 47.6572C31.3872 47.6572 29.4606 47.6552 27.5339 47.6572C26.9309 47.6572 26.4233 47.4906 26.1675 46.8955C25.8041 46.0525 26.3969 45.2319 27.408 45.2258C30.0473 45.2095 32.6906 45.1161 35.3218 45.2623C36.611 45.3334 37.0576 44.592 37.5733 43.7552C37.6444 43.6394 37.5936 43.4342 37.5693 43.2758C37.4941 42.7802 37.3337 42.2866 37.3297 41.7909C37.3074 38.3642 37.2505 34.9355 37.348 31.5128C37.3947 29.9244 36.9419 28.5188 36.3714 27.1111C35.9694 26.1198 34.93 25.9208 34.2478 26.7414C31.6288 29.8858 28.1632 31.59 24.2957 32.5183C22.0421 33.0586 19.7195 33.3206 17.3219 33.7269L17.3239 33.7248ZM51.7483 22.2767C54.075 20.8752 56.2798 19.5772 58.4501 18.2244C59.1485 17.7897 59.8489 17.5927 60.6671 17.6089C62.4943 17.6475 64.3215 17.6252 66.1487 17.6191C67.247 17.615 67.5374 17.3205 67.5394 16.2033C67.5434 12.0656 67.5434 7.92797 67.5394 3.79031C67.5394 2.73813 67.2267 2.4375 66.171 2.4375C59.116 2.4375 52.063 2.4375 45.008 2.4375C43.9421 2.4375 43.6619 2.71984 43.6619 3.79031C43.6599 7.95437 43.6599 12.1164 43.6619 16.2805C43.6619 17.3367 43.9482 17.617 45.0323 17.6191C46.9854 17.6252 48.9405 17.6109 50.8936 17.6252C52.0407 17.6353 52.5056 18.2223 52.2985 19.3416C52.128 20.2617 51.9554 21.1798 51.7504 22.2747L51.7483 22.2767ZM20.7001 75.5381C20.4403 75.1278 20.2535 74.8313 20.0627 74.5347C18.6212 72.2962 17.1757 70.0619 15.7383 67.8214C15.1942 66.9723 15.2734 66.497 16.0306 65.8348C16.5179 65.4083 17.0092 64.9898 17.5452 64.5287C16.6011 63.9437 15.7484 63.3973 14.8754 62.8834C14.2075 62.4894 13.9395 61.9795 14.0654 61.1792C14.2968 59.7086 14.445 58.2238 14.642 56.6272C13.2533 57.137 11.958 57.5575 10.7074 58.0856C8.68327 58.9387 6.63274 59.7573 4.69591 60.7852C3.10016 61.6302 2.41394 63.1333 2.43425 64.9756C2.47079 68.248 2.4444 71.5223 2.4444 74.7947C2.4444 75.0384 2.4444 75.2802 2.4444 75.5198H10.1998C10.1998 74.5408 10.1998 73.6064 10.1998 72.672C10.1998 72.0972 10.3887 71.6178 10.9449 71.37C11.755 71.0064 12.5975 71.5691 12.626 72.5156C12.6564 73.5191 12.632 74.5245 12.632 75.5402H20.7001V75.5381ZM33.9717 75.5077H42.0053C42.0053 74.5408 41.9972 73.6287 42.0073 72.7167C42.0175 71.7966 42.456 71.2847 43.2153 71.2786C43.9807 71.2725 44.4314 71.7803 44.4395 72.6923C44.4497 73.6247 44.4416 74.557 44.4416 75.5178H52.1787C52.1869 75.3248 52.2011 75.1766 52.2011 75.0283C52.2011 71.5528 52.2011 68.0753 52.2011 64.5998C52.2011 63.3669 51.791 62.2761 50.8489 61.492C50.0978 60.8664 49.2775 60.2591 48.3883 59.8752C46.2058 58.9327 43.9665 58.1222 41.7495 57.263C41.2013 57.0497 40.6491 56.8506 39.9974 56.6048C40.1984 58.1628 40.371 59.5684 40.5659 60.972C40.7222 62.0953 40.6146 62.3533 39.6279 62.9667C38.8118 63.4766 37.9936 63.9844 37.1104 64.5348C37.6789 65.0223 38.223 65.4692 38.7427 65.9425C39.3457 66.4909 39.4147 66.9967 38.9924 67.6995C38.6656 68.2419 38.3123 68.768 37.9692 69.3022C36.6536 71.3436 35.3401 73.385 33.9717 75.5097V75.5077ZM22.2045 51.0067C22.2045 51.9167 22.1274 52.6784 22.2188 53.4198C22.5537 56.16 22.9253 58.8941 23.3354 61.6241C23.38 61.9186 23.7008 62.2944 23.983 62.4102C26.2163 63.3161 28.4779 63.31 30.7091 62.3959C30.9832 62.2842 31.2735 61.8942 31.3202 61.5956C31.6512 59.4953 31.9273 57.3848 32.2115 55.2784C32.3983 53.8891 32.6744 52.4977 32.2785 51.0372C28.9855 52.1909 25.7046 52.2092 22.2066 51.0067H22.2045ZM10.482 28.2669C11.3104 27.3244 11.9519 26.5566 11.9499 25.1916C11.9418 19.238 15.5474 14.1558 20.9884 12.0636C23.4694 11.1089 26.0498 11.1211 28.6424 11.1516C36.5927 11.243 42.7747 17.4261 42.7077 25.3845C42.6976 26.7272 43.4691 27.3528 44.1106 28.2161C44.1878 28.145 44.2527 28.1145 44.2527 28.082C44.34 25.4373 44.3746 22.7967 43.4508 20.2597C43.3574 20.0037 43.1321 19.7519 42.9006 19.5995C41.7962 18.8703 41.2419 17.8709 41.2094 16.5425C41.2013 16.1972 41.0592 15.793 40.844 15.5248C38.7366 12.8883 36.0466 11.1272 32.7962 10.1989C30.5366 9.55297 28.2282 9.61391 25.9219 9.63422C23.6095 9.65453 21.3823 10.1177 19.3034 11.1434C12.5001 14.495 9.6659 21.0397 10.4861 28.2709L10.482 28.2669ZM12.5549 54.6C13.0076 54.4903 13.5071 54.4131 13.974 54.2466C15.6672 53.6413 17.3442 52.9872 19.0394 52.39C19.549 52.2113 19.8637 51.9756 19.8414 51.3906C19.8292 51.0636 19.951 50.7264 19.9043 50.4075C19.8678 50.1516 19.7338 49.8184 19.5328 49.6905C17.5736 48.4372 15.986 46.8284 14.7699 44.848C14.6826 44.7078 14.5425 44.5088 14.4146 44.5006C13.8583 44.462 13.2797 44.3991 12.7498 44.5209C12.496 44.5798 12.3336 45.0308 12.1286 45.305C11.6433 45.955 11.152 46.6009 10.6729 47.255C10.0902 48.0513 9.42836 48.8069 8.96141 49.6681C7.90975 51.61 8.68733 53.5031 10.7825 54.2323C11.3246 54.4212 11.9154 54.472 12.5529 54.6H12.5549ZM43.5198 46.5583C42.7077 47.4561 41.8104 47.708 40.7993 47.6572C40.4461 47.6389 40.0867 47.6897 39.7355 47.6491C38.3631 47.4825 37.1348 47.7019 36.211 48.8475C36.1501 48.9247 36.0588 48.9897 35.9694 49.0303C34.867 49.5158 34.5219 50.308 34.8041 51.4942C34.9137 51.9553 35.0538 52.1767 35.4862 52.3311C37.2241 52.9506 38.9579 53.5884 40.6775 54.2588C41.8388 54.7097 42.9798 54.5959 44.0781 54.1531C46.0414 53.3589 46.7215 51.5369 45.6922 49.6803C45.0973 48.6058 44.2893 47.6491 43.5178 46.5603L43.5198 46.5583ZM30.8878 64.9553C28.4901 65.6866 26.1797 65.6764 23.7739 64.9614C24.2693 68.5973 24.7403 72.0687 25.2113 75.5219H29.4504C29.9255 72.0322 30.3965 68.575 30.8878 64.9553ZM19.9124 54.6589C19.0983 54.9575 18.3735 55.187 17.6832 55.4978C17.464 55.5973 17.2305 55.8959 17.194 56.1316C16.9666 57.5839 16.8102 59.0484 16.593 60.5028C16.528 60.9334 16.6823 61.1427 17.0295 61.3478C18.0324 61.943 19.0212 62.5625 20.0058 63.1861C21.0757 63.8625 21.1366 64.673 20.1845 65.5078C19.5409 66.0705 18.8872 66.6189 18.2253 67.1856C19.6302 69.3611 20.9945 71.4716 22.3568 73.582C22.3954 73.5597 22.436 73.5373 22.4746 73.517C21.6239 67.2628 20.7753 61.0086 19.9124 54.6589ZM34.7432 54.6528C33.8885 60.9659 33.0439 67.1897 32.1993 73.4134C32.2623 73.4297 32.3232 73.4439 32.3861 73.4602C33.726 71.3802 35.066 69.3002 36.4364 67.1755C35.8354 66.6656 35.2792 66.1923 34.7209 65.7211C33.4357 64.6384 33.4804 63.9133 34.8873 63.0398C35.7928 62.4772 36.6922 61.9064 37.6078 61.3641C37.953 61.1589 38.1113 60.9375 38.0504 60.513C37.8352 59.0322 37.6606 57.5453 37.4535 56.0645C37.4292 55.8898 37.3317 55.638 37.1998 55.5831C36.412 55.2541 35.604 54.9738 34.7452 54.6548L34.7432 54.6528ZM10.5795 30.7064C8.75433 30.5155 7.4895 31.4661 7.44889 33.0627C7.40626 34.7364 7.40626 36.4122 7.44889 38.0859C7.49153 39.7191 8.93501 40.7652 10.5775 40.3873V30.7064H10.5795ZM44.1147 40.4178C45.9216 40.688 47.1783 39.6642 47.1986 37.9295C47.2169 36.3553 47.2169 34.7811 47.1986 33.2069C47.1783 31.4722 45.8871 30.4322 44.1147 30.7389V40.4158V40.4178ZM39.8248 29.1566V41.9941H41.5586V29.1566H39.8248ZM14.8247 42.0123V29.1606H13.1173V42.0123H14.8247ZM41.5627 44.5128C39.9203 44.3828 39.902 44.3889 39.766 45.177C40.9502 45.261 41.5492 45.0396 41.5627 44.5128Z" fill="#5A50FE"/>
<path d="M30.7195 36.7798C30.7195 36.4508 30.7012 36.1217 30.7236 35.7967C30.7723 35.1284 31.2616 34.6206 31.8869 34.6308C32.5487 34.6409 33.0319 34.9984 33.105 35.6505C33.1882 36.398 33.1761 37.1658 33.1152 37.9173C33.0624 38.5653 32.4492 39.0183 31.8463 38.9736C31.221 38.9269 30.7621 38.4455 30.7215 37.765C30.7012 37.438 30.7175 37.1089 30.7195 36.7798Z" fill="#5A50FE"/>
<path d="M23.8594 36.8326C23.8594 37.1617 23.8858 37.4907 23.8533 37.8157C23.7863 38.5064 23.2239 39.004 22.5905 38.9736C21.9652 38.9431 21.4739 38.4597 21.4434 37.7873C21.413 37.1576 21.4191 36.5239 21.4394 35.8942C21.4637 35.1386 21.9835 34.6145 22.6595 34.6247C23.3011 34.6348 23.8107 35.1406 23.8614 35.8495C23.8858 36.1765 23.8655 36.5056 23.8655 36.8347C23.8655 36.8347 23.8635 36.8347 23.8614 36.8347L23.8594 36.8326Z" fill="#5A50FE"/>
<path opacity="0.5" d="M55.549 6.07748C58.2634 6.07748 60.9778 6.06732 63.6922 6.08357C64.4657 6.08763 64.9814 6.61169 64.9733 7.29826C64.9652 7.94216 64.4576 8.44591 63.7409 8.50685C63.5135 8.52513 63.2841 8.51294 63.0567 8.51294C58.3121 8.51294 53.5695 8.51294 48.8249 8.51294C48.4188 8.51294 48.0128 8.5231 47.6068 8.51091C46.7459 8.48654 46.2445 8.04373 46.2303 7.31248C46.2161 6.54669 46.7236 6.08357 47.6332 6.07951C50.2704 6.07138 52.9097 6.07544 55.547 6.07544L55.549 6.07748Z" fill="#5A50FE"/>
<path opacity="0.5" d="M51.5147 11.5598C52.8059 11.5598 54.0971 11.5517 55.3863 11.5619C56.2552 11.568 56.7608 11.9966 56.7851 12.7177C56.8115 13.4733 56.2918 13.9852 55.4107 13.9912C52.8039 14.0055 50.1971 14.0055 47.5902 13.9912C46.7376 13.9872 46.2402 13.5098 46.232 12.7806C46.2239 12.0169 46.7294 11.57 47.643 11.5639C48.9343 11.5537 50.2255 11.5619 51.5147 11.5619V11.5598Z" fill="#5A50FE"/>
<path opacity="0.5" d="M62.1959 11.5639C62.7258 11.5639 63.2577 11.5435 63.7856 11.57C64.4657 11.6045 64.9408 12.0839 64.9712 12.7135C64.9997 13.3189 64.5408 13.9303 63.8871 13.9628C62.7542 14.0196 61.6153 14.0176 60.4824 13.9668C59.8226 13.9384 59.3577 13.3534 59.3719 12.742C59.3861 12.0839 59.8815 11.5984 60.6042 11.5679C61.1341 11.5456 61.664 11.5639 62.1939 11.5639H62.1959Z" fill="#5A50FE"/>
</g>
<defs>
<clipPath id="clip0_3455_5035">
<rect width="70" height="78" fill="white"/>
</clipPath>
</defs>
</svg>
