<svg width="68" height="71" viewBox="0 0 68 71" fill="none" xmlns="http://www.w3.org/2000/svg">
<g clip-path="url(#clip0_3455_5015)">
<path d="M34.0024 64.4747C49.976 64.4747 62.9252 51.5023 62.9252 35.5C62.9252 19.4977 49.976 6.52527 34.0024 6.52527C18.0288 6.52527 5.07959 19.4977 5.07959 35.5C5.07959 51.5023 18.0288 64.4747 34.0024 64.4747Z" fill="#59E2C9"/>
<path d="M35.0184 -5.67483e-05C37.4486 0.628943 39.2328 2.34172 41.1639 3.77168C42.8736 5.03873 44.6601 5.75144 46.808 5.61795C48.2692 5.52518 49.7418 5.58627 51.2098 5.60437C53.9404 5.64057 56.156 7.22665 57.0549 9.81957C57.6376 11.4984 58.1797 13.1931 58.7104 14.89C59.1576 16.32 59.982 17.4513 61.1971 18.3224C62.5522 19.293 63.8938 20.2773 65.2354 21.2637C67.7152 23.0874 68.5531 25.6622 67.6226 28.5877C67.0828 30.2824 66.5363 31.9726 65.992 33.665C65.599 34.8868 65.599 36.1108 65.992 37.3304C66.5363 39.0228 67.0941 40.7107 67.6339 42.4031C68.5509 45.2856 67.722 47.8763 65.2963 49.6751C63.9593 50.6661 62.6042 51.6367 61.249 52.6051C60.0136 53.4898 59.1644 54.6414 58.7082 56.1008C58.1842 57.7706 57.6422 59.4336 57.073 61.0875C56.1538 63.7597 54.0127 65.3186 51.1986 65.3661C49.4482 65.3955 47.6978 65.3752 45.9497 65.3729C44.4952 65.3706 43.1762 65.7666 41.9973 66.6445C40.6376 67.6558 39.2599 68.6401 37.8845 69.6266C35.3301 71.4593 32.665 71.4547 30.1219 69.6198C28.7713 68.6446 27.4117 67.683 26.0769 66.6875C24.8505 65.7734 23.4818 65.3616 21.9663 65.3706C20.3018 65.3819 18.635 65.3865 16.9704 65.3706C13.9711 65.3412 11.8165 63.7755 10.8634 60.9292C10.3349 59.3499 9.80636 57.7706 9.32078 56.1777C8.84649 54.6256 7.93404 53.4264 6.61505 52.501C5.29833 51.5779 4.00192 50.6231 2.70327 49.6728C0.32277 47.9283 -0.546766 45.3015 0.340838 42.4823C0.849009 40.8668 1.37976 39.2604 1.92181 37.6562C2.40966 36.2104 2.40966 34.7804 1.92181 33.3346C1.39106 31.7576 0.887404 30.1693 0.379233 28.5832C-0.555801 25.6577 0.282116 23.0874 2.76651 21.2615C4.08549 20.2908 5.39996 19.3157 6.73701 18.3699C8.00631 17.4716 8.86229 16.2996 9.31852 14.8086C9.79733 13.2429 10.3145 11.6907 10.825 10.1363C11.7781 7.23117 13.9937 5.61569 17.0472 5.60211C18.7411 5.59532 20.435 5.5908 22.1289 5.60211C23.5315 5.61342 24.7963 5.21068 25.9323 4.39615C27.1948 3.49338 28.4099 2.51594 29.7199 1.68783C30.752 1.03395 31.8926 0.554277 32.9857 -0.00231934C33.6633 -0.00231934 34.3408 -0.00231934 35.0184 -0.00231934V-5.67483e-05ZM33.975 63.6918C49.473 63.7235 62.0734 51.1503 62.1434 35.5837C62.2134 20.0329 49.6108 7.33299 34.0676 7.29226C18.5311 7.25154 5.89232 19.8655 5.85618 35.4479C5.82005 51.0168 18.4069 63.6601 33.9727 63.6918H33.975Z" fill="#59E2C9"/>
<path d="M24.0532 50.7363C24.121 50.5644 24.2204 50.182 24.4101 49.8471C29.5324 40.7402 34.6593 31.6378 39.793 22.5377C40.4141 21.4358 41.3333 21.0987 42.2412 21.6032C43.1446 22.1055 43.3524 23.0988 42.7449 24.1803C37.6067 33.3099 32.464 42.4349 27.3145 51.5599C26.8154 52.4423 26.0814 52.7975 25.2999 52.5848C24.5637 52.3857 24.0623 51.7296 24.0532 50.7363Z" fill="#111849"/>
<path d="M17.9598 24.2097C17.962 20.266 21.1285 17.1052 25.0651 17.1119C28.995 17.1187 32.1818 20.309 32.1773 24.2255C32.1727 28.1308 28.943 31.3527 25.0471 31.3391C21.1172 31.3255 17.9553 28.1466 17.9575 24.2097H17.9598ZM25.0968 20.5058C23.0257 20.4855 21.3702 22.0987 21.3476 24.1576C21.325 26.2596 22.9782 27.9475 25.0584 27.9475C27.0865 27.9475 28.7759 26.2709 28.7895 24.2391C28.8053 22.1982 27.1498 20.5262 25.0968 20.5081V20.5058Z" fill="#111849"/>
<path d="M45.4733 53.87C41.557 53.8813 38.3499 50.6888 38.3408 46.7745C38.3318 42.8738 41.5389 39.6541 45.4485 39.6405C49.3648 39.627 52.5516 42.8127 52.5583 46.7496C52.5628 50.6955 49.4167 53.8609 45.4733 53.8722V53.87ZM49.1705 46.7609C49.1705 44.7042 47.5263 43.0457 45.4801 43.0322C43.4496 43.0209 41.758 44.6816 41.7286 46.7202C41.6993 48.7882 43.4 50.4897 45.4823 50.4761C47.5466 50.4625 49.1705 48.8267 49.1705 46.7609Z" fill="#111849"/>
</g>
<defs>
<clipPath id="clip0_3455_5015">
<rect width="68" height="71" fill="white"/>
</clipPath>
</defs>
</svg>
