<svg width="74" height="73" viewBox="0 0 74 73" fill="none" xmlns="http://www.w3.org/2000/svg">
<g clip-path="url(#clip0_3455_5048)">
<path d="M0.00179474 42.709C0.00179474 40.3105 -0.00416739 37.9121 0.00179474 35.5156C0.00576949 34.3763 0.284002 34.1284 1.42277 34.0985C2.66289 34.0685 3.92488 34.1384 5.13519 33.9226C7.4485 33.5108 9.16957 32.1657 10.203 30.033C10.5826 29.2515 11.0834 28.9557 11.9479 28.9657C15.3006 29.0057 18.6533 28.9957 22.006 28.9717C22.7155 28.9657 23.1627 29.2115 23.4906 29.8471C24.9633 32.7093 27.3561 34.0165 30.5239 33.9765C31.3427 33.9665 32.1635 33.9665 32.9823 33.9785C33.662 33.9885 34.0813 34.3383 34.0794 35.0319C34.0635 39.9768 34.2383 44.9336 33.9462 49.8645C33.5646 56.3025 30.6949 61.7171 26.2729 66.3242C23.8245 68.8765 21.0243 70.9692 17.9597 72.7181C17.3655 73.0559 16.8369 73.1059 16.2108 72.7881C9.1636 69.2143 3.93481 63.9736 1.32539 56.3484C0.335674 53.4383 -0.0200664 50.4222 -0.00019264 47.3541C0.00974425 45.8051 -0.00019264 44.2561 -0.00019264 42.707L0.00179474 42.709ZM16.1254 52.6568C14.4719 50.9838 13.045 49.5307 11.6041 48.0876C10.996 47.48 10.3381 47.4321 9.83931 47.9238C9.31663 48.4394 9.34644 49.073 9.96849 49.6906C11.6637 51.3716 13.3669 53.0465 15.078 54.7095C15.6862 55.2991 16.2089 55.2931 16.8329 54.7035C17.5921 53.9859 18.3314 53.2464 19.0766 52.5149C21.5788 50.0564 24.0908 47.61 26.5651 45.1255C26.8632 44.8257 27.1176 44.314 27.0997 43.9143C27.0858 43.5965 26.6684 43.1228 26.3465 43.0408C25.9907 42.9489 25.4343 43.1028 25.154 43.3586C24.0332 44.378 22.9659 45.4593 21.9146 46.5546C19.9849 48.5613 18.081 50.5941 16.1254 52.6588V52.6568Z" fill="#E375FF"/>
<path d="M45.068 15.7021C36.6733 15.7021 28.2806 15.7021 19.8859 15.7021C17.5011 15.7021 16.3086 14.5109 16.3066 12.1284C16.3066 9.28018 16.3066 6.43397 16.3066 3.58576C16.3086 1.21725 17.517 0.00401954 19.8958 0.0020208C33.3067 -0.00197668 46.7175 0.0020208 60.1263 0.0020208C63.5029 0.0020208 66.8814 2.20584e-05 70.258 0.0020208C72.6846 0.00401954 73.869 1.19727 73.869 3.63373C73.871 6.45595 73.871 9.27818 73.869 12.1004C73.869 14.5369 72.6945 15.7021 70.248 15.7021C61.8534 15.7021 53.4607 15.7021 45.066 15.7021H45.068ZM52.1609 9.09029C56.8273 9.09029 61.4917 9.09029 66.158 9.09029C67.3087 9.09029 67.8711 8.69854 67.8711 7.89904C67.8711 7.09555 67.3524 6.74777 66.1401 6.74777C56.8094 6.74777 47.4787 6.74777 38.1479 6.74777C37.8756 6.74777 37.5974 6.74777 37.3351 6.80773C36.7568 6.93965 36.4388 7.3274 36.4388 7.92903C36.4388 8.53864 36.7905 8.90441 37.351 9.04632C37.6093 9.11228 37.8935 9.0883 38.1658 9.0883C42.8322 9.0883 47.4965 9.0883 52.1629 9.0883L52.1609 9.09029ZM24.0594 7.89705C24.0594 8.56862 24.0415 9.2422 24.0654 9.91178C24.0912 10.6193 24.5244 11.0431 25.1763 11.0491C25.8143 11.0531 26.3151 10.6233 26.331 9.94576C26.3648 8.57862 26.3648 7.20948 26.3349 5.84034C26.319 5.14678 25.7586 4.65309 25.1346 4.68307C24.5205 4.71305 24.0852 5.18076 24.0654 5.88232C24.0455 6.55389 24.0614 7.22547 24.0634 7.89705H24.0594Z" fill="#E375FF" fill-opacity="0.5"/>
<path d="M16.3187 26.6392C16.3187 24.6405 16.267 22.7457 16.3346 20.8528C16.3883 19.3598 17.6681 18.1685 19.1606 18.0666C19.3594 18.0526 19.5581 18.0526 19.7569 18.0526C36.6416 18.0526 53.5284 18.0526 70.4131 18.0526C72.2912 18.0526 73.5254 18.968 73.9129 20.651C73.9785 20.9388 73.9944 21.2446 73.9944 21.5404C74.0003 24.4626 74.0023 27.3847 73.9964 30.3069C73.9924 32.4455 72.7602 33.7207 70.6297 33.7227C59.3812 33.7327 48.1326 33.7307 36.8841 33.7107C36.6237 33.7107 36.262 33.5349 36.1189 33.325C35.3379 32.1717 34.2647 31.6361 32.9014 31.6301C31.8838 31.6241 30.8643 31.65 29.8488 31.6021C28.2032 31.5241 26.7723 30.8446 26.025 29.3795C24.9042 27.1769 23.2328 26.3954 20.8618 26.6132C19.3872 26.7491 17.8927 26.6392 16.3207 26.6392H16.3187ZM52.0835 27.0949C56.899 27.0949 61.7144 27.0969 66.5298 27.0929C67.3565 27.0929 67.8852 26.6132 67.8693 25.9217C67.8534 25.2581 67.3486 24.8243 66.5536 24.8004C66.4304 24.7964 66.3052 24.8004 66.182 24.8004C56.8234 24.8004 47.4649 24.8004 38.1083 24.8004C37.8599 24.8004 37.5359 24.7224 37.3809 24.8483C37.0232 25.1341 36.6039 25.4779 36.4707 25.8857C36.2998 26.4113 36.6834 26.8411 37.2021 27.025C37.4485 27.1129 37.7386 27.0949 38.0109 27.0949C42.7031 27.0989 47.3933 27.0969 52.0855 27.0969L52.0835 27.0949Z" fill="#E375FF" fill-opacity="0.5"/>
<path d="M26.0186 69.7961C28.467 67.5575 30.5081 65.2589 32.1596 62.6286C33.8151 59.9922 34.9976 57.156 35.7329 54.08H36.498C47.7704 54.08 59.0448 54.08 70.3172 54.084C70.7107 54.084 71.1142 54.1079 71.4977 54.1959C72.9306 54.5277 73.8568 55.673 73.8647 57.154C73.8806 60.2761 73.8806 63.3981 73.8647 66.5181C73.8548 68.4969 72.559 69.7861 70.5756 69.7901C66.3047 69.8021 62.0338 69.7941 57.763 69.7941C47.5319 69.7941 37.3029 69.7941 27.0719 69.7941C26.8016 69.7941 26.5333 69.7941 26.0166 69.7941L26.0186 69.7961ZM52.1506 60.8257C49.1735 60.8257 46.1944 60.8257 43.2174 60.8257C41.4049 60.8257 39.5944 60.8177 37.7819 60.8297C37.0187 60.8357 36.4662 61.3154 36.4344 61.947C36.4026 62.6026 36.9651 63.1243 37.76 63.1722C37.8832 63.1802 38.0084 63.1742 38.1317 63.1742C47.4882 63.1742 56.8428 63.1742 66.1994 63.1702C66.4697 63.1702 66.7499 63.1582 67.0083 63.0923C67.5548 62.9524 67.8509 62.5546 67.8588 62.005C67.8668 61.4513 67.5667 61.0516 67.0301 60.8977C66.7737 60.8237 66.4915 60.8277 66.2212 60.8277C61.531 60.8237 56.8408 60.8257 52.1506 60.8257Z" fill="#E375FF" fill-opacity="0.5"/>
<path d="M36.2998 51.7434V36.0673C36.7271 36.0673 36.9894 36.0673 37.2498 36.0673C48.2757 36.0673 59.3017 36.0673 70.3277 36.0673C72.6668 36.0673 73.8672 37.2685 73.8712 39.601C73.8752 42.5232 73.8791 45.4454 73.8712 48.3675C73.8652 50.5002 72.6132 51.7634 70.4827 51.7654C59.258 51.7714 48.0333 51.7694 36.8086 51.7654C36.6138 51.7654 36.4171 51.7474 36.3018 51.7414L36.2998 51.7434ZM54.3969 45.1236C54.6691 45.1236 54.9434 45.1236 55.2157 45.1236C58.9917 45.1236 62.7657 45.1276 66.5417 45.1176C67.3685 45.1156 67.8951 44.6179 67.8693 43.9323C67.8435 43.2647 67.3387 42.839 66.5417 42.815C66.4185 42.811 66.2933 42.815 66.1701 42.815C58.3716 42.815 50.5712 42.815 42.7727 42.815C42.5501 42.815 42.3235 42.801 42.1029 42.831C41.5047 42.9129 41.0139 43.4506 41.0655 44.0063C41.1232 44.6259 41.4869 45.0056 42.1029 45.1016C42.3454 45.1395 42.5978 45.1236 42.8462 45.1236C46.6958 45.1236 50.5453 45.1236 54.3969 45.1236Z" fill="#E375FF" fill-opacity="0.5"/>
</g>
<defs>
<clipPath id="clip0_3455_5048">
<rect width="74" height="73" fill="white"/>
</clipPath>
</defs>
</svg>
