<svg width="1729" height="1002" viewBox="0 0 1729 1002" fill="none" xmlns="http://www.w3.org/2000/svg">
<rect y="372" width="1729" height="630" fill="#171725"/>
<path d="M1729 516C1729 681.685 1594.69 816 1429 816L991 816L991 300C991 134.315 1125.31 -8.25931e-06 1291 -2.2744e-05L1429 -3.48083e-05C1594.69 -4.9293e-05 1729 134.315 1729 300L1729 516Z" fill="url(#paint0_linear_3865_4395)"/>
<path d="M621 526C621 691.685 486.685 826 321 826L2 826L1.99997 442C1.99995 276.315 136.315 142 302 142L321 142C486.685 142 621 276.315 621 442L621 526Z" fill="url(#paint1_linear_3865_4395)"/>
<path d="M647 606C647 771.685 512.685 906 347 906L28 906L28 522C28 356.315 162.315 222 328 222L347 222C512.685 222 647 356.315 647 522L647 606Z" fill="url(#paint2_linear_3865_4395)"/>
<defs>
<linearGradient id="paint0_linear_3865_4395" x1="991" y1="816" x2="1601.15" y2="292.057" gradientUnits="userSpaceOnUse">
<stop stop-color="white" stop-opacity="0.04"/>
<stop offset="1" stop-color="white" stop-opacity="0"/>
</linearGradient>
<linearGradient id="paint1_linear_3865_4395" x1="1.99998" y1="826" x2="513.5" y2="386.5" gradientUnits="userSpaceOnUse">
<stop stop-color="white" stop-opacity="0.04"/>
<stop offset="1" stop-color="white" stop-opacity="0"/>
</linearGradient>
<linearGradient id="paint2_linear_3865_4395" x1="28" y1="906" x2="539.5" y2="466.5" gradientUnits="userSpaceOnUse">
<stop stop-color="white" stop-opacity="0.04"/>
<stop offset="1" stop-color="white" stop-opacity="0"/>
</linearGradient>
</defs>
</svg>
