<svg width="63" height="53" viewBox="0 0 63 53" fill="none" xmlns="http://www.w3.org/2000/svg">
<path fill-rule="evenodd" clip-rule="evenodd" d="M57.4208 15.6785C57.2581 15.6666 57.0776 15.6666 56.8883 15.6666H49.4185C43.3007 15.6666 38.0674 20.4828 38.0674 26.7604C38.0674 33.038 43.3036 37.8541 49.4185 37.8541H56.8883C57.0776 37.8541 57.2581 37.8541 57.4267 37.8423C58.6841 37.7665 59.871 37.2361 60.7663 36.3501C61.6616 35.464 62.2043 34.2826 62.2932 33.0261C62.305 32.8486 62.305 32.6563 62.305 32.4788V21.0419C62.305 20.8644 62.305 20.6721 62.2932 20.4946C62.2043 19.2381 61.6616 18.0568 60.7663 17.1707C59.871 16.2846 58.6841 15.7543 57.4267 15.6785M48.7647 29.7187C50.3385 29.7187 51.6136 28.3934 51.6136 26.7604C51.6136 25.1274 50.3385 23.802 48.7647 23.802C47.1879 23.802 45.9129 25.1274 45.9129 26.7604C45.9129 28.3934 47.1879 29.7187 48.7647 29.7187Z" fill="#0A00FF"/>
<path fill-rule="evenodd" clip-rule="evenodd" d="M56.8827 42.2917C56.985 42.2876 57.0868 42.3076 57.1799 42.3503C57.2729 42.3929 57.3546 42.4568 57.4183 42.537C57.482 42.6171 57.5259 42.7111 57.5465 42.8114C57.567 42.9117 57.5636 43.0154 57.5365 43.1141C56.9449 45.2204 56.0012 47.0191 54.4894 48.5278C52.2737 50.7466 49.4662 51.7258 45.999 52.1932C42.6265 52.6458 38.3222 52.6458 32.8847 52.6458H26.6367C21.1993 52.6458 16.892 52.6458 13.5225 52.1932C10.0553 51.7258 7.24783 50.7436 5.03203 48.5308C2.8192 46.315 1.83703 43.5075 1.36962 40.0404C0.916993 36.6679 0.916992 32.3635 0.916992 26.9261V26.5948C0.916992 21.1573 0.916993 16.85 1.36962 13.4775C1.83703 10.0103 2.8192 7.20288 5.03203 4.98708C7.24783 2.77425 10.0553 1.79208 13.5225 1.32467C16.895 0.875 21.1993 0.875 26.6367 0.875H32.8847C38.3222 0.875 42.6295 0.875 45.999 1.32763C49.4662 1.79504 52.2737 2.77721 54.4894 4.99004C56.0012 6.50471 56.9449 8.30042 57.5365 10.4068C57.5636 10.5055 57.567 10.6092 57.5465 10.7094C57.5259 10.8097 57.482 10.9037 57.4183 10.9839C57.3546 11.064 57.2729 11.128 57.1799 11.1706C57.0868 11.2132 56.985 11.2333 56.8827 11.2292H49.4159C41.0231 11.2292 33.6273 17.8558 33.6273 26.7604C33.6273 35.665 41.0231 42.2917 49.4159 42.2917H56.8827ZM12.0107 12.7083C11.4223 12.7083 10.8579 12.9421 10.4418 13.3582C10.0258 13.7743 9.79199 14.3386 9.79199 14.9271C9.79199 15.5155 10.0258 16.0799 10.4418 16.496C10.8579 16.9121 11.4223 17.1458 12.0107 17.1458H23.8441C24.4325 17.1458 24.9969 16.9121 25.413 16.496C25.8291 16.0799 26.0628 15.5155 26.0628 14.9271C26.0628 14.3386 25.8291 13.7743 25.413 13.3582C24.9969 12.9421 24.4325 12.7083 23.8441 12.7083H12.0107Z" fill="#0A00FF"/>
</svg>
